Padauk-Book.ufo
<glyph name="exclam" format="2">
  <advance width="251"/>
  <unicode hex="0021"/>
  <outline>
    <contour>
      <point x="196" y="50" type="curve" smooth="yes"/>
      <point x="196" y="13"/>
      <point x="163" y="-18"/>
      <point x="126" y="-18" type="curve" smooth="yes"/>
      <point x="89" y="-18"/>
      <point x="56" y="13"/>
      <point x="56" y="50" type="curve" smooth="yes"/>
      <point x="56" y="88"/>
      <point x="89" y="118"/>
      <point x="126" y="118" type="curve" smooth="yes"/>
      <point x="163" y="118"/>
      <point x="196" y="88"/>
    </contour>
    <contour>
      <point x="126" y="813" type="curve" smooth="yes"/>
      <point x="150" y="813"/>
      <point x="167" y="793"/>
      <point x="169" y="755" type="curve" smooth="yes"/>
      <point x="170" y="736"/>
      <point x="171" y="713"/>
      <point x="171" y="688" type="curve" smooth="yes"/>
      <point x="171" y="533"/>
      <point x="163" y="386"/>
      <point x="148" y="268" type="curve" smooth="yes"/>
      <point x="140" y="201"/>
      <point x="138" y="190"/>
      <point x="126" y="190" type="curve" smooth="yes"/>
      <point x="114" y="190"/>
      <point x="112" y="201"/>
      <point x="104" y="268" type="curve" smooth="yes"/>
      <point x="89" y="386"/>
      <point x="81" y="533"/>
      <point x="81" y="688" type="curve" smooth="yes"/>
      <point x="81" y="713"/>
      <point x="82" y="736"/>
      <point x="83" y="755" type="curve" smooth="yes"/>
      <point x="85" y="793"/>
      <point x="102" y="813"/>
    </contour>
  </outline>
</glyph>
<glyph name="quotedbl" format="2">
  <advance width="423"/>
  <unicode hex="0022"/>
  <outline>
    <contour>
      <point x="360" y="643" type="line"/>
      <point x="338" y="386" type="line"/>
      <point x="274" y="386" type="line"/>
      <point x="253" y="643" type="line"/>
    </contour>
    <contour>
      <point x="169" y="643" type="line"/>
      <point x="147" y="386" type="line"/>
      <point x="83" y="386" type="line"/>
      <point x="62" y="643" type="line"/>
    </contour>
  </outline>
</glyph>
<glyph name="quotesingle" format="2">
  <advance width="341"/>
  <unicode hex="0027"/>
  <outline>
    <contour>
      <point x="223" y="643" type="line"/>
      <point x="202" y="386" type="line"/>
      <point x="137" y="386" type="line"/>
      <point x="116" y="643" type="line"/>
    </contour>
  </outline>
</glyph>
<glyph name="parenleft" format="2">
  <advance width="418"/>
  <unicode hex="0028"/>
  <outline>
    <contour>
      <point x="368" y="-457" type="curve"/>
      <point x="289" y="-457" type="line"/>
      <point x="133" y="-263"/>
      <point x="74" y="-47"/>
      <point x="74" y="215" type="curve" smooth="yes"/>
      <point x="74" y="485"/>
      <point x="141" y="701"/>
      <point x="291" y="910" type="curve"/>
      <point x="368" y="910" type="line"/>
      <point x="217" y="703"/>
      <point x="146" y="486"/>
      <point x="146" y="215" type="curve" smooth="yes"/>
      <point x="146" y="-35"/>
      <point x="212" y="-265"/>
    </contour>
  </outline>
</glyph>
<glyph name="plus" format="2">
  <advance width="574"/>
  <unicode hex="002B"/>
  <outline>
    <contour>
      <point x="481" y="259" type="line"/>
      <point x="481" y="187" type="line"/>
      <point x="323" y="187" type="line"/>
      <point x="323" y="30" type="line"/>
      <point x="251" y="30" type="line"/>
      <point x="251" y="187" type="line"/>
      <point x="93" y="187" type="line"/>
      <point x="93" y="259" type="line"/>
      <point x="251" y="259" type="line"/>
      <point x="251" y="419" type="line"/>
      <point x="323" y="419" type="line"/>
      <point x="323" y="259" type="line"/>
    </contour>
  </outline>
</glyph>
<glyph name="period" format="2">
  <advance width="221"/>
  <unicode hex="002E"/>
  <outline>
    <contour>
      <point x="181" y="50" type="curve" smooth="yes"/>
      <point x="181" y="13"/>
      <point x="147" y="-18"/>
      <point x="111" y="-18" type="curve" smooth="yes"/>
      <point x="74" y="-18"/>
      <point x="40" y="13"/>
      <point x="40" y="50" type="curve" smooth="yes"/>
      <point x="40" y="88"/>
      <point x="74" y="118"/>
      <point x="111" y="118" type="curve" smooth="yes"/>
      <point x="147" y="118"/>
      <point x="181" y="88"/>
    </contour>
  </outline>
</glyph>
<glyph name="zero" format="2">
  <advance width="502"/>
  <unicode hex="0030"/>
  <outline>
    <contour>
      <point x="462" y="330" type="curve" smooth="yes"/>
      <point x="462" y="155"/>
      <point x="423" y="-13"/>
      <point x="251" y="-13" type="curve" smooth="yes"/>
      <point x="79" y="-13"/>
      <point x="40" y="155"/>
      <point x="40" y="330" type="curve" smooth="yes"/>
      <point x="40" y="505"/>
      <point x="79" y="655"/>
      <point x="251" y="655" type="curve" smooth="yes"/>
      <point x="423" y="655"/>
      <point x="462" y="505"/>
    </contour>
    <contour>
      <point x="362" y="330" type="curve" smooth="yes"/>
      <point x="362" y="461"/>
      <point x="350" y="576"/>
      <point x="251" y="576" type="curve" smooth="yes"/>
      <point x="150" y="576"/>
      <point x="140" y="460"/>
      <point x="140" y="330" type="curve" smooth="yes"/>
      <point x="140" y="199"/>
      <point x="150" y="66"/>
      <point x="251" y="66" type="curve" smooth="yes"/>
      <point x="350" y="66"/>
      <point x="362" y="199"/>
    </contour>
  </outline>
</glyph>
<glyph name="two" format="2">
  <advance width="502"/>
  <unicode hex="0032"/>
  <outline>
    <contour>
      <point x="456" y="0" type="line"/>
      <point x="46" y="0" type="line"/>
      <point x="46" y="93" type="line"/>
      <point x="336" y="313"/>
      <point x="354" y="411"/>
      <point x="354" y="468" type="curve" smooth="yes"/>
      <point x="354" y="534"/>
      <point x="326" y="573"/>
      <point x="263" y="573" type="curve" smooth="yes"/>
      <point x="203" y="573"/>
      <point x="169" y="537"/>
      <point x="163" y="467" type="curve"/>
      <point x="59" y="467" type="line"/>
      <point x="65" y="578"/>
      <point x="137" y="655"/>
      <point x="262" y="655" type="curve" smooth="yes"/>
      <point x="385" y="655"/>
      <point x="456" y="570"/>
      <point x="456" y="479" type="curve" smooth="yes"/>
      <point x="456" y="383"/>
      <point x="429" y="287"/>
      <point x="157" y="80" type="curve"/>
      <point x="456" y="80" type="line"/>
    </contour>
  </outline>
</glyph>
<glyph name="six" format="2">
  <advance width="502"/>
  <unicode hex="0036"/>
  <outline>
    <contour>
      <point x="464" y="200" type="curve" smooth="yes"/>
      <point x="464" y="112"/>
      <point x="419" y="-13"/>
      <point x="256" y="-13" type="curve" smooth="yes"/>
      <point x="67" y="-13"/>
      <point x="38" y="112"/>
      <point x="38" y="301" type="curve" smooth="yes"/>
      <point x="38" y="466"/>
      <point x="73" y="655"/>
      <point x="263" y="655" type="curve" smooth="yes"/>
      <point x="376" y="655"/>
      <point x="435" y="595"/>
      <point x="448" y="488" type="curve"/>
      <point x="350" y="488" type="line"/>
      <point x="346" y="551"/>
      <point x="313" y="577"/>
      <point x="263" y="577" type="curve" smooth="yes"/>
      <point x="150" y="577"/>
      <point x="137" y="399"/>
      <point x="137" y="321" type="curve"/>
      <point x="166" y="366"/>
      <point x="201" y="401"/>
      <point x="279" y="401" type="curve" smooth="yes"/>
      <point x="428" y="401"/>
      <point x="464" y="281"/>
    </contour>
    <contour>
      <point x="361" y="196" type="curve" smooth="yes"/>
      <point x="361" y="280"/>
      <point x="330" y="326"/>
      <point x="257" y="326" type="curve" smooth="yes"/>
      <point x="182" y="326"/>
      <point x="151" y="280"/>
      <point x="151" y="196" type="curve" smooth="yes"/>
      <point x="151" y="112"/>
      <point x="182" y="65"/>
      <point x="257" y="65" type="curve" smooth="yes"/>
      <point x="330" y="65"/>
      <point x="361" y="112"/>
    </contour>
  </outline>
</glyph>
<glyph name="seven" format="2">
  <advance width="502"/>
  <unicode hex="0037"/>
  <outline>
    <contour>
      <point x="455" y="542" type="line"/>
      <point x="242" y="0" type="line"/>
      <point x="128" y="0" type="line"/>
      <point x="362" y="561" type="line"/>
      <point x="47" y="561" type="line"/>
      <point x="47" y="643" type="line"/>
      <point x="455" y="643" type="line"/>
    </contour>
  </outline>
</glyph>
<glyph name="eight" format="2">
  <advance width="502"/>
  <unicode hex="0038"/>
  <outline>
    <contour>
      <point x="467" y="165" type="curve" smooth="yes"/>
      <point x="467" y="33"/>
      <point x="351" y="-12"/>
      <point x="251" y="-12" type="curve" smooth="yes"/>
      <point x="150" y="-12"/>
      <point x="36" y="35"/>
      <point x="36" y="165" type="curve" smooth="yes"/>
      <point x="36" y="266"/>
      <point x="100" y="318"/>
      <point x="158" y="342" type="curve"/>
      <point x="106" y="364"/>
      <point x="52" y="409"/>
      <point x="52" y="495" type="curve" smooth="yes"/>
      <point x="52" y="609"/>
      <point x="158" y="655"/>
      <point x="251" y="655" type="curve" smooth="yes"/>
      <point x="346" y="655"/>
      <point x="451" y="611"/>
      <point x="451" y="494" type="curve" smooth="yes"/>
      <point x="451" y="414"/>
      <point x="394" y="363"/>
      <point x="340" y="342" type="curve"/>
      <point x="394" y="323"/>
      <point x="467" y="268"/>
    </contour>
    <contour>
      <point x="352" y="478" type="curve" smooth="yes"/>
      <point x="352" y="540"/>
      <point x="314" y="577"/>
      <point x="251" y="577" type="curve" smooth="yes"/>
      <point x="189" y="577"/>
      <point x="151" y="540"/>
      <point x="151" y="478" type="curve" smooth="yes"/>
      <point x="151" y="418"/>
      <point x="196" y="380"/>
      <point x="251" y="380" type="curve" smooth="yes"/>
      <point x="307" y="380"/>
      <point x="352" y="418"/>
    </contour>
    <contour>
      <point x="366" y="185" type="curve" smooth="yes"/>
      <point x="366" y="252"/>
      <point x="325" y="301"/>
      <point x="251" y="301" type="curve" smooth="yes"/>
      <point x="179" y="301"/>
      <point x="136" y="251"/>
      <point x="136" y="185" type="curve" smooth="yes"/>
      <point x="136" y="118"/>
      <point x="173" y="66"/>
      <point x="251" y="66" type="curve" smooth="yes"/>
      <point x="332" y="66"/>
      <point x="366" y="119"/>
    </contour>
  </outline>
</glyph>
<glyph name="nine" format="2">
  <advance width="502"/>
  <unicode hex="0039"/>
  <outline>
    <contour>
      <point x="464" y="341" type="curve" smooth="yes"/>
      <point x="464" y="176"/>
      <point x="425" y="-13"/>
      <point x="239" y="-13" type="curve" smooth="yes"/>
      <point x="129" y="-13"/>
      <point x="63" y="49"/>
      <point x="53" y="155" type="curve"/>
      <point x="152" y="155" type="line"/>
      <point x="155" y="91"/>
      <point x="190" y="65"/>
      <point x="239" y="65" type="curve" smooth="yes"/>
      <point x="349" y="65"/>
      <point x="365" y="238"/>
      <point x="365" y="321" type="curve"/>
      <point x="334" y="269"/>
      <point x="290" y="241"/>
      <point x="222" y="241" type="curve" smooth="yes"/>
      <point x="70" y="241"/>
      <point x="38" y="365"/>
      <point x="38" y="442" type="curve" smooth="yes"/>
      <point x="38" y="533"/>
      <point x="86" y="655"/>
      <point x="246" y="655" type="curve" smooth="yes"/>
      <point x="438" y="655"/>
      <point x="464" y="526"/>
    </contour>
    <contour>
      <point x="350" y="446" type="curve" smooth="yes"/>
      <point x="350" y="531"/>
      <point x="320" y="577"/>
      <point x="245" y="577" type="curve" smooth="yes"/>
      <point x="171" y="577"/>
      <point x="141" y="531"/>
      <point x="141" y="446" type="curve" smooth="yes"/>
      <point x="141" y="362"/>
      <point x="171" y="316"/>
      <point x="245" y="316" type="curve" smooth="yes"/>
      <point x="320" y="316"/>
      <point x="350" y="362"/>
    </contour>
  </outline>
</glyph>
<glyph name="colon" format="2">
  <advance width="221"/>
  <unicode hex="003A"/>
  <outline>
    <contour>
      <point x="181" y="392" type="curve" smooth="yes"/>
      <point x="181" y="355"/>
      <point x="147" y="324"/>
      <point x="111" y="324" type="curve" smooth="yes"/>
      <point x="74" y="324"/>
      <point x="40" y="355"/>
      <point x="40" y="392" type="curve" smooth="yes"/>
      <point x="40" y="430"/>
      <point x="74" y="461"/>
      <point x="111" y="461" type="curve" smooth="yes"/>
      <point x="147" y="461"/>
      <point x="181" y="430"/>
    </contour>
    <contour>
      <point x="181" y="51" type="curve" smooth="yes"/>
      <point x="181" y="14"/>
      <point x="147" y="-18"/>
      <point x="111" y="-18" type="curve" smooth="yes"/>
      <point x="74" y="-18"/>
      <point x="40" y="14"/>
      <point x="40" y="51" type="curve" smooth="yes"/>
      <point x="40" y="89"/>
      <point x="74" y="119"/>
      <point x="111" y="119" type="curve" smooth="yes"/>
      <point x="147" y="119"/>
      <point x="181" y="89"/>
    </contour>
  </outline>
</glyph>
<glyph name="semicolon" format="2">
  <advance width="226"/>
  <unicode hex="003B"/>
  <outline>
    <contour>
      <point x="181" y="393" type="curve" smooth="yes"/>
      <point x="181" y="356"/>
      <point x="147" y="324"/>
      <point x="111" y="324" type="curve" smooth="yes"/>
      <point x="74" y="324"/>
      <point x="40" y="356"/>
      <point x="40" y="393" type="curve" smooth="yes"/>
      <point x="40" y="431"/>
      <point x="74" y="461"/>
      <point x="111" y="461" type="curve" smooth="yes"/>
      <point x="147" y="461"/>
      <point x="181" y="431"/>
    </contour>
    <contour>
      <point x="179" y="44" type="curve" smooth="yes"/>
      <point x="179" y="-29"/>
      <point x="131" y="-92"/>
      <point x="93" y="-116" type="curve"/>
      <point x="81" y="-106" type="line"/>
      <point x="108" y="-86"/>
      <point x="130" y="-47"/>
      <point x="130" y="3" type="curve" smooth="yes"/>
      <point x="130" y="8"/>
      <point x="130" y="12"/>
      <point x="129" y="16" type="curve"/>
      <point x="108" y="6"/>
      <point x="76" y="-4"/>
      <point x="65" y="-4" type="curve" smooth="yes"/>
      <point x="53" y="-4"/>
      <point x="40" y="16"/>
      <point x="40" y="49" type="curve" smooth="yes"/>
      <point x="40" y="86"/>
      <point x="72" y="119"/>
      <point x="107" y="119" type="curve" smooth="yes"/>
      <point x="147" y="119"/>
      <point x="179" y="85"/>
    </contour>
  </outline>
</glyph>
<glyph name="less" format="2">
  <advance width="891"/>
  <unicode hex="003C"/>
  <outline>
    <contour>
      <point x="712" y="100" type="line"/>
      <point x="712" y="34" type="line"/>
      <point x="178" y="238" type="line"/>
      <point x="178" y="295" type="line"/>
      <point x="712" y="499" type="line"/>
      <point x="712" y="434" type="line"/>
      <point x="263" y="267" type="line"/>
    </contour>
  </outline>
</glyph>
<glyph name="question" format="2">
  <advance width="447"/>
  <unicode hex="003F"/>
  <outline>
    <contour>
      <point x="268" y="56" type="curve" smooth="yes"/>
      <point x="268" y="20"/>
      <point x="239" y="-4"/>
      <point x="209" y="-4" type="curve" smooth="yes"/>
      <point x="178" y="-4"/>
      <point x="150" y="21"/>
      <point x="150" y="56" type="curve" smooth="yes"/>
      <point x="150" y="92"/>
      <point x="178" y="114"/>
      <point x="209" y="114" type="curve" smooth="yes"/>
      <point x="239" y="114"/>
      <point x="268" y="92"/>
    </contour>
    <contour>
      <point x="392" y="587" type="curve" smooth="yes"/>
      <point x="392" y="435"/>
      <point x="245" y="453"/>
      <point x="245" y="345" type="curve" smooth="yes"/>
      <point x="245" y="200" type="line"/>
      <point x="173" y="200" type="line"/>
      <point x="173" y="360" type="line" smooth="yes"/>
      <point x="173" y="486"/>
      <point x="320" y="481"/>
      <point x="320" y="587" type="curve" smooth="yes"/>
      <point x="320" y="643"/>
      <point x="268" y="701"/>
      <point x="209" y="701" type="curve" smooth="yes"/>
      <point x="140" y="701"/>
      <point x="99" y="627"/>
      <point x="99" y="589" type="curve" smooth="yes"/>
      <point x="99" y="551" type="line"/>
      <point x="27" y="551" type="line"/>
      <point x="27" y="589" type="line" smooth="yes"/>
      <point x="27" y="646"/>
      <point x="81" y="773"/>
      <point x="209" y="773" type="curve" smooth="yes"/>
      <point x="320" y="773"/>
      <point x="392" y="681"/>
    </contour>
  </outline>
</glyph>
<glyph name="A" format="2">
  <advance width="656"/>
  <unicode hex="0041"/>
  <outline>
    <contour>
      <point x="644" y="0" type="line"/>
      <point x="539" y="0" type="line"/>
      <point x="474" y="160" type="line"/>
      <point x="179" y="160" type="line"/>
      <point x="116" y="0" type="line"/>
      <point x="12" y="0" type="line"/>
      <point x="271" y="643" type="line"/>
      <point x="381" y="643" type="line"/>
    </contour>
    <contour>
      <point x="437" y="244" type="line"/>
      <point x="325" y="528" type="line"/>
      <point x="215" y="244" type="line"/>
    </contour>
  </outline>
</glyph>
<glyph name="C" format="2">
  <advance width="620"/>
  <unicode hex="0043"/>
  <outline>
    <contour>
      <point x="568" y="186" type="line"/>
      <point x="563" y="71"/>
      <point x="463" y="-13"/>
      <point x="322" y="-13" type="curve" smooth="yes"/>
      <point x="122" y="-13"/>
      <point x="51" y="144"/>
      <point x="51" y="318" type="curve" smooth="yes"/>
      <point x="51" y="495"/>
      <point x="126" y="655"/>
      <point x="323" y="655" type="curve" smooth="yes"/>
      <point x="485" y="655"/>
      <point x="559" y="575"/>
      <point x="563" y="460" type="curve"/>
      <point x="460" y="460" type="line"/>
      <point x="457" y="535"/>
      <point x="417" y="574"/>
      <point x="323" y="574" type="curve" smooth="yes"/>
      <point x="209" y="574"/>
      <point x="157" y="487"/>
      <point x="157" y="318" type="curve" smooth="yes"/>
      <point x="157" y="141"/>
      <point x="212" y="68"/>
      <point x="321" y="68" type="curve" smooth="yes"/>
      <point x="403" y="68"/>
      <point x="456" y="108"/>
      <point x="460" y="186" type="curve"/>
    </contour>
  </outline>
</glyph>
<glyph name="F" format="2">
  <advance width="511"/>
  <unicode hex="0046"/>
  <outline>
    <contour>
      <point x="436" y="287" type="line"/>
      <point x="172" y="287" type="line"/>
      <point x="172" y="0" type="line"/>
      <point x="69" y="0" type="line"/>
      <point x="69" y="643" type="line"/>
      <point x="454" y="643" type="line"/>
      <point x="454" y="557" type="line"/>
      <point x="172" y="557" type="line"/>
      <point x="172" y="372" type="line"/>
      <point x="436" y="372" type="line"/>
    </contour>
  </outline>
</glyph>
<glyph name="G" format="2">
  <advance width="682"/>
  <unicode hex="0047"/>
  <outline>
    <contour>
      <point x="613" y="30" type="line"/>
      <point x="527" y="2"/>
      <point x="435" y="-13"/>
      <point x="380" y="-13" type="curve" smooth="yes"/>
      <point x="128" y="-13"/>
      <point x="51" y="160"/>
      <point x="51" y="336" type="curve" smooth="yes"/>
      <point x="51" y="516"/>
      <point x="176" y="655"/>
      <point x="368" y="655" type="curve" smooth="yes"/>
      <point x="536" y="655"/>
      <point x="619" y="562"/>
      <point x="619" y="469" type="curve"/>
      <point x="514" y="469" type="line"/>
      <point x="513" y="520"/>
      <point x="455" y="569"/>
      <point x="371" y="569" type="curve" smooth="yes"/>
      <point x="217" y="569"/>
      <point x="158" y="461"/>
      <point x="158" y="334" type="curve" smooth="yes"/>
      <point x="158" y="193"/>
      <point x="220" y="74"/>
      <point x="372" y="74" type="curve" smooth="yes"/>
      <point x="414" y="74"/>
      <point x="463" y="80"/>
      <point x="509" y="92" type="curve"/>
      <point x="509" y="255" type="line"/>
      <point x="373" y="255" type="line"/>
      <point x="373" y="343" type="line"/>
      <point x="613" y="343" type="line"/>
    </contour>
  </outline>
</glyph>
<glyph name="I" format="2">
  <advance width="241"/>
  <unicode hex="0049"/>
  <outline>
    <contour>
      <point x="172" y="0" type="line"/>
      <point x="69" y="0" type="line"/>
      <point x="69" y="643" type="line"/>
      <point x="172" y="643" type="line"/>
    </contour>
  </outline>
</glyph>
<glyph name="K" format="2">
  <advance width="601"/>
  <unicode hex="004B"/>
  <outline>
    <contour>
      <point x="576" y="0" type="line"/>
      <point x="442" y="0" type="line"/>
      <point x="172" y="333" type="line"/>
      <point x="172" y="0" type="line"/>
      <point x="69" y="0" type="line"/>
      <point x="69" y="643" type="line"/>
      <point x="172" y="643" type="line"/>
      <point x="172" y="368" type="line"/>
      <point x="420" y="643" type="line"/>
      <point x="545" y="643" type="line"/>
      <point x="287" y="362" type="line"/>
    </contour>
  </outline>
</glyph>
<glyph name="L" format="2">
  <advance width="483"/>
  <unicode hex="004C"/>
  <outline>
    <contour>
      <point x="459" y="0" type="line"/>
      <point x="69" y="0" type="line"/>
      <point x="69" y="643" type="line"/>
      <point x="172" y="643" type="line"/>
      <point x="172" y="86" type="line"/>
      <point x="459" y="86" type="line"/>
    </contour>
  </outline>
</glyph>
<glyph name="N" format="2">
  <advance width="657"/>
  <unicode hex="004E"/>
  <outline>
    <contour>
      <point x="589" y="0" type="line"/>
      <point x="441" y="0" type="line"/>
      <point x="169" y="522" type="line"/>
      <point x="169" y="0" type="line"/>
      <point x="69" y="0" type="line"/>
      <point x="69" y="643" type="line"/>
      <point x="215" y="643" type="line"/>
      <point x="487" y="120" type="line"/>
      <point x="487" y="643" type="line"/>
      <point x="589" y="643" type="line"/>
    </contour>
  </outline>
</glyph>
<glyph name="P" format="2">
  <advance width="565"/>
  <unicode hex="0050"/>
  <outline>
    <contour>
      <point x="512" y="452" type="curve" smooth="yes"/>
      <point x="512" y="296"/>
      <point x="388" y="263"/>
      <point x="266" y="263" type="curve" smooth="yes"/>
      <point x="172" y="263" type="line"/>
      <point x="172" y="0" type="line"/>
      <point x="69" y="0" type="line"/>
      <point x="69" y="643" type="line"/>
      <point x="266" y="643" type="line" smooth="yes"/>
      <point x="392" y="643"/>
      <point x="512" y="606"/>
    </contour>
    <contour>
      <point x="411" y="452" type="curve" smooth="yes"/>
      <point x="411" y="530"/>
      <point x="357" y="557"/>
      <point x="257" y="557" type="curve" smooth="yes"/>
      <point x="172" y="557" type="line"/>
      <point x="172" y="349" type="line"/>
      <point x="257" y="349" type="line" smooth="yes"/>
      <point x="355" y="349"/>
      <point x="411" y="375"/>
    </contour>
  </outline>
</glyph>
<glyph name="R" format="2">
  <advance width="576"/>
  <unicode hex="0052"/>
  <outline>
    <contour>
      <point x="540" y="0" type="curve"/>
      <point x="434" y="0" type="line"/>
      <point x="415" y="76"/>
      <point x="416" y="97"/>
      <point x="405" y="154" type="curve" smooth="yes"/>
      <point x="383" y="266"/>
      <point x="364" y="282"/>
      <point x="262" y="282" type="curve" smooth="yes"/>
      <point x="172" y="282" type="line"/>
      <point x="172" y="0" type="line"/>
      <point x="69" y="0" type="line"/>
      <point x="69" y="643" type="line"/>
      <point x="287" y="643" type="line" smooth="yes"/>
      <point x="443" y="643"/>
      <point x="524" y="594"/>
      <point x="524" y="468" type="curve" smooth="yes"/>
      <point x="524" y="398"/>
      <point x="462" y="353"/>
      <point x="399" y="325" type="curve"/>
      <point x="438" y="316"/>
      <point x="469" y="300"/>
      <point x="486" y="258" type="curve" smooth="yes"/>
      <point x="507" y="206"/>
      <point x="506" y="86"/>
    </contour>
    <contour>
      <point x="420" y="461" type="curve" smooth="yes"/>
      <point x="420" y="532"/>
      <point x="361" y="557"/>
      <point x="286" y="557" type="curve" smooth="yes"/>
      <point x="172" y="557" type="line"/>
      <point x="172" y="367" type="line"/>
      <point x="283" y="367" type="line" smooth="yes"/>
      <point x="358" y="367"/>
      <point x="420" y="394"/>
    </contour>
  </outline>
</glyph>
<glyph name="S" format="2">
  <advance width="595"/>
  <unicode hex="0053"/>
  <outline>
    <contour>
      <point x="543" y="181" type="curve" smooth="yes"/>
      <point x="543" y="36"/>
      <point x="399" y="-13"/>
      <point x="279" y="-13" type="curve" smooth="yes"/>
      <point x="153" y="-13"/>
      <point x="51" y="64"/>
      <point x="51" y="195" type="curve"/>
      <point x="157" y="195" type="line"/>
      <point x="158" y="122"/>
      <point x="207" y="74"/>
      <point x="279" y="74" type="curve" smooth="yes"/>
      <point x="346" y="74"/>
      <point x="441" y="88"/>
      <point x="441" y="172" type="curve" smooth="yes"/>
      <point x="441" y="354"/>
      <point x="63" y="215"/>
      <point x="63" y="472" type="curve" smooth="yes"/>
      <point x="63" y="590"/>
      <point x="187" y="655"/>
      <point x="290" y="655" type="curve" smooth="yes"/>
      <point x="408" y="655"/>
      <point x="520" y="606"/>
      <point x="520" y="475" type="curve"/>
      <point x="415" y="475" type="line"/>
      <point x="415" y="552"/>
      <point x="352" y="571"/>
      <point x="287" y="571" type="curve" smooth="yes"/>
      <point x="223" y="571"/>
      <point x="166" y="544"/>
      <point x="166" y="475" type="curve" smooth="yes"/>
      <point x="166" y="321"/>
      <point x="543" y="430"/>
    </contour>
  </outline>
</glyph>
<glyph name="T" format="2">
  <advance width="553"/>
  <unicode hex="0054"/>
  <outline>
    <contour>
      <point x="532" y="557" type="line"/>
      <point x="328" y="557" type="line"/>
      <point x="328" y="0" type="line"/>
      <point x="224" y="0" type="line"/>
      <point x="224" y="557" type="line"/>
      <point x="21" y="557" type="line"/>
      <point x="21" y="643" type="line"/>
      <point x="532" y="643" type="line"/>
    </contour>
  </outline>
</glyph>
<glyph name="U" format="2">
  <advance width="661"/>
  <unicode hex="0055"/>
  <outline>
    <contour>
      <point x="594" y="279" type="line" smooth="yes"/>
      <point x="594" y="79"/>
      <point x="502" y="-13"/>
      <point x="329" y="-13" type="curve" smooth="yes"/>
      <point x="151" y="-13"/>
      <point x="69" y="82"/>
      <point x="69" y="279" type="curve" smooth="yes"/>
      <point x="69" y="643" type="line"/>
      <point x="172" y="643" type="line"/>
      <point x="172" y="279" type="line" smooth="yes"/>
      <point x="172" y="111"/>
      <point x="239" y="74"/>
      <point x="330" y="74" type="curve" smooth="yes"/>
      <point x="420" y="74"/>
      <point x="489" y="110"/>
      <point x="489" y="279" type="curve" smooth="yes"/>
      <point x="489" y="643" type="line"/>
      <point x="594" y="643" type="line"/>
    </contour>
  </outline>
</glyph>
<glyph name="X" format="2">
  <advance width="624"/>
  <unicode hex="0058"/>
  <outline>
    <contour>
      <point x="605" y="0" type="line"/>
      <point x="479" y="0" type="line"/>
      <point x="304" y="267" type="line"/>
      <point x="132" y="0" type="line"/>
      <point x="17" y="0" type="line"/>
      <point x="249" y="340" type="line"/>
      <point x="44" y="643" type="line"/>
      <point x="170" y="643" type="line"/>
      <point x="318" y="413" type="line"/>
      <point x="463" y="643" type="line"/>
      <point x="579" y="643" type="line"/>
      <point x="372" y="340" type="line"/>
    </contour>
  </outline>
</glyph>
<glyph name="Y" format="2">
  <advance width="590"/>
  <unicode hex="0059"/>
  <outline>
    <contour>
      <point x="577" y="643" type="line"/>
      <point x="346" y="252" type="line"/>
      <point x="346" y="0" type="line"/>
      <point x="243" y="0" type="line"/>
      <point x="243" y="252" type="line"/>
      <point x="12" y="643" type="line"/>
      <point x="134" y="643" type="line"/>
      <point x="298" y="347" type="line"/>
      <point x="461" y="643" type="line"/>
    </contour>
  </outline>
</glyph>
<glyph name="Z" format="2">
  <advance width="554"/>
  <unicode hex="005A"/>
  <outline>
    <contour>
      <point x="513" y="0" type="line"/>
      <point x="40" y="0" type="line"/>
      <point x="40" y="102" type="line"/>
      <point x="389" y="557" type="line"/>
      <point x="58" y="557" type="line"/>
      <point x="58" y="643" type="line"/>
      <point x="505" y="643" type="line"/>
      <point x="505" y="540" type="line"/>
      <point x="156" y="86" type="line"/>
      <point x="513" y="86" type="line"/>
    </contour>
  </outline>
</glyph>
<glyph name="backslash" format="2">
  <advance width="516"/>
  <unicode hex="005C"/>
  <outline>
    <contour>
      <point x="460" y="-178" type="line"/>
      <point x="406" y="-233" type="line"/>
      <point x="55" y="766" type="line"/>
      <point x="110" y="819" type="line"/>
    </contour>
  </outline>
</glyph>
<glyph name="bracketright" format="2">
  <advance width="351"/>
  <unicode hex="005D"/>
  <outline>
    <contour>
      <point x="264" y="-177" type="line"/>
      <point x="87" y="-177" type="line"/>
      <point x="87" y="-120" type="line"/>
      <point x="178" y="-120" type="line"/>
      <point x="178" y="585" type="line"/>
      <point x="87" y="585" type="line"/>
      <point x="87" y="643" type="line"/>
      <point x="264" y="643" type="line"/>
    </contour>
  </outline>
</glyph>
<glyph name="asciicircum" format="2">
  <advance width="494"/>
  <unicode hex="005E"/>
  <anchor x="247" y="485" name="_U"/>
  <anchor x="226" y="495" name="UM"/>
  <outline>
    <contour>
      <point x="476" y="630" type="line"/>
      <point x="437" y="591" type="line"/>
      <point x="247" y="780" type="line"/>
      <point x="57" y="591" type="line"/>
      <point x="18" y="630" type="line"/>
      <point x="247" y="859" type="line"/>
    </contour>
  </outline>
</glyph>
<glyph name="c" format="2">
  <advance width="462"/>
  <unicode hex="0063"/>
  <outline>
    <contour>
      <point x="420" y="154" type="line"/>
      <point x="420" y="61"/>
      <point x="370" y="-12"/>
      <point x="240" y="-12" type="curve" smooth="yes"/>
      <point x="107" y="-12"/>
      <point x="43" y="66"/>
      <point x="43" y="220" type="curve" smooth="yes"/>
      <point x="43" y="376"/>
      <point x="104" y="456"/>
      <point x="234" y="456" type="curve" smooth="yes"/>
      <point x="359" y="456"/>
      <point x="417" y="401"/>
      <point x="417" y="313" type="curve" smooth="yes"/>
      <point x="417" y="309"/>
      <point x="417" y="304"/>
      <point x="417" y="300" type="curve"/>
      <point x="325" y="300" type="line"/>
      <point x="325" y="304"/>
      <point x="326" y="309"/>
      <point x="326" y="313" type="curve" smooth="yes"/>
      <point x="326" y="371"/>
      <point x="280" y="391"/>
      <point x="232" y="391" type="curve" smooth="yes"/>
      <point x="172" y="391"/>
      <point x="134" y="349"/>
      <point x="134" y="221" type="curve" smooth="yes"/>
      <point x="134" y="98"/>
      <point x="168" y="53"/>
      <point x="238" y="53" type="curve" smooth="yes"/>
      <point x="308" y="53"/>
      <point x="327" y="111"/>
      <point x="327" y="154" type="curve"/>
    </contour>
  </outline>
</glyph>
<glyph name="d" format="2">
  <advance width="533"/>
  <unicode hex="0064"/>
  <outline>
    <contour>
      <point x="471" y="0" type="line"/>
      <point x="378" y="0" type="line"/>
      <point x="378" y="54" type="line"/>
      <point x="349" y="19"/>
      <point x="303" y="-12"/>
      <point x="250" y="-12" type="curve" smooth="yes"/>
      <point x="135" y="-12"/>
      <point x="43" y="87"/>
      <point x="43" y="215" type="curve" smooth="yes"/>
      <point x="43" y="337"/>
      <point x="100" y="456"/>
      <point x="232" y="456" type="curve" smooth="yes"/>
      <point x="293" y="456"/>
      <point x="344" y="437"/>
      <point x="378" y="393" type="curve"/>
      <point x="378" y="643" type="line"/>
      <point x="471" y="643" type="line"/>
    </contour>
    <contour>
      <point x="377" y="219" type="curve" smooth="yes"/>
      <point x="377" y="320"/>
      <point x="328" y="396"/>
      <point x="252" y="396" type="curve" smooth="yes"/>
      <point x="166" y="396"/>
      <point x="137" y="298"/>
      <point x="137" y="222" type="curve" smooth="yes"/>
      <point x="137" y="137"/>
      <point x="181" y="57"/>
      <point x="258" y="57" type="curve" smooth="yes"/>
      <point x="343" y="57"/>
      <point x="377" y="149"/>
    </contour>
  </outline>
</glyph>
<glyph name="f" format="2">
  <advance width="301"/>
  <unicode hex="0066"/>
  <outline>
    <contour>
      <point x="301" y="572" type="line"/>
      <point x="287" y="579"/>
      <point x="271" y="584"/>
      <point x="252" y="584" type="curve" smooth="yes"/>
      <point x="206" y="584"/>
      <point x="189" y="563"/>
      <point x="189" y="510" type="curve" smooth="yes"/>
      <point x="189" y="445" type="line"/>
      <point x="291" y="445" type="line"/>
      <point x="291" y="381" type="line"/>
      <point x="189" y="381" type="line"/>
      <point x="189" y="0" type="line"/>
      <point x="94" y="0" type="line"/>
      <point x="94" y="381" type="line"/>
      <point x="9" y="381" type="line"/>
      <point x="9" y="445" type="line"/>
      <point x="94" y="445" type="line"/>
      <point x="94" y="513" type="line" smooth="yes"/>
      <point x="94" y="621"/>
      <point x="142" y="652"/>
      <point x="229" y="652" type="curve" smooth="yes"/>
      <point x="252" y="652"/>
      <point x="276" y="649"/>
      <point x="301" y="642" type="curve"/>
    </contour>
  </outline>
</glyph>
<glyph name="h" format="2">
  <advance width="517"/>
  <unicode hex="0068"/>
  <outline>
    <contour>
      <point x="457" y="0" type="line"/>
      <point x="362" y="0" type="line"/>
      <point x="362" y="276" type="line" smooth="yes"/>
      <point x="362" y="358"/>
      <point x="324" y="394"/>
      <point x="274" y="394" type="curve" smooth="yes"/>
      <point x="196" y="394"/>
      <point x="154" y="332"/>
      <point x="154" y="288" type="curve" smooth="yes"/>
      <point x="154" y="0" type="line"/>
      <point x="60" y="0" type="line"/>
      <point x="60" y="643" type="line"/>
      <point x="154" y="643" type="line"/>
      <point x="154" y="392" type="line"/>
      <point x="183" y="432"/>
      <point x="227" y="456"/>
      <point x="296" y="456" type="curve" smooth="yes"/>
      <point x="409" y="456"/>
      <point x="457" y="397"/>
      <point x="457" y="285" type="curve" smooth="yes"/>
    </contour>
  </outline>
</glyph>
<glyph name="j" format="2">
  <advance width="275"/>
  <unicode hex="006A"/>
  <outline>
    <contour>
      <point x="218" y="588" type="line"/>
      <point x="161" y="549" type="line"/>
      <point x="116" y="604" type="line"/>
      <point x="172" y="643" type="line"/>
    </contour>
    <contour>
      <point x="214" y="-72" type="line" smooth="yes"/>
      <point x="214" y="-133"/>
      <point x="179" y="-188"/>
      <point x="97" y="-188" type="curve" smooth="yes"/>
      <point x="59" y="-188"/>
      <point x="8" y="-172"/>
      <point x="-24" y="-142" type="curve"/>
      <point x="28" y="-83" type="line"/>
      <point x="42" y="-99"/>
      <point x="61" y="-108"/>
      <point x="80" y="-108" type="curve" smooth="yes"/>
      <point x="108" y="-108"/>
      <point x="120" y="-86"/>
      <point x="120" y="-45" type="curve" smooth="yes"/>
      <point x="120" y="445" type="line"/>
      <point x="214" y="445" type="line"/>
    </contour>
  </outline>
</glyph>
<glyph name="k" format="2">
  <advance width="459"/>
  <unicode hex="006B"/>
  <outline>
    <contour>
      <point x="443" y="0" type="line"/>
      <point x="323" y="0" type="line"/>
      <point x="154" y="235" type="line"/>
      <point x="154" y="0" type="line"/>
      <point x="60" y="0" type="line"/>
      <point x="60" y="643" type="line"/>
      <point x="154" y="643" type="line"/>
      <point x="154" y="262" type="line"/>
      <point x="314" y="445" type="line"/>
      <point x="429" y="445" type="line"/>
      <point x="256" y="252" type="line"/>
    </contour>
  </outline>
</glyph>
<glyph name="m" format="2">
  <advance width="803"/>
  <unicode hex="006D"/>
  <outline>
    <contour>
      <point x="742" y="0" type="line"/>
      <point x="648" y="0" type="line"/>
      <point x="648" y="287" type="line" smooth="yes"/>
      <point x="648" y="349"/>
      <point x="617" y="394"/>
      <point x="556" y="394" type="curve" smooth="yes"/>
      <point x="495" y="394"/>
      <point x="449" y="331"/>
      <point x="449" y="280" type="curve" smooth="yes"/>
      <point x="449" y="0" type="line"/>
      <point x="355" y="0" type="line"/>
      <point x="355" y="287" type="line" smooth="yes"/>
      <point x="355" y="343"/>
      <point x="321" y="394"/>
      <point x="265" y="394" type="curve" smooth="yes"/>
      <point x="198" y="394"/>
      <point x="154" y="327"/>
      <point x="154" y="278" type="curve" smooth="yes"/>
      <point x="154" y="0" type="line"/>
      <point x="60" y="0" type="line"/>
      <point x="60" y="445" type="line"/>
      <point x="154" y="445" type="line"/>
      <point x="154" y="384" type="line"/>
      <point x="188" y="430"/>
      <point x="229" y="456"/>
      <point x="289" y="456" type="curve" smooth="yes"/>
      <point x="368" y="456"/>
      <point x="404" y="433"/>
      <point x="435" y="377" type="curve"/>
      <point x="477" y="436"/>
      <point x="521" y="456"/>
      <point x="581" y="456" type="curve" smooth="yes"/>
      <point x="712" y="456"/>
      <point x="742" y="369"/>
      <point x="742" y="289" type="curve" smooth="yes"/>
    </contour>
  </outline>
</glyph>
<glyph name="n" format="2">
  <advance width="518"/>
  <unicode hex="006E"/>
  <outline>
    <contour>
      <point x="453" y="0" type="line"/>
      <point x="359" y="0" type="line"/>
      <point x="359" y="286" type="line" smooth="yes"/>
      <point x="359" y="352"/>
      <point x="317" y="397"/>
      <point x="260" y="397" type="curve" smooth="yes"/>
      <point x="198" y="397"/>
      <point x="150" y="347"/>
      <point x="150" y="273" type="curve" smooth="yes"/>
      <point x="150" y="0" type="line"/>
      <point x="56" y="0" type="line"/>
      <point x="56" y="445" type="line"/>
      <point x="150" y="445" type="line"/>
      <point x="150" y="389" type="line"/>
      <point x="179" y="432"/>
      <point x="217" y="456"/>
      <point x="289" y="456" type="curve" smooth="yes"/>
      <point x="406" y="456"/>
      <point x="453" y="391"/>
      <point x="453" y="296" type="curve" smooth="yes"/>
    </contour>
  </outline>
</glyph>
<glyph name="o" format="2">
  <advance width="531"/>
  <unicode hex="006F"/>
  <outline>
    <contour>
      <point x="488" y="222" type="curve" smooth="yes"/>
      <point x="488" y="70"/>
      <point x="390" y="-12"/>
      <point x="266" y="-12" type="curve" smooth="yes"/>
      <point x="138" y="-12"/>
      <point x="43" y="72"/>
      <point x="43" y="222" type="curve" smooth="yes"/>
      <point x="43" y="374"/>
      <point x="140" y="456"/>
      <point x="266" y="456" type="curve" smooth="yes"/>
      <point x="393" y="456"/>
      <point x="488" y="372"/>
    </contour>
    <contour>
      <point x="392" y="222" type="curve" smooth="yes"/>
      <point x="392" y="313"/>
      <point x="352" y="394"/>
      <point x="266" y="394" type="curve" smooth="yes"/>
      <point x="178" y="394"/>
      <point x="138" y="312"/>
      <point x="138" y="222" type="curve" smooth="yes"/>
      <point x="138" y="133"/>
      <point x="178" y="52"/>
      <point x="266" y="52" type="curve" smooth="yes"/>
      <point x="352" y="52"/>
      <point x="392" y="131"/>
    </contour>
  </outline>
</glyph>
<glyph name="q" format="2">
  <advance width="538"/>
  <unicode hex="0071"/>
  <outline>
    <contour>
      <point x="476" y="-177" type="line"/>
      <point x="382" y="-177" type="line"/>
      <point x="382" y="44" type="line"/>
      <point x="342" y="11"/>
      <point x="305" y="-13"/>
      <point x="245" y="-13" type="curve" smooth="yes"/>
      <point x="105" y="-13"/>
      <point x="43" y="86"/>
      <point x="43" y="224" type="curve" smooth="yes"/>
      <point x="43" y="355"/>
      <point x="104" y="456"/>
      <point x="248" y="456" type="curve" smooth="yes"/>
      <point x="305" y="456"/>
      <point x="345" y="429"/>
      <point x="382" y="387" type="curve"/>
      <point x="382" y="445" type="line"/>
      <point x="476" y="445" type="line"/>
    </contour>
    <contour>
      <point x="384" y="223" type="curve" smooth="yes"/>
      <point x="384" y="305"/>
      <point x="349" y="393"/>
      <point x="262" y="393" type="curve" smooth="yes"/>
      <point x="173" y="393"/>
      <point x="139" y="306"/>
      <point x="139" y="224" type="curve" smooth="yes"/>
      <point x="139" y="139"/>
      <point x="173" y="51"/>
      <point x="264" y="51" type="curve" smooth="yes"/>
      <point x="348" y="51"/>
      <point x="384" y="126"/>
    </contour>
  </outline>
</glyph>
<glyph name="r" format="2">
  <advance width="330"/>
  <unicode hex="0072"/>
  <outline>
    <contour>
      <point x="314" y="367" type="line"/>
      <point x="203" y="367"/>
      <point x="154" y="321"/>
      <point x="154" y="242" type="curve" smooth="yes"/>
      <point x="154" y="0" type="line"/>
      <point x="60" y="0" type="line"/>
      <point x="60" y="445" type="line"/>
      <point x="154" y="445" type="line"/>
      <point x="154" y="381" type="line"/>
      <point x="180" y="427"/>
      <point x="209" y="449"/>
      <point x="314" y="449" type="curve"/>
    </contour>
  </outline>
</glyph>
<glyph name="s" format="2">
  <advance width="453"/>
  <unicode hex="0073"/>
  <outline>
    <contour>
      <point x="410" y="133" type="curve" smooth="yes"/>
      <point x="410" y="24"/>
      <point x="310" y="-12"/>
      <point x="214" y="-12" type="curve" smooth="yes"/>
      <point x="119" y="-12"/>
      <point x="43" y="27"/>
      <point x="43" y="132" type="curve"/>
      <point x="137" y="132" type="line"/>
      <point x="139" y="72"/>
      <point x="172" y="52"/>
      <point x="225" y="52" type="curve" smooth="yes"/>
      <point x="270" y="52"/>
      <point x="316" y="77"/>
      <point x="316" y="124" type="curve" smooth="yes"/>
      <point x="316" y="230"/>
      <point x="54" y="148"/>
      <point x="54" y="331" type="curve" smooth="yes"/>
      <point x="54" y="396"/>
      <point x="104" y="456"/>
      <point x="225" y="456" type="curve" smooth="yes"/>
      <point x="328" y="456"/>
      <point x="397" y="425"/>
      <point x="397" y="322" type="curve"/>
      <point x="303" y="322" type="line"/>
      <point x="303" y="359"/>
      <point x="290" y="394"/>
      <point x="222" y="394" type="curve" smooth="yes"/>
      <point x="180" y="394"/>
      <point x="147" y="368"/>
      <point x="147" y="332" type="curve" smooth="yes"/>
      <point x="147" y="232"/>
      <point x="410" y="306"/>
    </contour>
  </outline>
</glyph>
<glyph name="t" format="2">
  <advance width="332"/>
  <unicode hex="0074"/>
  <outline>
    <contour>
      <point x="307" y="1" type="line"/>
      <point x="282" y="-7"/>
      <point x="258" y="-12"/>
      <point x="232" y="-12" type="curve" smooth="yes"/>
      <point x="155" y="-12"/>
      <point x="109" y="22"/>
      <point x="109" y="114" type="curve" smooth="yes"/>
      <point x="109" y="382" type="line"/>
      <point x="26" y="382" type="line"/>
      <point x="26" y="445" type="line"/>
      <point x="109" y="445" type="line"/>
      <point x="109" y="527" type="line"/>
      <point x="203" y="570" type="line"/>
      <point x="203" y="445" type="line"/>
      <point x="304" y="445" type="line"/>
      <point x="304" y="382" type="line"/>
      <point x="203" y="382" type="line"/>
      <point x="203" y="125" type="line" smooth="yes"/>
      <point x="203" y="72"/>
      <point x="223" y="57"/>
      <point x="258" y="57" type="curve" smooth="yes"/>
      <point x="276" y="57"/>
      <point x="292" y="59"/>
      <point x="307" y="64" type="curve"/>
    </contour>
  </outline>
</glyph>
<glyph name="u" format="2">
  <advance width="517"/>
  <unicode hex="0075"/>
  <outline>
    <contour>
      <point x="457" y="0" type="line"/>
      <point x="362" y="0" type="line"/>
      <point x="362" y="58" type="line"/>
      <point x="334" y="13"/>
      <point x="296" y="-12"/>
      <point x="224" y="-12" type="curve" smooth="yes"/>
      <point x="112" y="-12"/>
      <point x="60" y="46"/>
      <point x="60" y="148" type="curve" smooth="yes"/>
      <point x="60" y="445" type="line"/>
      <point x="154" y="445" type="line"/>
      <point x="154" y="159" type="line" smooth="yes"/>
      <point x="154" y="92"/>
      <point x="197" y="48"/>
      <point x="252" y="48" type="curve" smooth="yes"/>
      <point x="316" y="48"/>
      <point x="362" y="94"/>
      <point x="362" y="171" type="curve" smooth="yes"/>
      <point x="362" y="445" type="line"/>
      <point x="457" y="445" type="line"/>
    </contour>
  </outline>
</glyph>
<glyph name="v" format="2">
  <advance width="479"/>
  <unicode hex="0076"/>
  <outline>
    <contour>
      <point x="467" y="445" type="line"/>
      <point x="289" y="0" type="line"/>
      <point x="190" y="0" type="line"/>
      <point x="12" y="445" type="line"/>
      <point x="117" y="445" type="line"/>
      <point x="243" y="110" type="line"/>
      <point x="367" y="445" type="line"/>
    </contour>
  </outline>
</glyph>
<glyph name="w" format="2">
  <advance width="737"/>
  <unicode hex="0077"/>
  <outline>
    <contour>
      <point x="725" y="445" type="line"/>
      <point x="580" y="0" type="line"/>
      <point x="479" y="0" type="line"/>
      <point x="369" y="350" type="line"/>
      <point x="258" y="0" type="line"/>
      <point x="157" y="0" type="line"/>
      <point x="12" y="445" type="line"/>
      <point x="110" y="445" type="line"/>
      <point x="209" y="115" type="line"/>
      <point x="310" y="445" type="line"/>
      <point x="427" y="445" type="line"/>
      <point x="528" y="115" type="line"/>
      <point x="628" y="445" type="line"/>
    </contour>
  </outline>
</glyph>
<glyph name="x" format="2">
  <advance width="487"/>
  <unicode hex="0078"/>
  <outline>
    <contour>
      <point x="472" y="0" type="line"/>
      <point x="357" y="0" type="line"/>
      <point x="236" y="170" type="line"/>
      <point x="121" y="0" type="line"/>
      <point x="15" y="0" type="line"/>
      <point x="186" y="233" type="line"/>
      <point x="29" y="445" type="line"/>
      <point x="143" y="445" type="line"/>
      <point x="250" y="294" type="line"/>
      <point x="353" y="445" type="line"/>
      <point x="459" y="445" type="line"/>
      <point x="302" y="233" type="line"/>
    </contour>
  </outline>
</glyph>
<glyph name="y" format="2">
  <advance width="479"/>
  <unicode hex="0079"/>
  <outline>
    <contour>
      <point x="467" y="445" type="line"/>
      <point x="258" y="-101" type="line" smooth="yes"/>
      <point x="241" y="-148"/>
      <point x="206" y="-182"/>
      <point x="141" y="-182" type="curve" smooth="yes"/>
      <point x="84" y="-182"/>
      <point x="39" y="-152"/>
      <point x="15" y="-101" type="curve"/>
      <point x="82" y="-59" type="line"/>
      <point x="94" y="-86"/>
      <point x="112" y="-102"/>
      <point x="138" y="-102" type="curve" smooth="yes"/>
      <point x="156" y="-102"/>
      <point x="168" y="-84"/>
      <point x="180" y="-51" type="curve" smooth="yes"/>
      <point x="198" y="0" type="line"/>
      <point x="12" y="445" type="line"/>
      <point x="119" y="445" type="line"/>
      <point x="247" y="126" type="line"/>
      <point x="366" y="445" type="line"/>
    </contour>
  </outline>
</glyph>
<glyph name="bar" format="2">
  <advance width="321"/>
  <unicode hex="007C"/>
  <outline>
    <contour>
      <point x="194" y="-230" type="line"/>
      <point x="127" y="-230" type="line"/>
      <point x="127" y="709" type="line"/>
      <point x="194" y="709" type="line"/>
    </contour>
  </outline>
</glyph>
<glyph name="braceright" format="2">
  <advance width="418"/>
  <unicode hex="007D"/>
  <outline>
    <contour>
      <point x="347" y="225" type="curve" smooth="yes"/>
      <point x="347" y="172"/>
      <point x="243" y="146"/>
      <point x="243" y="54" type="curve" smooth="yes"/>
      <point x="243" y="-215"/>
      <point x="231" y="-428"/>
      <point x="55" y="-428" type="curve"/>
      <point x="55" y="-357" type="line"/>
      <point x="155" y="-357"/>
      <point x="171" y="-205"/>
      <point x="171" y="68" type="curve" smooth="yes"/>
      <point x="171" y="177"/>
      <point x="269" y="211"/>
      <point x="269" y="225" type="curve" smooth="yes"/>
      <point x="269" y="239"/>
      <point x="171" y="272"/>
      <point x="171" y="382" type="curve" smooth="yes"/>
      <point x="171" y="656"/>
      <point x="155" y="809"/>
      <point x="55" y="809" type="curve"/>
      <point x="55" y="878" type="line"/>
      <point x="231" y="878"/>
      <point x="243" y="666"/>
      <point x="243" y="397" type="curve" smooth="yes"/>
      <point x="243" y="305"/>
      <point x="347" y="278"/>
    </contour>
  </outline>
</glyph>
<glyph name="u1003" format="2">
  <advance width="989"/>
  <unicode hex="1003"/>
  <anchor x="0" y="0" name="_R"/>
  <anchor x="698" y="-53" name="BS"/>
  <anchor x="698" y="-53" name="L"/>
  <anchor x="491" y="-53" name="BD"/>
  <anchor x="698" y="495" name="U"/>
  <outline>
    <contour>
      <point x="934" y="222" type="curve" smooth="yes"/>
      <point x="934" y="90"/>
      <point x="826" y="-18"/>
      <point x="697" y="-18" type="curve" smooth="yes"/>
      <point x="610" y="-18"/>
      <point x="536" y="38"/>
      <point x="495" y="112" type="curve"/>
      <point x="454" y="31"/>
      <point x="376" y="-18"/>
      <point x="287" y="-18" type="curve" smooth="yes"/>
      <point x="145" y="-18"/>
      <point x="55" y="86"/>
      <point x="55" y="167" type="curve" smooth="yes"/>
      <point x="55" y="302"/>
      <point x="194" y="285"/>
      <point x="194" y="340" type="curve" smooth="yes"/>
      <point x="194" y="378"/>
      <point x="171" y="392"/>
      <point x="151" y="392" type="curve" smooth="yes"/>
      <point x="130" y="392"/>
      <point x="114" y="373"/>
      <point x="112" y="364" type="curve"/>
      <point x="55" y="398" type="line"/>
      <point x="62" y="427"/>
      <point x="110" y="459"/>
      <point x="151" y="459" type="curve" smooth="yes"/>
      <point x="207" y="459"/>
      <point x="261" y="419"/>
      <point x="261" y="340" type="curve" smooth="yes"/>
      <point x="261" y="239"/>
      <point x="127" y="249"/>
      <point x="127" y="167" type="curve" smooth="yes"/>
      <point x="127" y="140"/>
      <point x="176" y="54"/>
      <point x="287" y="54" type="curve" smooth="yes"/>
      <point x="389" y="54"/>
      <point x="455" y="139"/>
      <point x="455" y="248" type="curve" smooth="yes"/>
      <point x="455" y="310"/>
      <point x="427" y="367"/>
      <point x="390" y="400" type="curve"/>
      <point x="432" y="460" type="line"/>
      <point x="491" y="414"/>
      <point x="527" y="342"/>
      <point x="527" y="238" type="curve" smooth="yes"/>
      <point x="527" y="157"/>
      <point x="611" y="54"/>
      <point x="697" y="54" type="curve" smooth="yes"/>
      <point x="788" y="54"/>
      <point x="862" y="130"/>
      <point x="862" y="222" type="curve" smooth="yes"/>
      <point x="862" y="313"/>
      <point x="788" y="390"/>
      <point x="697" y="390" type="curve" smooth="yes"/>
      <point x="684" y="390"/>
      <point x="668" y="387"/>
      <point x="655" y="381" type="curve"/>
      <point x="627" y="447" type="line"/>
      <point x="647" y="457"/>
      <point x="673" y="461"/>
      <point x="697" y="461" type="curve" smooth="yes"/>
      <point x="826" y="461"/>
      <point x="934" y="353"/>
    </contour>
  </outline>
</glyph>
<glyph name="u1005" format="2">
  <advance width="581"/>
  <unicode hex="1005"/>
  <anchor x="0" y="0" name="_R"/>
  <anchor x="290" y="-53" name="BS"/>
  <anchor x="290" y="-53" name="L"/>
  <anchor x="290" y="495" name="U"/>
  <anchor x="288" y="-53" name="BD"/>
  <outline>
    <contour>
      <point x="525" y="222" type="curve" smooth="yes"/>
      <point x="525" y="90"/>
      <point x="421" y="-18"/>
      <point x="291" y="-18" type="curve" smooth="yes"/>
      <point x="159" y="-18"/>
      <point x="55" y="90"/>
      <point x="55" y="222" type="curve" smooth="yes"/>
      <point x="55" y="352"/>
      <point x="159" y="461"/>
      <point x="289" y="461" type="curve" smooth="yes"/>
      <point x="422" y="461"/>
      <point x="525" y="352"/>
    </contour>
    <contour>
      <point x="453" y="222" type="curve" smooth="yes"/>
      <point x="453" y="311"/>
      <point x="382" y="388"/>
      <point x="295" y="390" type="curve" smooth="yes"/>
      <point x="278" y="390"/>
      <point x="263" y="386"/>
      <point x="248" y="380" type="curve"/>
      <point x="295" y="330"/>
      <point x="309" y="272"/>
      <point x="309" y="222" type="curve" smooth="yes"/>
      <point x="309" y="172"/>
      <point x="294" y="114"/>
      <point x="248" y="63" type="curve"/>
      <point x="263" y="58"/>
      <point x="278" y="54"/>
      <point x="293" y="54" type="curve" smooth="yes"/>
      <point x="382" y="57"/>
      <point x="453" y="131"/>
    </contour>
    <contour>
      <point x="244" y="222" type="curve" smooth="yes"/>
      <point x="244" y="256"/>
      <point x="231" y="307"/>
      <point x="189" y="352" type="curve"/>
      <point x="152" y="322"/>
      <point x="127" y="273"/>
      <point x="127" y="222" type="curve" smooth="yes"/>
      <point x="127" y="168"/>
      <point x="150" y="122"/>
      <point x="188" y="92" type="curve"/>
      <point x="230" y="136"/>
      <point x="244" y="186"/>
    </contour>
  </outline>
</glyph>
<glyph name="u1006" format="2">
  <advance width="982"/>
  <unicode hex="1006"/>
  <anchor x="0" y="0" name="_R"/>
  <anchor x="692" y="-53" name="BS"/>
  <anchor x="692" y="-53" name="L"/>
  <anchor x="492" y="-53" name="BD"/>
  <anchor x="692" y="495" name="U"/>
  <outline>
    <contour>
      <point x="927" y="222" type="curve" smooth="yes"/>
      <point x="927" y="90"/>
      <point x="820" y="-18"/>
      <point x="692" y="-18" type="curve" smooth="yes"/>
      <point x="606" y="-18"/>
      <point x="532" y="29"/>
      <point x="492" y="98" type="curve"/>
      <point x="452" y="29"/>
      <point x="377" y="-18"/>
      <point x="289" y="-18" type="curve" smooth="yes"/>
      <point x="188" y="-18"/>
      <point x="64" y="52"/>
      <point x="56" y="166" type="curve"/>
      <point x="120" y="202"/>
      <point x="173" y="221"/>
      <point x="223" y="221" type="curve" smooth="yes"/>
      <point x="293" y="221"/>
      <point x="370" y="185"/>
      <point x="419" y="122" type="curve"/>
      <point x="442" y="149"/>
      <point x="456" y="182"/>
      <point x="456" y="222" type="curve" smooth="yes"/>
      <point x="456" y="297"/>
      <point x="393" y="390"/>
      <point x="289" y="390" type="curve" smooth="yes"/>
      <point x="230" y="390"/>
      <point x="170" y="358"/>
      <point x="129" y="292" type="curve"/>
      <point x="68" y="327" type="line"/>
      <point x="105" y="412"/>
      <point x="197" y="461"/>
      <point x="289" y="461" type="curve" smooth="yes"/>
      <point x="378" y="461"/>
      <point x="452" y="413"/>
      <point x="492" y="345" type="curve"/>
      <point x="532" y="415"/>
      <point x="606" y="461"/>
      <point x="692" y="461" type="curve" smooth="yes"/>
      <point x="821" y="461"/>
      <point x="927" y="352"/>
    </contour>
    <contour>
      <point x="855" y="222" type="curve" smooth="yes"/>
      <point x="855" y="313"/>
      <point x="782" y="390"/>
      <point x="692" y="390" type="curve" smooth="yes"/>
      <point x="601" y="390"/>
      <point x="528" y="313"/>
      <point x="528" y="222" type="curve" smooth="yes"/>
      <point x="528" y="130"/>
      <point x="603" y="54"/>
      <point x="692" y="54" type="curve" smooth="yes"/>
      <point x="783" y="54"/>
      <point x="855" y="130"/>
    </contour>
    <contour>
      <point x="371" y="75" type="curve"/>
      <point x="340" y="122"/>
      <point x="287" y="156"/>
      <point x="226" y="156" type="curve" smooth="yes"/>
      <point x="197" y="156"/>
      <point x="169" y="149"/>
      <point x="137" y="135" type="curve"/>
      <point x="175" y="76"/>
      <point x="234" y="54"/>
      <point x="289" y="54" type="curve" smooth="yes"/>
      <point x="320" y="54"/>
      <point x="346" y="62"/>
    </contour>
  </outline>
</glyph>
<glyph name="u1007" format="2">
  <advance width="622"/>
  <unicode hex="1007"/>
  <anchor x="0" y="0" name="_R"/>
  <anchor x="290" y="-53" name="BS"/>
  <anchor x="290" y="-53" name="L"/>
  <anchor x="291" y="495" name="U"/>
  <anchor x="286" y="-53" name="BD"/>
  <outline>
    <contour>
      <point x="581" y="154" type="curve"/>
      <point x="527" y="115" type="line"/>
      <point x="514" y="140"/>
      <point x="494" y="175"/>
      <point x="477" y="200" type="curve"/>
      <point x="453" y="165"/>
      <point x="410" y="148"/>
      <point x="369" y="148" type="curve" smooth="yes"/>
      <point x="313" y="148"/>
      <point x="262" y="181"/>
      <point x="262" y="241" type="curve" smooth="yes"/>
      <point x="262" y="293"/>
      <point x="295" y="338"/>
      <point x="358" y="343" type="curve" smooth="yes"/>
      <point x="372" y="343"/>
      <point x="386" y="340"/>
      <point x="401" y="333" type="curve"/>
      <point x="385" y="363"/>
      <point x="351" y="391"/>
      <point x="292" y="391" type="curve" smooth="yes"/>
      <point x="201" y="391"/>
      <point x="127" y="310"/>
      <point x="127" y="222" type="curve" smooth="yes"/>
      <point x="127" y="127"/>
      <point x="198" y="54"/>
      <point x="290" y="54" type="curve" smooth="yes"/>
      <point x="345" y="54"/>
      <point x="382" y="71"/>
      <point x="419" y="103" type="curve"/>
      <point x="468" y="50" type="line"/>
      <point x="420" y="6"/>
      <point x="374" y="-18"/>
      <point x="290" y="-18" type="curve" smooth="yes"/>
      <point x="157" y="-18"/>
      <point x="55" y="90"/>
      <point x="55" y="222" type="curve" smooth="yes"/>
      <point x="55" y="351"/>
      <point x="163" y="461"/>
      <point x="290" y="461" type="curve" smooth="yes"/>
      <point x="402" y="461"/>
      <point x="490" y="391"/>
      <point x="498" y="289" type="curve"/>
      <point x="523" y="259"/>
      <point x="560" y="197"/>
    </contour>
    <contour>
      <point x="434" y="256" type="curve"/>
      <point x="414" y="275"/>
      <point x="396" y="283"/>
      <point x="367" y="283" type="curve" smooth="yes"/>
      <point x="342" y="283"/>
      <point x="324" y="270"/>
      <point x="324" y="241" type="curve" smooth="yes"/>
      <point x="324" y="220"/>
      <point x="347" y="210"/>
      <point x="369" y="210" type="curve" smooth="yes"/>
      <point x="399" y="210"/>
      <point x="430" y="221"/>
    </contour>
  </outline>
</glyph>
<glyph name="u1008" format="2">
  <advance width="760"/>
  <unicode hex="1008"/>
  <anchor x="0" y="0" name="_R"/>
  <anchor x="841" y="-53" name="BS"/>
  <anchor x="196" y="-53" name="LL"/>
  <anchor x="841" y="-53" name="L"/>
  <anchor x="541" y="489" name="U"/>
  <anchor x="810" y="-53" name="BD"/>
  <outline>
    <contour>
      <point x="692" y="-457" type="line"/>
      <point x="345" y="-371" type="line"/>
      <point x="345" y="-10" type="line"/>
      <point x="327" y="-15"/>
      <point x="310" y="-17"/>
      <point x="292" y="-17" type="curve" smooth="yes"/>
      <point x="159" y="-17"/>
      <point x="55" y="90"/>
      <point x="55" y="222" type="curve" smooth="yes"/>
      <point x="55" y="353"/>
      <point x="160" y="462"/>
      <point x="289" y="462" type="curve" smooth="yes"/>
      <point x="422" y="462"/>
      <point x="525" y="353"/>
      <point x="525" y="222" type="curve" smooth="yes"/>
      <point x="525" y="136"/>
      <point x="483" y="62"/>
      <point x="418" y="20" type="curve"/>
      <point x="418" y="-314" type="line"/>
      <point x="620" y="-364" type="line"/>
      <point x="620" y="451" type="line"/>
      <point x="692" y="451" type="line"/>
    </contour>
    <contour>
      <point x="453" y="222" type="curve" smooth="yes"/>
      <point x="453" y="313"/>
      <point x="382" y="389"/>
      <point x="294" y="390" type="curve" smooth="yes"/>
      <point x="278" y="390"/>
      <point x="264" y="386"/>
      <point x="249" y="381" type="curve"/>
      <point x="294" y="330"/>
      <point x="309" y="271"/>
      <point x="309" y="222" type="curve" smooth="yes"/>
      <point x="309" y="173"/>
      <point x="293" y="114"/>
      <point x="248" y="63" type="curve"/>
      <point x="261" y="57"/>
      <point x="276" y="54"/>
      <point x="292" y="54" type="curve" smooth="yes"/>
      <point x="382" y="57"/>
      <point x="453" y="132"/>
    </contour>
    <contour>
      <point x="244" y="222" type="curve" smooth="yes"/>
      <point x="244" y="257"/>
      <point x="232" y="308"/>
      <point x="189" y="353" type="curve"/>
      <point x="151" y="322"/>
      <point x="127" y="275"/>
      <point x="127" y="222" type="curve" smooth="yes"/>
      <point x="127" y="169"/>
      <point x="150" y="123"/>
      <point x="187" y="92" type="curve"/>
      <point x="230" y="137"/>
      <point x="244" y="187"/>
    </contour>
  </outline>
</glyph>
<glyph name="u100D" format="2">
  <advance width="579"/>
  <unicode hex="100D"/>
  <anchor x="154" y="-173" name="BS"/>
  <anchor x="280" y="-52" name="LL"/>
  <anchor x="622" y="-53" name="L"/>
  <anchor x="14" y="-173" name="BD"/>
  <anchor x="277" y="495" name="U"/>
  <anchor x="0" y="0" name="_R"/>
  <outline>
    <contour>
      <point x="546" y="-457" type="line"/>
      <point x="400" y="-457" type="line"/>
      <point x="400" y="-147" type="line"/>
      <point x="360" y="-162"/>
      <point x="322" y="-169"/>
      <point x="277" y="-169" type="curve" smooth="yes"/>
      <point x="201" y="-169"/>
      <point x="118" y="-147"/>
      <point x="55" y="-101" type="curve"/>
      <point x="55" y="117" type="line"/>
      <point x="119" y="151" type="line"/>
      <point x="154" y="86"/>
      <point x="215" y="54"/>
      <point x="277" y="54" type="curve" smooth="yes"/>
      <point x="369" y="54"/>
      <point x="445" y="130"/>
      <point x="445" y="222" type="curve" smooth="yes"/>
      <point x="445" y="313"/>
      <point x="369" y="390"/>
      <point x="277" y="390" type="curve" smooth="yes"/>
      <point x="215" y="390"/>
      <point x="154" y="356"/>
      <point x="119" y="292" type="curve"/>
      <point x="55" y="327" type="line"/>
      <point x="97" y="419"/>
      <point x="193" y="461"/>
      <point x="277" y="461" type="curve" smooth="yes"/>
      <point x="408" y="461"/>
      <point x="516" y="352"/>
      <point x="516" y="222" type="curve" smooth="yes"/>
      <point x="516" y="90"/>
      <point x="408" y="-18"/>
      <point x="277" y="-18" type="curve" smooth="yes"/>
      <point x="226" y="-18"/>
      <point x="171" y="0"/>
      <point x="127" y="33" type="curve"/>
      <point x="127" y="-61" type="line"/>
      <point x="174" y="-85"/>
      <point x="223" y="-100"/>
      <point x="277" y="-100" type="curve" smooth="yes"/>
      <point x="355" y="-100"/>
      <point x="421" y="-71"/>
      <point x="472" y="-39" type="curve"/>
      <point x="472" y="-385" type="line"/>
      <point x="546" y="-385" type="line"/>
    </contour>
  </outline>
</glyph>
<glyph name="u100E" format="2">
  <advance width="582"/>
  <unicode hex="100E"/>
  <anchor x="0" y="0" name="_R"/>
  <anchor x="287" y="-53" name="BS"/>
  <anchor x="287" y="-53" name="L"/>
  <anchor x="287" y="495" name="U"/>
  <anchor x="285" y="-53" name="BD"/>
  <outline>
    <contour>
      <point x="527" y="240" type="curve" smooth="yes"/>
      <point x="527" y="86"/>
      <point x="418" y="-18"/>
      <point x="287" y="-18" type="curve" smooth="yes"/>
      <point x="145" y="-18"/>
      <point x="55" y="86"/>
      <point x="55" y="167" type="curve" smooth="yes"/>
      <point x="55" y="302"/>
      <point x="194" y="285"/>
      <point x="194" y="340" type="curve" smooth="yes"/>
      <point x="194" y="379"/>
      <point x="171" y="392"/>
      <point x="149" y="392" type="curve" smooth="yes"/>
      <point x="130" y="392"/>
      <point x="115" y="376"/>
      <point x="112" y="369" type="curve"/>
      <point x="55" y="404" type="line"/>
      <point x="60" y="424"/>
      <point x="102" y="459"/>
      <point x="148" y="459" type="curve" smooth="yes"/>
      <point x="208" y="459"/>
      <point x="261" y="419"/>
      <point x="261" y="340" type="curve" smooth="yes"/>
      <point x="261" y="239"/>
      <point x="127" y="249"/>
      <point x="127" y="167" type="curve" smooth="yes"/>
      <point x="127" y="140"/>
      <point x="176" y="54"/>
      <point x="287" y="54" type="curve" smooth="yes"/>
      <point x="369" y="54"/>
      <point x="455" y="120"/>
      <point x="455" y="240" type="curve" smooth="yes"/>
      <point x="455" y="309"/>
      <point x="431" y="362"/>
      <point x="390" y="400" type="curve"/>
      <point x="432" y="460" type="line"/>
      <point x="490" y="415"/>
      <point x="527" y="349"/>
    </contour>
  </outline>
</glyph>
<glyph name="u1010" format="2">
  <advance width="987"/>
  <unicode hex="1010"/>
  <anchor x="0" y="0" name="_R"/>
  <anchor x="695" y="-53" name="BS"/>
  <anchor x="695" y="-53" name="L"/>
  <anchor x="495" y="-53" name="BD"/>
  <anchor x="695" y="495" name="U"/>
  <outline>
    <contour>
      <point x="932" y="222" type="curve" smooth="yes"/>
      <point x="932" y="90"/>
      <point x="823" y="-18"/>
      <point x="695" y="-18" type="curve" smooth="yes"/>
      <point x="671" y="-18"/>
      <point x="645" y="-14"/>
      <point x="625" y="-4" type="curve"/>
      <point x="654" y="62" type="line"/>
      <point x="667" y="56"/>
      <point x="682" y="54"/>
      <point x="695" y="54" type="curve" smooth="yes"/>
      <point x="787" y="54"/>
      <point x="860" y="130"/>
      <point x="860" y="222" type="curve" smooth="yes"/>
      <point x="860" y="313"/>
      <point x="787" y="390"/>
      <point x="695" y="390" type="curve" smooth="yes"/>
      <point x="591" y="390"/>
      <point x="528" y="270"/>
      <point x="525" y="213" type="curve" smooth="yes"/>
      <point x="525" y="112"/>
      <point x="436" y="-18"/>
      <point x="292" y="-18" type="curve" smooth="yes"/>
      <point x="159" y="-18"/>
      <point x="55" y="90"/>
      <point x="55" y="222" type="curve" smooth="yes"/>
      <point x="55" y="352"/>
      <point x="160" y="461"/>
      <point x="289" y="461" type="curve" smooth="yes"/>
      <point x="378" y="461"/>
      <point x="456" y="410"/>
      <point x="495" y="334" type="curve"/>
      <point x="536" y="405"/>
      <point x="611" y="461"/>
      <point x="695" y="461" type="curve" smooth="yes"/>
      <point x="823" y="461"/>
      <point x="932" y="352"/>
    </contour>
    <contour>
      <point x="453" y="219" type="curve" smooth="yes"/>
      <point x="453" y="311"/>
      <point x="383" y="390"/>
      <point x="292" y="390" type="curve" smooth="yes"/>
      <point x="200" y="390"/>
      <point x="127" y="313"/>
      <point x="127" y="222" type="curve" smooth="yes"/>
      <point x="127" y="130"/>
      <point x="200" y="54"/>
      <point x="289" y="54" type="curve" smooth="yes"/>
      <point x="384" y="54"/>
      <point x="453" y="135"/>
    </contour>
  </outline>
</glyph>
<glyph name="u1012" format="2">
  <advance width="540"/>
  <unicode hex="1012"/>
  <anchor x="0" y="0" name="_R"/>
  <anchor x="270" y="-53" name="BS"/>
  <anchor x="270" y="-53" name="L"/>
  <anchor x="270" y="495" name="U"/>
  <anchor x="267" y="-53" name="BD"/>
  <outline>
    <contour>
      <point x="485" y="126" type="curve" smooth="yes"/>
      <point x="485" y="47"/>
      <point x="420" y="-18"/>
      <point x="270" y="-18" type="curve" smooth="yes"/>
      <point x="128" y="-18"/>
      <point x="55" y="39"/>
      <point x="55" y="117" type="curve"/>
      <point x="123" y="143" type="line"/>
      <point x="123" y="93"/>
      <point x="174" y="55"/>
      <point x="270" y="54" type="curve" smooth="yes"/>
      <point x="339" y="54"/>
      <point x="413" y="72"/>
      <point x="413" y="127" type="curve" smooth="yes"/>
      <point x="413" y="173"/>
      <point x="338" y="187"/>
      <point x="280" y="190" type="curve"/>
      <point x="280" y="254" type="line"/>
      <point x="338" y="257"/>
      <point x="413" y="270"/>
      <point x="413" y="317" type="curve" smooth="yes"/>
      <point x="413" y="371"/>
      <point x="339" y="390"/>
      <point x="270" y="390" type="curve" smooth="yes"/>
      <point x="174" y="390"/>
      <point x="123" y="351"/>
      <point x="123" y="301" type="curve"/>
      <point x="55" y="326" type="line"/>
      <point x="55" y="404"/>
      <point x="130" y="461"/>
      <point x="270" y="461" type="curve" smooth="yes"/>
      <point x="420" y="461"/>
      <point x="485" y="396"/>
      <point x="485" y="317" type="curve" smooth="yes"/>
      <point x="485" y="274"/>
      <point x="459" y="236"/>
      <point x="416" y="221" type="curve"/>
      <point x="459" y="206"/>
      <point x="485" y="168"/>
    </contour>
  </outline>
</glyph>
<glyph name="u1014" format="2">
  <advance width="542"/>
  <unicode hex="1014"/>
  <anchor x="8" y="0" name="_R"/>
  <anchor x="549" y="-53" name="BS"/>
  <anchor x="502" y="-53" name="L"/>
  <anchor x="281" y="495" name="U"/>
  <anchor x="531" y="-53" name="BD"/>
  <outline>
    <contour>
      <point x="491" y="143" type="curve" smooth="yes"/>
      <point x="491" y="55"/>
      <point x="442" y="10"/>
      <point x="346" y="-9" type="curve"/>
      <point x="346" y="-457" type="line"/>
      <point x="274" y="-457" type="line"/>
      <point x="274" y="-18" type="line"/>
      <point x="241" y="-18" type="line" smooth="yes"/>
      <point x="154" y="-18"/>
      <point x="52" y="-4"/>
      <point x="52" y="97" type="curve" smooth="yes"/>
      <point x="52" y="157"/>
      <point x="111" y="209"/>
      <point x="188" y="209" type="curve" smooth="yes"/>
      <point x="228" y="209"/>
      <point x="261" y="195"/>
      <point x="289" y="166" type="curve" smooth="yes"/>
      <point x="317" y="137"/>
      <point x="334" y="102"/>
      <point x="342" y="59" type="curve"/>
      <point x="385" y="69"/>
      <point x="419" y="91"/>
      <point x="419" y="143" type="curve" smooth="yes"/>
      <point x="419" y="258"/>
      <point x="143" y="236"/>
      <point x="143" y="361" type="curve" smooth="yes"/>
      <point x="143" y="426"/>
      <point x="209" y="461"/>
      <point x="281" y="461" type="curve" smooth="yes"/>
      <point x="328" y="461"/>
      <point x="365" y="447"/>
      <point x="392" y="423" type="curve"/>
      <point x="355" y="371" type="line"/>
      <point x="343" y="381"/>
      <point x="314" y="396"/>
      <point x="281" y="396" type="curve" smooth="yes"/>
      <point x="249" y="396"/>
      <point x="215" y="387"/>
      <point x="215" y="362" type="curve" smooth="yes"/>
      <point x="215" y="300"/>
      <point x="491" y="314"/>
    </contour>
    <contour>
      <point x="271" y="48" type="line"/>
      <point x="261" y="99"/>
      <point x="232" y="142"/>
      <point x="188" y="142" type="curve" smooth="yes"/>
      <point x="154" y="142"/>
      <point x="119" y="124"/>
      <point x="119" y="97" type="curve" smooth="yes"/>
      <point x="119" y="53"/>
      <point x="181" y="48"/>
      <point x="232" y="48" type="curve" smooth="yes"/>
    </contour>
  </outline>
</glyph>
<glyph name="u1016" format="2">
  <advance width="590"/>
  <unicode hex="1016"/>
  <anchor x="0" y="0" name="_R"/>
  <anchor x="295" y="-53" name="BS"/>
  <anchor x="295" y="-53" name="L"/>
  <anchor x="295" y="495" name="U"/>
  <anchor x="292" y="-53" name="BD"/>
  <outline>
    <contour>
      <point x="534" y="239" type="curve" smooth="yes"/>
      <point x="534" y="88"/>
      <point x="427" y="-18"/>
      <point x="295" y="-18" type="curve" smooth="yes"/>
      <point x="163" y="-18"/>
      <point x="55" y="88"/>
      <point x="55" y="239" type="curve" smooth="yes"/>
      <point x="55" y="344"/>
      <point x="90" y="411"/>
      <point x="150" y="460" type="curve"/>
      <point x="192" y="400" type="line"/>
      <point x="152" y="361"/>
      <point x="127" y="314"/>
      <point x="127" y="239" type="curve" smooth="yes"/>
      <point x="127" y="132"/>
      <point x="203" y="54"/>
      <point x="295" y="54" type="curve" smooth="yes"/>
      <point x="329" y="54"/>
      <point x="358" y="63"/>
      <point x="382" y="82" type="curve"/>
      <point x="331" y="127"/>
      <point x="303" y="180"/>
      <point x="303" y="252" type="curve" smooth="yes"/>
      <point x="303" y="329"/>
      <point x="335" y="407"/>
      <point x="410" y="460" type="curve"/>
      <point x="470" y="409"/>
      <point x="534" y="343"/>
    </contour>
    <contour>
      <point x="462" y="239" type="curve" smooth="yes"/>
      <point x="462" y="292"/>
      <point x="435" y="329"/>
      <point x="403" y="362" type="curve"/>
      <point x="377" y="324"/>
      <point x="368" y="287"/>
      <point x="368" y="252" type="curve" smooth="yes"/>
      <point x="368" y="201"/>
      <point x="390" y="160"/>
      <point x="430" y="129" type="curve"/>
      <point x="450" y="157"/>
      <point x="462" y="196"/>
    </contour>
  </outline>
</glyph>
<glyph name="u1017" format="2">
  <advance width="590"/>
  <unicode hex="1017"/>
  <anchor x="0" y="0" name="_R"/>
  <anchor x="295" y="-53" name="BS"/>
  <anchor x="295" y="-53" name="L"/>
  <anchor x="295" y="495" name="U"/>
  <anchor x="292" y="-53" name="BD"/>
  <outline>
    <contour>
      <point x="534" y="227" type="curve" smooth="yes"/>
      <point x="534" y="93"/>
      <point x="427" y="-18"/>
      <point x="295" y="-18" type="curve" smooth="yes"/>
      <point x="163" y="-18"/>
      <point x="55" y="93"/>
      <point x="55" y="227" type="curve" smooth="yes"/>
      <point x="55" y="325"/>
      <point x="82" y="416"/>
      <point x="148" y="460" type="curve"/>
      <point x="189" y="388"/>
      <point x="230" y="347"/>
      <point x="295" y="347" type="curve" smooth="yes"/>
      <point x="360" y="347"/>
      <point x="401" y="388"/>
      <point x="442" y="460" type="curve"/>
      <point x="505" y="416"/>
      <point x="534" y="325"/>
    </contour>
    <contour>
      <point x="462" y="227" type="curve" smooth="yes"/>
      <point x="462" y="276"/>
      <point x="454" y="309"/>
      <point x="433" y="342" type="curve"/>
      <point x="402" y="301"/>
      <point x="357" y="275"/>
      <point x="295" y="275" type="curve" smooth="yes"/>
      <point x="232" y="275"/>
      <point x="187" y="301"/>
      <point x="157" y="343" type="curve"/>
      <point x="134" y="310"/>
      <point x="127" y="277"/>
      <point x="127" y="227" type="curve" smooth="yes"/>
      <point x="127" y="135"/>
      <point x="200" y="54"/>
      <point x="295" y="54" type="curve" smooth="yes"/>
      <point x="389" y="54"/>
      <point x="462" y="135"/>
    </contour>
  </outline>
</glyph>
<glyph name="u1019" format="2">
  <advance width="590"/>
  <unicode hex="1019"/>
  <anchor x="0" y="0" name="_R"/>
  <anchor x="296" y="-53" name="BS"/>
  <anchor x="296" y="-53" name="L"/>
  <anchor x="295" y="495" name="U"/>
  <anchor x="294" y="-53" name="BD"/>
  <outline>
    <contour>
      <point x="534" y="239" type="curve" smooth="yes"/>
      <point x="534" y="90"/>
      <point x="429" y="-18"/>
      <point x="295" y="-18" type="curve" smooth="yes"/>
      <point x="161" y="-18"/>
      <point x="55" y="90"/>
      <point x="55" y="239" type="curve" smooth="yes"/>
      <point x="55" y="344"/>
      <point x="89" y="409"/>
      <point x="150" y="460" type="curve"/>
      <point x="192" y="400" type="line"/>
      <point x="150" y="358"/>
      <point x="127" y="311"/>
      <point x="127" y="239" type="curve" smooth="yes"/>
      <point x="127" y="219"/>
      <point x="131" y="198"/>
      <point x="138" y="177" type="curve"/>
      <point x="186" y="221"/>
      <point x="243" y="237"/>
      <point x="295" y="237" type="curve" smooth="yes"/>
      <point x="347" y="237"/>
      <point x="403" y="222"/>
      <point x="451" y="178" type="curve"/>
      <point x="459" y="198"/>
      <point x="462" y="218"/>
      <point x="462" y="239" type="curve" smooth="yes"/>
      <point x="462" y="311"/>
      <point x="439" y="357"/>
      <point x="397" y="400" type="curve"/>
      <point x="439" y="460" type="line"/>
      <point x="501" y="409"/>
      <point x="534" y="344"/>
    </contour>
    <contour>
      <point x="424" y="118" type="curve"/>
      <point x="379" y="159"/>
      <point x="331" y="172"/>
      <point x="295" y="172" type="curve" smooth="yes"/>
      <point x="261" y="172"/>
      <point x="212" y="160"/>
      <point x="167" y="117" type="curve"/>
      <point x="196" y="78"/>
      <point x="242" y="54"/>
      <point x="295" y="54" type="curve" smooth="yes"/>
      <point x="349" y="54"/>
      <point x="392" y="77"/>
    </contour>
  </outline>
</glyph>
<glyph name="u101A" format="2">
  <advance width="988"/>
  <unicode hex="101A"/>
  <anchor x="0" y="0" name="_R"/>
  <anchor x="697" y="-53" name="BS"/>
  <anchor x="697" y="-53" name="L"/>
  <anchor x="500" y="-53" name="BD"/>
  <anchor x="697" y="495" name="U"/>
  <outline>
    <contour>
      <point x="933" y="222" type="curve" smooth="yes"/>
      <point x="933" y="90"/>
      <point x="825" y="-18"/>
      <point x="697" y="-18" type="curve" smooth="yes"/>
      <point x="612" y="-18"/>
      <point x="542" y="39"/>
      <point x="502" y="110" type="curve"/>
      <point x="461" y="31"/>
      <point x="385" y="-18"/>
      <point x="295" y="-18" type="curve" smooth="yes"/>
      <point x="161" y="-18"/>
      <point x="55" y="91"/>
      <point x="55" y="238" type="curve" smooth="yes"/>
      <point x="55" y="343"/>
      <point x="89" y="408"/>
      <point x="150" y="460" type="curve"/>
      <point x="192" y="400" type="line"/>
      <point x="150" y="357"/>
      <point x="127" y="312"/>
      <point x="127" y="238" type="curve" smooth="yes"/>
      <point x="127" y="135"/>
      <point x="199" y="54"/>
      <point x="295" y="54" type="curve" smooth="yes"/>
      <point x="391" y="54"/>
      <point x="462" y="135"/>
      <point x="462" y="238" type="curve" smooth="yes"/>
      <point x="462" y="310"/>
      <point x="440" y="357"/>
      <point x="397" y="400" type="curve"/>
      <point x="439" y="460" type="line"/>
      <point x="510" y="399"/>
      <point x="534" y="330"/>
      <point x="534" y="242" type="curve" smooth="yes"/>
      <point x="534" y="155"/>
      <point x="609" y="54"/>
      <point x="697" y="54" type="curve" smooth="yes"/>
      <point x="788" y="54"/>
      <point x="862" y="130"/>
      <point x="862" y="222" type="curve" smooth="yes"/>
      <point x="862" y="313"/>
      <point x="788" y="390"/>
      <point x="697" y="390" type="curve" smooth="yes"/>
      <point x="683" y="390"/>
      <point x="668" y="387"/>
      <point x="654" y="381" type="curve"/>
      <point x="626" y="447" type="line"/>
      <point x="647" y="457"/>
      <point x="671" y="461"/>
      <point x="697" y="461" type="curve" smooth="yes"/>
      <point x="825" y="461"/>
      <point x="933" y="353"/>
    </contour>
  </outline>
</glyph>
<glyph name="u101C" format="2">
  <advance width="968"/>
  <unicode hex="101C"/>
  <anchor x="0" y="0" name="_R"/>
  <anchor x="686" y="-53" name="BS"/>
  <anchor x="686" y="-53" name="L"/>
  <anchor x="484" y="-53" name="BD"/>
  <anchor x="686" y="495" name="U"/>
  <outline>
    <contour>
      <point x="913" y="222" type="curve" smooth="yes"/>
      <point x="913" y="90"/>
      <point x="816" y="-18"/>
      <point x="686" y="-18" type="curve" smooth="yes"/>
      <point x="538" y="-18"/>
      <point x="473" y="97"/>
      <point x="447" y="222" type="curve" smooth="yes"/>
      <point x="424" y="328"/>
      <point x="367" y="390"/>
      <point x="286" y="390" type="curve" smooth="yes"/>
      <point x="197" y="390"/>
      <point x="127" y="313"/>
      <point x="127" y="222" type="curve" smooth="yes"/>
      <point x="127" y="130"/>
      <point x="197" y="54"/>
      <point x="286" y="54" type="curve" smooth="yes"/>
      <point x="304" y="54"/>
      <point x="319" y="58"/>
      <point x="333" y="64" type="curve"/>
      <point x="365" y="1" type="line"/>
      <point x="346" y="-9"/>
      <point x="317" y="-18"/>
      <point x="286" y="-18" type="curve" smooth="yes"/>
      <point x="152" y="-18"/>
      <point x="55" y="90"/>
      <point x="55" y="222" type="curve" smooth="yes"/>
      <point x="55" y="352"/>
      <point x="152" y="461"/>
      <point x="286" y="461" type="curve" smooth="yes"/>
      <point x="419" y="461"/>
      <point x="497" y="351"/>
      <point x="521" y="222" type="curve" smooth="yes"/>
      <point x="540" y="121"/>
      <point x="598" y="54"/>
      <point x="686" y="54" type="curve" smooth="yes"/>
      <point x="776" y="54"/>
      <point x="841" y="132"/>
      <point x="841" y="222" type="curve" smooth="yes"/>
      <point x="841" y="312"/>
      <point x="774" y="390"/>
      <point x="686" y="390" type="curve" smooth="yes"/>
      <point x="668" y="390"/>
      <point x="650" y="385"/>
      <point x="635" y="379" type="curve"/>
      <point x="604" y="443" type="line"/>
      <point x="628" y="456"/>
      <point x="656" y="461"/>
      <point x="686" y="461" type="curve" smooth="yes"/>
      <point x="810" y="461"/>
      <point x="913" y="357"/>
    </contour>
  </outline>
</glyph>
<glyph name="u101E" format="2">
  <advance width="978"/>
  <unicode hex="101E"/>
  <anchor x="0" y="0" name="_R"/>
  <anchor x="686" y="-53" name="BS"/>
  <anchor x="686" y="-53" name="L"/>
  <anchor x="484" y="-53" name="BD"/>
  <anchor x="686" y="495" name="U"/>
  <outline>
    <contour>
      <point x="923" y="222" type="curve" smooth="yes"/>
      <point x="923" y="90"/>
      <point x="815" y="-18"/>
      <point x="686" y="-18" type="curve" smooth="yes"/>
      <point x="600" y="-18"/>
      <point x="527" y="38"/>
      <point x="485" y="109" type="curve"/>
      <point x="446" y="33"/>
      <point x="367" y="-18"/>
      <point x="277" y="-18" type="curve" smooth="yes"/>
      <point x="185" y="-18"/>
      <point x="98" y="29"/>
      <point x="55" y="117" type="curve"/>
      <point x="119" y="151" type="line"/>
      <point x="156" y="85"/>
      <point x="215" y="54"/>
      <point x="277" y="54" type="curve" smooth="yes"/>
      <point x="376" y="54"/>
      <point x="445" y="131"/>
      <point x="445" y="227" type="curve" smooth="yes"/>
      <point x="445" y="315"/>
      <point x="364" y="390"/>
      <point x="277" y="390" type="curve" smooth="yes"/>
      <point x="215" y="390"/>
      <point x="152" y="354"/>
      <point x="119" y="292" type="curve"/>
      <point x="55" y="327" type="line"/>
      <point x="93" y="410"/>
      <point x="181" y="461"/>
      <point x="277" y="461" type="curve" smooth="yes"/>
      <point x="398" y="461"/>
      <point x="515" y="358"/>
      <point x="515" y="235" type="curve" smooth="yes"/>
      <point x="518" y="158"/>
      <point x="592" y="54"/>
      <point x="686" y="54" type="curve" smooth="yes"/>
      <point x="777" y="54"/>
      <point x="851" y="130"/>
      <point x="851" y="222" type="curve" smooth="yes"/>
      <point x="851" y="313"/>
      <point x="777" y="390"/>
      <point x="686" y="390" type="curve" smooth="yes"/>
      <point x="671" y="390"/>
      <point x="657" y="387"/>
      <point x="643" y="381" type="curve"/>
      <point x="616" y="447" type="line"/>
      <point x="636" y="457"/>
      <point x="660" y="461"/>
      <point x="686" y="461" type="curve" smooth="yes"/>
      <point x="815" y="461"/>
      <point x="923" y="353"/>
    </contour>
  </outline>
</glyph>
<glyph name="u1020" format="2">
  <advance width="593"/>
  <unicode hex="1020"/>
  <anchor x="0" y="0" name="_R"/>
  <anchor x="664" y="-53" name="BS"/>
  <anchor x="664" y="-53" name="L"/>
  <anchor x="294" y="495" name="U"/>
  <anchor x="654" y="-53" name="BD"/>
  <outline>
    <contour>
      <point x="516" y="-97" type="line"/>
      <point x="453" y="-143"/>
      <point x="376" y="-169"/>
      <point x="294" y="-169" type="curve" smooth="yes"/>
      <point x="246" y="-169"/>
      <point x="200" y="-161"/>
      <point x="157" y="-143" type="curve"/>
      <point x="157" y="-273" type="line" smooth="yes"/>
      <point x="157" y="-311"/>
      <point x="167" y="-341"/>
      <point x="190" y="-360" type="curve" smooth="yes"/>
      <point x="216" y="-383"/>
      <point x="229" y="-390"/>
      <point x="280" y="-390" type="curve" smooth="yes"/>
      <point x="396" y="-390" type="line" smooth="yes"/>
      <point x="439" y="-390"/>
      <point x="456" y="-371"/>
      <point x="456" y="-344" type="curve" smooth="yes"/>
      <point x="456" y="-318"/>
      <point x="438" y="-299"/>
      <point x="402" y="-299" type="curve" smooth="yes"/>
      <point x="389" y="-299"/>
      <point x="376" y="-305"/>
      <point x="364" y="-314" type="curve"/>
      <point x="325" y="-260" type="line"/>
      <point x="340" y="-245"/>
      <point x="366" y="-233"/>
      <point x="402" y="-233" type="curve" smooth="yes"/>
      <point x="476" y="-233"/>
      <point x="522" y="-284"/>
      <point x="522" y="-344" type="curve" smooth="yes"/>
      <point x="522" y="-406"/>
      <point x="489" y="-457"/>
      <point x="410" y="-457" type="curve" smooth="yes"/>
      <point x="245" y="-457" type="line" smooth="yes"/>
      <point x="181" y="-457"/>
      <point x="148" y="-426"/>
      <point x="130" y="-406" type="curve" smooth="yes"/>
      <point x="106" y="-381"/>
      <point x="86" y="-336"/>
      <point x="86" y="-277" type="curve" smooth="yes"/>
      <point x="86" y="-28" type="line"/>
      <point x="147" y="-70"/>
      <point x="214" y="-100"/>
      <point x="294" y="-100" type="curve" smooth="yes"/>
      <point x="349" y="-100"/>
      <point x="398" y="-85"/>
      <point x="444" y="-62" type="curve"/>
      <point x="444" y="33" type="line"/>
      <point x="400" y="-1"/>
      <point x="346" y="-18"/>
      <point x="294" y="-18" type="curve" smooth="yes"/>
      <point x="163" y="-18"/>
      <point x="55" y="90"/>
      <point x="55" y="222" type="curve" smooth="yes"/>
      <point x="55" y="352"/>
      <point x="163" y="461"/>
      <point x="294" y="461" type="curve" smooth="yes"/>
      <point x="377" y="461"/>
      <point x="474" y="419"/>
      <point x="516" y="327" type="curve"/>
      <point x="453" y="292" type="line"/>
      <point x="416" y="357"/>
      <point x="357" y="390"/>
      <point x="294" y="390" type="curve" smooth="yes"/>
      <point x="203" y="390"/>
      <point x="127" y="313"/>
      <point x="127" y="222" type="curve" smooth="yes"/>
      <point x="127" y="130"/>
      <point x="203" y="54"/>
      <point x="294" y="54" type="curve" smooth="yes"/>
      <point x="357" y="54"/>
      <point x="417" y="86"/>
      <point x="453" y="151" type="curve"/>
      <point x="516" y="117" type="line"/>
    </contour>
  </outline>
</glyph>
<glyph name="u1022" format="2">
  <advance width="989"/>
  <unicode hex="1022"/>
  <anchor x="0" y="0" name="_R"/>
  <anchor x="698" y="-53" name="BS"/>
  <anchor x="698" y="-53" name="L"/>
  <anchor x="491" y="-53" name="BD"/>
  <anchor x="698" y="495" name="U"/>
  <outline>
    <contour>
      <point x="934" y="222" type="curve" smooth="yes"/>
      <point x="934" y="91"/>
      <point x="826" y="-18"/>
      <point x="697" y="-18" type="curve" smooth="yes"/>
      <point x="674" y="-18"/>
      <point x="649" y="-15"/>
      <point x="627" y="-4" type="curve"/>
      <point x="655" y="62" type="line"/>
      <point x="668" y="56"/>
      <point x="683" y="54"/>
      <point x="697" y="54" type="curve" smooth="yes"/>
      <point x="788" y="54"/>
      <point x="862" y="130"/>
      <point x="862" y="222" type="curve" smooth="yes"/>
      <point x="862" y="313"/>
      <point x="788" y="390"/>
      <point x="697" y="390" type="curve" smooth="yes"/>
      <point x="610" y="390"/>
      <point x="527" y="286"/>
      <point x="527" y="204" type="curve" smooth="yes"/>
      <point x="527" y="98"/>
      <point x="490" y="30"/>
      <point x="432" y="-16" type="curve"/>
      <point x="390" y="44" type="line"/>
      <point x="423" y="73"/>
      <point x="455" y="124"/>
      <point x="455" y="197" type="curve" smooth="yes"/>
      <point x="455" y="315"/>
      <point x="379" y="390"/>
      <point x="287" y="390" type="curve" smooth="yes"/>
      <point x="176" y="390"/>
      <point x="127" y="305"/>
      <point x="127" y="277" type="curve" smooth="yes"/>
      <point x="127" y="195"/>
      <point x="262" y="211"/>
      <point x="262" y="98" type="curve" smooth="yes"/>
      <point x="262" y="25"/>
      <point x="208" y="-15"/>
      <point x="148" y="-15" type="curve" smooth="yes"/>
      <point x="111" y="-15"/>
      <point x="65" y="11"/>
      <point x="55" y="41" type="curve"/>
      <point x="112" y="75" type="line"/>
      <point x="119" y="61"/>
      <point x="133" y="52"/>
      <point x="149" y="52" type="curve" smooth="yes"/>
      <point x="172" y="52"/>
      <point x="193" y="67"/>
      <point x="193" y="98" type="curve" smooth="yes"/>
      <point x="193" y="161"/>
      <point x="55" y="142"/>
      <point x="55" y="277" type="curve" smooth="yes"/>
      <point x="55" y="359"/>
      <point x="145" y="462"/>
      <point x="287" y="462" type="curve" smooth="yes"/>
      <point x="376" y="462"/>
      <point x="455" y="412"/>
      <point x="495" y="331" type="curve"/>
      <point x="536" y="405"/>
      <point x="610" y="461"/>
      <point x="697" y="461" type="curve" smooth="yes"/>
      <point x="826" y="461"/>
      <point x="934" y="353"/>
    </contour>
  </outline>
</glyph>
<glyph name="u1025" format="2">
  <advance width="571"/>
  <unicode hex="1025"/>
  <anchor x="277" y="0" name="BS"/>
  <anchor x="277" y="-53" name="L"/>
  <anchor x="277" y="495" name="U"/>
  <anchor x="276" y="0" name="BD"/>
  <outline>
    <contour>
      <point x="504" y="-292" type="line"/>
      <point x="504" y="-348" type="line" smooth="yes"/>
      <point x="504" y="-380"/>
      <point x="500" y="-413"/>
      <point x="480" y="-432" type="curve" smooth="yes"/>
      <point x="461" y="-452"/>
      <point x="436" y="-457"/>
      <point x="392" y="-457" type="curve" smooth="yes"/>
      <point x="235" y="-457" type="line" smooth="yes"/>
      <point x="165" y="-457"/>
      <point x="123" y="-418"/>
      <point x="107" y="-402" type="curve" smooth="yes"/>
      <point x="84" y="-379"/>
      <point x="55" y="-332"/>
      <point x="55" y="-277" type="curve" smooth="yes"/>
      <point x="55" y="117" type="line"/>
      <point x="119" y="151" type="line"/>
      <point x="153" y="87"/>
      <point x="215" y="54"/>
      <point x="277" y="54" type="curve" smooth="yes"/>
      <point x="369" y="54"/>
      <point x="445" y="130"/>
      <point x="445" y="222" type="curve" smooth="yes"/>
      <point x="445" y="313"/>
      <point x="369" y="390"/>
      <point x="277" y="390" type="curve" smooth="yes"/>
      <point x="215" y="390"/>
      <point x="153" y="355"/>
      <point x="119" y="292" type="curve"/>
      <point x="55" y="327" type="line"/>
      <point x="97" y="419"/>
      <point x="193" y="461"/>
      <point x="277" y="461" type="curve" smooth="yes"/>
      <point x="408" y="461"/>
      <point x="516" y="352"/>
      <point x="516" y="222" type="curve" smooth="yes"/>
      <point x="516" y="90"/>
      <point x="408" y="-18"/>
      <point x="277" y="-18" type="curve" smooth="yes"/>
      <point x="226" y="-18"/>
      <point x="171" y="-1"/>
      <point x="127" y="34" type="curve"/>
      <point x="127" y="-267" type="line" smooth="yes"/>
      <point x="127" y="-298"/>
      <point x="137" y="-332"/>
      <point x="161" y="-352" type="curve" smooth="yes"/>
      <point x="184" y="-372"/>
      <point x="213" y="-385"/>
      <point x="248" y="-385" type="curve" smooth="yes"/>
      <point x="384" y="-385" type="line" smooth="yes"/>
      <point x="424" y="-385"/>
      <point x="432" y="-377"/>
      <point x="432" y="-340" type="curve" smooth="yes"/>
      <point x="432" y="-292" type="line"/>
    </contour>
  </outline>
</glyph>
<glyph name="u1029" format="2">
  <advance width="1185"/>
  <unicode hex="1029"/>
  <anchor x="0" y="0" name="_R"/>
  <anchor x="1279" y="-53" name="BS"/>
  <anchor x="1279" y="-53" name="L"/>
  <anchor x="1263" y="-53" name="BD"/>
  <outline>
    <contour>
      <point x="1113" y="222" type="curve" smooth="yes"/>
      <point x="1113" y="90"/>
      <point x="1006" y="-18"/>
      <point x="877" y="-18" type="curve" smooth="yes"/>
      <point x="791" y="-18"/>
      <point x="719" y="39"/>
      <point x="677" y="109" type="curve"/>
      <point x="637" y="33"/>
      <point x="558" y="-18"/>
      <point x="467" y="-18" type="curve" smooth="yes"/>
      <point x="383" y="-18"/>
      <point x="288" y="24"/>
      <point x="246" y="117" type="curve"/>
      <point x="309" y="151" type="line"/>
      <point x="347" y="85"/>
      <point x="406" y="54"/>
      <point x="467" y="54" type="curve" smooth="yes"/>
      <point x="567" y="54"/>
      <point x="635" y="131"/>
      <point x="635" y="227" type="curve" smooth="yes"/>
      <point x="635" y="316"/>
      <point x="554" y="390"/>
      <point x="467" y="390" type="curve" smooth="yes"/>
      <point x="406" y="390"/>
      <point x="343" y="356"/>
      <point x="309" y="292" type="curve"/>
      <point x="246" y="327" type="line"/>
      <point x="288" y="419"/>
      <point x="383" y="461"/>
      <point x="467" y="461" type="curve" smooth="yes"/>
      <point x="589" y="461"/>
      <point x="706" y="358"/>
      <point x="706" y="235" type="curve" smooth="yes"/>
      <point x="709" y="158"/>
      <point x="782" y="54"/>
      <point x="877" y="54" type="curve" smooth="yes"/>
      <point x="968" y="54"/>
      <point x="1041" y="130"/>
      <point x="1041" y="222" type="curve" smooth="yes"/>
      <point x="1041" y="313"/>
      <point x="968" y="390"/>
      <point x="877" y="390" type="curve" smooth="yes"/>
      <point x="862" y="390"/>
      <point x="848" y="387"/>
      <point x="835" y="381" type="curve"/>
      <point x="806" y="447" type="line"/>
      <point x="827" y="457"/>
      <point x="851" y="461"/>
      <point x="877" y="461" type="curve" smooth="yes"/>
      <point x="1006" y="461"/>
      <point x="1113" y="353"/>
    </contour>
    <contour>
      <point x="1129" y="-107" type="line"/>
      <point x="1129" y="-190" type="line" smooth="yes"/>
      <point x="1129" y="-250"/>
      <point x="1114" y="-334"/>
      <point x="1063" y="-387" type="curve" smooth="yes"/>
      <point x="1003" y="-449"/>
      <point x="930" y="-457"/>
      <point x="862" y="-457" type="curve" smooth="yes"/>
      <point x="336" y="-457" type="line" smooth="yes"/>
      <point x="260" y="-457"/>
      <point x="202" y="-440"/>
      <point x="147" y="-384" type="curve" smooth="yes"/>
      <point x="94" y="-334"/>
      <point x="70" y="-259"/>
      <point x="70" y="-190" type="curve" smooth="yes"/>
      <point x="70" y="696" type="line" smooth="yes"/>
      <point x="70" y="759"/>
      <point x="93" y="838"/>
      <point x="151" y="893" type="curve" smooth="yes"/>
      <point x="203" y="942"/>
      <point x="259" y="963"/>
      <point x="331" y="963" type="curve" smooth="yes"/>
      <point x="862" y="963" type="line" smooth="yes"/>
      <point x="945" y="963"/>
      <point x="1008" y="947"/>
      <point x="1062" y="890" type="curve" smooth="yes"/>
      <point x="1104" y="845"/>
      <point x="1126" y="780"/>
      <point x="1129" y="736" type="curve"/>
      <point x="1057" y="736" type="line"/>
      <point x="1055" y="765"/>
      <point x="1039" y="811"/>
      <point x="1009" y="843" type="curve" smooth="yes"/>
      <point x="971" y="885"/>
      <point x="909" y="891"/>
      <point x="843" y="891" type="curve" smooth="yes"/>
      <point x="360" y="891" type="line" smooth="yes"/>
      <point x="303" y="891"/>
      <point x="243" y="881"/>
      <point x="198" y="838" type="curve" smooth="yes"/>
      <point x="153" y="797"/>
      <point x="141" y="726"/>
      <point x="141" y="679" type="curve" smooth="yes"/>
      <point x="141" y="-177" type="line" smooth="yes"/>
      <point x="141" y="-226"/>
      <point x="160" y="-299"/>
      <point x="204" y="-339" type="curve" smooth="yes"/>
      <point x="252" y="-382"/>
      <point x="313" y="-385"/>
      <point x="365" y="-385" type="curve" smooth="yes"/>
      <point x="843" y="-385" type="line" smooth="yes"/>
      <point x="904" y="-385"/>
      <point x="970" y="-380"/>
      <point x="1011" y="-335" type="curve" smooth="yes"/>
      <point x="1054" y="-291"/>
      <point x="1057" y="-225"/>
      <point x="1057" y="-173" type="curve" smooth="yes"/>
      <point x="1057" y="-107" type="line"/>
    </contour>
  </outline>
</glyph>
<glyph name="u102A" format="2">
  <advance width="2171"/>
  <unicode hex="102A"/>
  <outline>
    <contour>
      <point x="1707" y="736" type="curve"/>
      <point x="1635" y="736" type="line"/>
      <point x="1633" y="763"/>
      <point x="1614" y="809"/>
      <point x="1587" y="839" type="curve" smooth="yes"/>
      <point x="1545" y="886"/>
      <point x="1480" y="891"/>
      <point x="1421" y="891" type="curve" smooth="yes"/>
      <point x="937" y="891" type="line" smooth="yes"/>
      <point x="880" y="891"/>
      <point x="822" y="882"/>
      <point x="778" y="840" type="curve" smooth="yes"/>
      <point x="731" y="797"/>
      <point x="719" y="727"/>
      <point x="719" y="677" type="curve" smooth="yes"/>
      <point x="719" y="-177" type="line" smooth="yes"/>
      <point x="719" y="-226"/>
      <point x="738" y="-299"/>
      <point x="782" y="-339" type="curve" smooth="yes"/>
      <point x="830" y="-382"/>
      <point x="891" y="-385"/>
      <point x="943" y="-385" type="curve" smooth="yes"/>
      <point x="1420" y="-385" type="line" smooth="yes"/>
      <point x="1481" y="-385"/>
      <point x="1546" y="-381"/>
      <point x="1588" y="-337" type="curve" smooth="yes"/>
      <point x="1631" y="-292"/>
      <point x="1635" y="-226"/>
      <point x="1635" y="-173" type="curve" smooth="yes"/>
      <point x="1635" y="-107" type="line"/>
      <point x="1707" y="-107" type="line"/>
      <point x="1707" y="-190" type="line" smooth="yes"/>
      <point x="1707" y="-250"/>
      <point x="1692" y="-334"/>
      <point x="1641" y="-387" type="curve" smooth="yes"/>
      <point x="1581" y="-449"/>
      <point x="1508" y="-457"/>
      <point x="1440" y="-457" type="curve" smooth="yes"/>
      <point x="914" y="-457" type="line" smooth="yes"/>
      <point x="838" y="-457"/>
      <point x="777" y="-436"/>
      <point x="725" y="-384" type="curve" smooth="yes"/>
      <point x="672" y="-334"/>
      <point x="648" y="-255"/>
      <point x="648" y="-190" type="curve" smooth="yes"/>
      <point x="648" y="696" type="line" smooth="yes"/>
      <point x="648" y="752"/>
      <point x="668" y="835"/>
      <point x="729" y="893" type="curve" smooth="yes"/>
      <point x="781" y="942"/>
      <point x="837" y="963"/>
      <point x="909" y="963" type="curve" smooth="yes"/>
      <point x="1439" y="963" type="line" smooth="yes"/>
      <point x="1531" y="963"/>
      <point x="1595" y="939"/>
      <point x="1644" y="885" type="curve" smooth="yes"/>
      <point x="1688" y="833"/>
      <point x="1705" y="769"/>
    </contour>
    <contour>
      <point x="2116" y="222" type="curve" smooth="yes"/>
      <point x="2116" y="90"/>
      <point x="2008" y="-18"/>
      <point x="1880" y="-18" type="curve" smooth="yes"/>
      <point x="1857" y="-18"/>
      <point x="1821" y="-13"/>
      <point x="1792" y="1" type="curve"/>
      <point x="1820" y="66" type="line"/>
      <point x="1838" y="58"/>
      <point x="1866" y="54"/>
      <point x="1880" y="54" type="curve" smooth="yes"/>
      <point x="1971" y="54"/>
      <point x="2044" y="130"/>
      <point x="2044" y="222" type="curve" smooth="yes"/>
      <point x="2044" y="312"/>
      <point x="1971" y="390"/>
      <point x="1880" y="390" type="curve" smooth="yes"/>
      <point x="1807" y="390"/>
      <point x="1749" y="346"/>
      <point x="1681" y="284" type="curve"/>
      <point x="1687" y="263"/>
      <point x="1691" y="243"/>
      <point x="1691" y="222" type="curve" smooth="yes"/>
      <point x="1691" y="90"/>
      <point x="1583" y="-18"/>
      <point x="1456" y="-18" type="curve" smooth="yes"/>
      <point x="1370" y="-18"/>
      <point x="1297" y="38"/>
      <point x="1255" y="109" type="curve"/>
      <point x="1215" y="33"/>
      <point x="1136" y="-18"/>
      <point x="1046" y="-18" type="curve" smooth="yes"/>
      <point x="959" y="-18"/>
      <point x="864" y="27"/>
      <point x="824" y="117" type="curve"/>
      <point x="888" y="151" type="line"/>
      <point x="924" y="86"/>
      <point x="985" y="54"/>
      <point x="1046" y="54" type="curve" smooth="yes"/>
      <point x="1145" y="54"/>
      <point x="1214" y="131"/>
      <point x="1214" y="227" type="curve" smooth="yes"/>
      <point x="1214" y="314"/>
      <point x="1133" y="390"/>
      <point x="1046" y="390" type="curve" smooth="yes"/>
      <point x="985" y="390"/>
      <point x="922" y="355"/>
      <point x="888" y="292" type="curve"/>
      <point x="824" y="327" type="line"/>
      <point x="868" y="417"/>
      <point x="960" y="461"/>
      <point x="1046" y="461" type="curve" smooth="yes"/>
      <point x="1167" y="461"/>
      <point x="1284" y="358"/>
      <point x="1284" y="236" type="curve" smooth="yes"/>
      <point x="1286" y="159"/>
      <point x="1361" y="54"/>
      <point x="1456" y="54" type="curve" smooth="yes"/>
      <point x="1546" y="54"/>
      <point x="1619" y="130"/>
      <point x="1619" y="222" type="curve" smooth="yes"/>
      <point x="1619" y="312"/>
      <point x="1546" y="390"/>
      <point x="1456" y="390" type="curve" smooth="yes"/>
      <point x="1440" y="390"/>
      <point x="1425" y="387"/>
      <point x="1412" y="381" type="curve"/>
      <point x="1384" y="447" type="line"/>
      <point x="1404" y="457"/>
      <point x="1429" y="461"/>
      <point x="1456" y="461" type="curve" smooth="yes"/>
      <point x="1535" y="461"/>
      <point x="1610" y="418"/>
      <point x="1650" y="354" type="curve"/>
      <point x="1733" y="426"/>
      <point x="1795" y="461"/>
      <point x="1880" y="461" type="curve" smooth="yes"/>
      <point x="2008" y="461"/>
      <point x="2116" y="352"/>
    </contour>
    <contour>
      <point x="528" y="166" type="curve"/>
      <point x="526" y="88"/>
      <point x="433" y="-18"/>
      <point x="294" y="-18" type="curve" smooth="yes"/>
      <point x="158" y="-18"/>
      <point x="55" y="92"/>
      <point x="55" y="222" type="curve" smooth="yes"/>
      <point x="55" y="344"/>
      <point x="156" y="461"/>
      <point x="294" y="461" type="curve" smooth="yes"/>
      <point x="380" y="461"/>
      <point x="476" y="415"/>
      <point x="515" y="327" type="curve"/>
      <point x="453" y="292" type="line"/>
      <point x="418" y="353"/>
      <point x="359" y="390"/>
      <point x="294" y="390" type="curve" smooth="yes"/>
      <point x="194" y="390"/>
      <point x="127" y="304"/>
      <point x="127" y="222" type="curve" smooth="yes"/>
      <point x="127" y="183"/>
      <point x="142" y="149"/>
      <point x="164" y="122" type="curve"/>
      <point x="214" y="188"/>
      <point x="288" y="220"/>
      <point x="360" y="220" type="curve" smooth="yes"/>
      <point x="417" y="220"/>
      <point x="472" y="198"/>
    </contour>
    <contour>
      <point x="446" y="136" type="curve"/>
      <point x="415" y="149"/>
      <point x="387" y="155"/>
      <point x="358" y="155" type="curve" smooth="yes"/>
      <point x="292" y="155"/>
      <point x="243" y="122"/>
      <point x="212" y="75" type="curve"/>
      <point x="237" y="62"/>
      <point x="264" y="54"/>
      <point x="294" y="54" type="curve" smooth="yes"/>
      <point x="349" y="54"/>
      <point x="408" y="76"/>
    </contour>
    <contour>
      <point x="2113" y="832" type="curve"/>
      <point x="2074" y="799" type="line"/>
      <point x="2052" y="835"/>
      <point x="2013" y="855"/>
      <point x="1977" y="855" type="curve" smooth="yes"/>
      <point x="1918" y="855"/>
      <point x="1850" y="808"/>
      <point x="1850" y="725" type="curve" smooth="yes"/>
      <point x="1850" y="628"/>
      <point x="1945" y="589"/>
      <point x="1980" y="589" type="curve"/>
      <point x="1980" y="535" type="line"/>
      <point x="1900" y="535"/>
      <point x="1795" y="608"/>
      <point x="1795" y="725" type="curve" smooth="yes"/>
      <point x="1795" y="836"/>
      <point x="1885" y="910"/>
      <point x="1977" y="910" type="curve" smooth="yes"/>
      <point x="2033" y="910"/>
      <point x="2088" y="881"/>
    </contour>
  </outline>
</glyph>
<glyph name="u102C" format="2">
  <advance width="424"/>
  <unicode hex="102C"/>
  <anchor x="0" y="0" name="_R"/>
  <anchor x="133" y="-53" name="BS"/>
  <anchor x="133" y="-53" name="L"/>
  <anchor x="133" y="495" name="U"/>
  <anchor x="133" y="-53" name="BD"/>
  <outline>
    <contour>
      <point x="368" y="222" type="curve" smooth="yes"/>
      <point x="368" y="90"/>
      <point x="261" y="-18"/>
      <point x="133" y="-18" type="curve" smooth="yes"/>
      <point x="104" y="-18"/>
      <point x="71" y="-12"/>
      <point x="45" y="1" type="curve"/>
      <point x="73" y="66" type="line"/>
      <point x="89" y="58"/>
      <point x="117" y="54"/>
      <point x="133" y="54" type="curve" smooth="yes"/>
      <point x="223" y="54"/>
      <point x="297" y="130"/>
      <point x="297" y="222" type="curve" smooth="yes"/>
      <point x="297" y="312"/>
      <point x="224" y="390"/>
      <point x="133" y="390" type="curve" smooth="yes"/>
      <point x="62" y="390"/>
      <point x="3" y="343"/>
      <point x="-78" y="275" type="curve"/>
      <point x="-120" y="338" type="line"/>
      <point x="-27" y="413"/>
      <point x="32" y="461"/>
      <point x="133" y="461" type="curve" smooth="yes"/>
      <point x="261" y="461"/>
      <point x="368" y="352"/>
    </contour>
  </outline>
</glyph>
<glyph name="u102F" format="2">
  <advance width="168"/>
  <unicode hex="102F"/>
  <anchor x="326" y="-53" name="BS"/>
  <anchor x="77" y="495" name="Y"/>
  <anchor x="305" y="-53" name="L"/>
  <anchor x="77" y="495" name="U"/>
  <anchor x="290" y="-53" name="BD"/>
  <outline>
    <contour>
      <point x="195" y="-457" type="line"/>
      <point x="40" y="-457" type="line"/>
      <point x="40" y="444" type="line"/>
      <point x="112" y="444" type="line"/>
      <point x="112" y="-385" type="line"/>
      <point x="195" y="-385" type="line"/>
    </contour>
  </outline>
</glyph>
<glyph name="u1032" format="2">
  <advance width="0"/>
  <unicode hex="1032"/>
  <anchor x="-89" y="535" name="_Y"/>
  <anchor x="-263" y="535" name="_U"/>
  <anchor x="-247" y="537" name="UM"/>
  <outline>
    <contour>
      <point x="-55" y="634" type="line"/>
      <point x="-88" y="590" type="line"/>
      <point x="-389" y="829" type="line"/>
      <point x="-357" y="874" type="line"/>
    </contour>
  </outline>
</glyph>
<glyph name="u1033" format="2">
  <advance width="0"/>
  <unicode hex="1033"/>
  <anchor x="-83" y="495" name="_Y"/>
  <anchor x="-235" y="495" name="_U"/>
  <anchor x="-234" y="495" name="UM"/>
  <outline>
    <contour>
      <point x="-55" y="725" type="curve" smooth="yes"/>
      <point x="-55" y="623"/>
      <point x="-135" y="540"/>
      <point x="-234" y="540" type="curve" smooth="yes"/>
      <point x="-335" y="540"/>
      <point x="-416" y="623"/>
      <point x="-416" y="725" type="curve" smooth="yes"/>
      <point x="-416" y="825"/>
      <point x="-336" y="909"/>
      <point x="-237" y="909" type="curve" smooth="yes"/>
      <point x="-135" y="909"/>
      <point x="-55" y="825"/>
    </contour>
    <contour>
      <point x="-110" y="725" type="curve" smooth="yes"/>
      <point x="-110" y="794"/>
      <point x="-165" y="854"/>
      <point x="-234" y="854" type="curve" smooth="yes"/>
      <point x="-305" y="854"/>
      <point x="-361" y="794"/>
      <point x="-361" y="725" type="curve" smooth="yes"/>
      <point x="-361" y="654"/>
      <point x="-305" y="595"/>
      <point x="-237" y="595" type="curve" smooth="yes"/>
      <point x="-165" y="595"/>
      <point x="-110" y="654"/>
    </contour>
    <contour>
      <point x="-167" y="725" type="curve" smooth="yes"/>
      <point x="-167" y="689"/>
      <point x="-198" y="656"/>
      <point x="-234" y="656" type="curve" smooth="yes"/>
      <point x="-270" y="656"/>
      <point x="-300" y="689"/>
      <point x="-300" y="725" type="curve" smooth="yes"/>
      <point x="-300" y="761"/>
      <point x="-270" y="793"/>
      <point x="-234" y="793" type="curve" smooth="yes"/>
      <point x="-198" y="793"/>
      <point x="-167" y="761"/>
    </contour>
    <contour>
      <point x="-203" y="725" type="curve" smooth="yes"/>
      <point x="-203" y="742"/>
      <point x="-217" y="756"/>
      <point x="-234" y="756" type="curve" smooth="yes"/>
      <point x="-252" y="756"/>
      <point x="-265" y="742"/>
      <point x="-265" y="725" type="curve" smooth="yes"/>
      <point x="-265" y="707"/>
      <point x="-252" y="692"/>
      <point x="-234" y="692" type="curve" smooth="yes"/>
      <point x="-217" y="692"/>
      <point x="-203" y="707"/>
    </contour>
  </outline>
</glyph>
<glyph name="u1034" format="2">
  <advance width="0"/>
  <unicode hex="1034"/>
  <anchor x="-83" y="507" name="_Y"/>
  <anchor x="-205" y="507" name="_U"/>
  <anchor x="-193" y="495" name="UM"/>
  <outline>
    <contour>
      <point x="-55" y="810" type="line"/>
      <point x="-357" y="569" type="line"/>
      <point x="-390" y="614" type="line"/>
      <point x="-87" y="855" type="line"/>
    </contour>
  </outline>
</glyph>
<glyph name="u1036" format="2">
  <advance width="0"/>
  <unicode hex="1036"/>
  <anchor x="-76" y="495" name="_Y"/>
  <anchor x="-140" y="495" name="_U"/>
  <anchor x="-129" y="495" name="UM"/>
  <outline>
    <contour>
      <point x="-55" y="667" type="curve" smooth="yes"/>
      <point x="-55" y="620"/>
      <point x="-95" y="580"/>
      <point x="-142" y="580" type="curve" smooth="yes"/>
      <point x="-189" y="580"/>
      <point x="-229" y="620"/>
      <point x="-229" y="667" type="curve" smooth="yes"/>
      <point x="-229" y="714"/>
      <point x="-189" y="754"/>
      <point x="-142" y="754" type="curve" smooth="yes"/>
      <point x="-95" y="754"/>
      <point x="-55" y="714"/>
    </contour>
    <contour>
      <point x="-96" y="667" type="curve" smooth="yes"/>
      <point x="-96" y="691"/>
      <point x="-117" y="712"/>
      <point x="-142" y="712" type="curve" smooth="yes"/>
      <point x="-169" y="712"/>
      <point x="-188" y="691"/>
      <point x="-188" y="667" type="curve" smooth="yes"/>
      <point x="-188" y="642"/>
      <point x="-169" y="620"/>
      <point x="-142" y="620" type="curve" smooth="yes"/>
      <point x="-117" y="620"/>
      <point x="-96" y="641"/>
    </contour>
  </outline>
</glyph>
<glyph name="u1037" format="2">
  <advance width="55"/>
  <unicode hex="1037"/>
  <anchor x="-85" y="-53" name="_L"/>
  <anchor x="-85" y="-53" name="_LM"/>
  <anchor x="-85" y="-53" name="_LLM"/>
  <outline>
    <contour>
      <point x="0" y="-231" type="curve" smooth="yes"/>
      <point x="0" y="-278"/>
      <point x="-40" y="-318"/>
      <point x="-87" y="-318" type="curve" smooth="yes"/>
      <point x="-134" y="-318"/>
      <point x="-174" y="-278"/>
      <point x="-174" y="-231" type="curve" smooth="yes"/>
      <point x="-174" y="-184"/>
      <point x="-134" y="-144"/>
      <point x="-87" y="-144" type="curve" smooth="yes"/>
      <point x="-40" y="-144"/>
      <point x="0" y="-184"/>
    </contour>
    <contour>
      <point x="-41" y="-231" type="curve" smooth="yes"/>
      <point x="-41" y="-206"/>
      <point x="-62" y="-186"/>
      <point x="-87" y="-186" type="curve" smooth="yes"/>
      <point x="-114" y="-186"/>
      <point x="-133" y="-206"/>
      <point x="-133" y="-231" type="curve" smooth="yes"/>
      <point x="-133" y="-255"/>
      <point x="-114" y="-278"/>
      <point x="-87" y="-278" type="curve" smooth="yes"/>
      <point x="-62" y="-278"/>
      <point x="-41" y="-256"/>
    </contour>
  </outline>
</glyph>
<glyph name="u1038" format="2">
  <advance width="284"/>
  <unicode hex="1038"/>
  <outline>
    <contour>
      <point x="228" y="84" type="curve" smooth="yes"/>
      <point x="228" y="36"/>
      <point x="189" y="-3"/>
      <point x="142" y="-3" type="curve" smooth="yes"/>
      <point x="94" y="-3"/>
      <point x="55" y="36"/>
      <point x="55" y="84" type="curve" smooth="yes"/>
      <point x="55" y="133"/>
      <point x="94" y="171"/>
      <point x="142" y="171" type="curve" smooth="yes"/>
      <point x="189" y="171"/>
      <point x="228" y="133"/>
    </contour>
    <contour>
      <point x="187" y="84" type="curve" smooth="yes"/>
      <point x="187" y="107"/>
      <point x="169" y="131"/>
      <point x="142" y="131" type="curve" smooth="yes"/>
      <point x="115" y="131"/>
      <point x="96" y="107"/>
      <point x="96" y="84" type="curve" smooth="yes"/>
      <point x="96" y="61"/>
      <point x="113" y="38"/>
      <point x="142" y="38" type="curve" smooth="yes"/>
      <point x="169" y="38"/>
      <point x="187" y="61"/>
    </contour>
    <contour>
      <point x="228" y="375" type="curve" smooth="yes"/>
      <point x="228" y="326"/>
      <point x="189" y="287"/>
      <point x="142" y="287" type="curve" smooth="yes"/>
      <point x="94" y="287"/>
      <point x="55" y="326"/>
      <point x="55" y="375" type="curve" smooth="yes"/>
      <point x="55" y="424"/>
      <point x="94" y="462"/>
      <point x="142" y="462" type="curve" smooth="yes"/>
      <point x="189" y="462"/>
      <point x="228" y="424"/>
    </contour>
    <contour>
      <point x="187" y="375" type="curve" smooth="yes"/>
      <point x="187" y="398"/>
      <point x="169" y="420"/>
      <point x="142" y="420" type="curve" smooth="yes"/>
      <point x="115" y="420"/>
      <point x="96" y="398"/>
      <point x="96" y="375" type="curve" smooth="yes"/>
      <point x="96" y="352"/>
      <point x="115" y="328"/>
      <point x="142" y="328" type="curve" smooth="yes"/>
      <point x="169" y="328"/>
      <point x="187" y="352"/>
    </contour>
  </outline>
</glyph>
<glyph name="u103A" format="2">
  <advance width="55"/>
  <unicode hex="103A"/>
  <anchor x="-231" y="489" name="_U"/>
  <anchor x="-231" y="495" name="_UM"/>
  <outline>
    <contour>
      <point x="0" y="837" type="curve"/>
      <point x="-40" y="804" type="line"/>
      <point x="-63" y="843"/>
      <point x="-102" y="861"/>
      <point x="-136" y="861" type="curve" smooth="yes"/>
      <point x="-199" y="861"/>
      <point x="-264" y="811"/>
      <point x="-264" y="731" type="curve" smooth="yes"/>
      <point x="-264" y="633"/>
      <point x="-168" y="595"/>
      <point x="-134" y="595" type="curve"/>
      <point x="-134" y="540" type="line"/>
      <point x="-213" y="540"/>
      <point x="-319" y="613"/>
      <point x="-319" y="731" type="curve" smooth="yes"/>
      <point x="-319" y="842"/>
      <point x="-229" y="916"/>
      <point x="-137" y="916" type="curve" smooth="yes"/>
      <point x="-83" y="916"/>
      <point x="-28" y="889"/>
    </contour>
  </outline>
</glyph>
<glyph name="u103D" format="2">
  <advance width="0"/>
  <unicode hex="103D"/>
  <anchor x="-235" y="-53" name="_BS"/>
  <anchor x="-566" y="-53" name="LLM"/>
  <anchor x="-235" y="-53" name="_BSM"/>
  <anchor x="95" y="-53" name="LM"/>
  <anchor x="144" y="-53" name="BSM"/>
  <outline>
    <contour>
      <point x="-55" y="-272" type="curve" smooth="yes"/>
      <point x="-55" y="-375"/>
      <point x="-136" y="-457"/>
      <point x="-235" y="-457" type="curve" smooth="yes"/>
      <point x="-335" y="-457"/>
      <point x="-416" y="-375"/>
      <point x="-416" y="-272" type="curve" smooth="yes"/>
      <point x="-416" y="-171"/>
      <point x="-335" y="-87"/>
      <point x="-236" y="-87" type="curve" smooth="yes"/>
      <point x="-136" y="-87"/>
      <point x="-55" y="-171"/>
    </contour>
    <contour>
      <point x="-110" y="-272" type="curve" smooth="yes"/>
      <point x="-110" y="-202"/>
      <point x="-166" y="-142"/>
      <point x="-235" y="-142" type="curve" smooth="yes"/>
      <point x="-305" y="-142"/>
      <point x="-361" y="-203"/>
      <point x="-361" y="-272" type="curve" smooth="yes"/>
      <point x="-361" y="-342"/>
      <point x="-304" y="-402"/>
      <point x="-236" y="-402" type="curve" smooth="yes"/>
      <point x="-166" y="-402"/>
      <point x="-110" y="-342"/>
    </contour>
  </outline>
</glyph>
<glyph name="u1044" format="2">
  <advance width="584"/>
  <unicode hex="1044"/>
  <anchor x="302" y="-53" name="BS"/>
  <anchor x="302" y="-53" name="L"/>
  <anchor x="302" y="495" name="U"/>
  <anchor x="297" y="-53" name="BD"/>
  <outline>
    <contour>
      <point x="524" y="117" type="line"/>
      <point x="518" y="103"/>
      <point x="510" y="91"/>
      <point x="502" y="80" type="curve" smooth="yes"/>
      <point x="185" y="-457" type="line"/>
      <point x="99" y="-457" type="line"/>
      <point x="368" y="-7" type="line"/>
      <point x="345" y="-14"/>
      <point x="322" y="-18"/>
      <point x="302" y="-18" type="curve" smooth="yes"/>
      <point x="171" y="-18"/>
      <point x="63" y="90"/>
      <point x="63" y="222" type="curve" smooth="yes"/>
      <point x="63" y="352"/>
      <point x="171" y="461"/>
      <point x="302" y="461" type="curve" smooth="yes"/>
      <point x="390" y="461"/>
      <point x="484" y="415"/>
      <point x="524" y="327" type="curve"/>
      <point x="461" y="292" type="line"/>
      <point x="424" y="355"/>
      <point x="364" y="390"/>
      <point x="302" y="390" type="curve" smooth="yes"/>
      <point x="211" y="390"/>
      <point x="135" y="312"/>
      <point x="135" y="222" type="curve" smooth="yes"/>
      <point x="135" y="130"/>
      <point x="211" y="54"/>
      <point x="302" y="54" type="curve" smooth="yes"/>
      <point x="364" y="54"/>
      <point x="421" y="84"/>
      <point x="461" y="151" type="curve"/>
    </contour>
  </outline>
</glyph>
<glyph name="u1047" format="2">
  <advance width="581"/>
  <unicode hex="1047"/>
  <anchor x="289" y="-53" name="BS"/>
  <anchor x="289" y="-53" name="L"/>
  <anchor x="289" y="495" name="U"/>
  <anchor x="286" y="-53" name="BD"/>
  <outline>
    <contour>
      <point x="453" y="-409" type="line"/>
      <point x="422" y="-448"/>
      <point x="385" y="-457"/>
      <point x="342" y="-457" type="curve" smooth="yes"/>
      <point x="227" y="-457"/>
      <point x="203" y="-347"/>
      <point x="203" y="-293" type="curve" smooth="yes"/>
      <point x="203" y="-138"/>
      <point x="453" y="127"/>
      <point x="453" y="227" type="curve" smooth="yes"/>
      <point x="453" y="345"/>
      <point x="356" y="390"/>
      <point x="289" y="390" type="curve" smooth="yes"/>
      <point x="184" y="390"/>
      <point x="127" y="302"/>
      <point x="127" y="222" type="curve"/>
      <point x="55" y="222" type="line"/>
      <point x="55" y="331"/>
      <point x="139" y="461"/>
      <point x="289" y="461" type="curve" smooth="yes"/>
      <point x="390" y="461"/>
      <point x="525" y="379"/>
      <point x="525" y="227" type="curve" smooth="yes"/>
      <point x="525" y="102"/>
      <point x="275" y="-165"/>
      <point x="275" y="-293" type="curve" smooth="yes"/>
      <point x="275" y="-321"/>
      <point x="292" y="-385"/>
      <point x="342" y="-385" type="curve" smooth="yes"/>
      <point x="372" y="-385"/>
      <point x="390" y="-372"/>
      <point x="405" y="-357" type="curve"/>
    </contour>
  </outline>
</glyph>
<glyph name="u104B" format="2">
  <advance width="342"/>
  <unicode hex="104B"/>
  <outline>
    <contour>
      <point x="287" y="0" type="line"/>
      <point x="215" y="0" type="line"/>
      <point x="215" y="444" type="line"/>
      <point x="287" y="444" type="line"/>
    </contour>
    <contour>
      <point x="127" y="0" type="line"/>
      <point x="55" y="0" type="line"/>
      <point x="55" y="444" type="line"/>
      <point x="127" y="444" type="line"/>
    </contour>
  </outline>
</glyph>
<glyph name="u104C" format="2">
  <advance width="578"/>
  <unicode hex="104C"/>
  <anchor x="640" y="-53" name="BS"/>
  <anchor x="640" y="-53" name="L"/>
  <anchor x="624" y="-53" name="BD"/>
  <outline>
    <contour>
      <point x="523" y="222" type="curve" smooth="yes"/>
      <point x="523" y="90"/>
      <point x="414" y="-18"/>
      <point x="283" y="-18" type="curve" smooth="yes"/>
      <point x="232" y="-18"/>
      <point x="177" y="-1"/>
      <point x="133" y="33" type="curve"/>
      <point x="133" y="-62" type="line"/>
      <point x="179" y="-85"/>
      <point x="228" y="-100"/>
      <point x="283" y="-100" type="curve" smooth="yes"/>
      <point x="361" y="-100"/>
      <point x="431" y="-70"/>
      <point x="492" y="-28" type="curve"/>
      <point x="492" y="-277" type="line" smooth="yes"/>
      <point x="492" y="-338"/>
      <point x="469" y="-380"/>
      <point x="445" y="-405" type="curve" smooth="yes"/>
      <point x="426" y="-426"/>
      <point x="388" y="-457"/>
      <point x="322" y="-457" type="curve" smooth="yes"/>
      <point x="170" y="-457" type="line" smooth="yes"/>
      <point x="93" y="-457"/>
      <point x="55" y="-401"/>
      <point x="55" y="-344" type="curve" smooth="yes"/>
      <point x="55" y="-284"/>
      <point x="99" y="-233"/>
      <point x="176" y="-233" type="curve" smooth="yes"/>
      <point x="212" y="-233"/>
      <point x="235" y="-244"/>
      <point x="252" y="-260" type="curve"/>
      <point x="213" y="-314" type="line"/>
      <point x="198" y="-304"/>
      <point x="188" y="-299"/>
      <point x="176" y="-299" type="curve" smooth="yes"/>
      <point x="140" y="-299"/>
      <point x="122" y="-318"/>
      <point x="122" y="-344" type="curve" smooth="yes"/>
      <point x="122" y="-369"/>
      <point x="141" y="-390"/>
      <point x="177" y="-390" type="curve" smooth="yes"/>
      <point x="293" y="-390" type="line" smooth="yes"/>
      <point x="347" y="-390"/>
      <point x="363" y="-384"/>
      <point x="390" y="-360" type="curve" smooth="yes"/>
      <point x="412" y="-340"/>
      <point x="420" y="-306"/>
      <point x="420" y="-275" type="curve" smooth="yes"/>
      <point x="420" y="-143" type="line"/>
      <point x="375" y="-161"/>
      <point x="329" y="-169"/>
      <point x="283" y="-169" type="curve" smooth="yes"/>
      <point x="202" y="-169"/>
      <point x="124" y="-143"/>
      <point x="62" y="-97" type="curve"/>
      <point x="62" y="117" type="line"/>
      <point x="125" y="151" type="line"/>
      <point x="161" y="85"/>
      <point x="220" y="54"/>
      <point x="283" y="54" type="curve" smooth="yes"/>
      <point x="375" y="54"/>
      <point x="451" y="130"/>
      <point x="451" y="222" type="curve" smooth="yes"/>
      <point x="451" y="313"/>
      <point x="375" y="390"/>
      <point x="283" y="390" type="curve" smooth="yes"/>
      <point x="220" y="390"/>
      <point x="161" y="357"/>
      <point x="125" y="292" type="curve"/>
      <point x="62" y="327" type="line"/>
      <point x="103" y="419"/>
      <point x="200" y="461"/>
      <point x="283" y="461" type="curve" smooth="yes"/>
      <point x="414" y="461"/>
      <point x="523" y="352"/>
    </contour>
    <contour>
      <point x="506" y="832" type="curve"/>
      <point x="467" y="799" type="line"/>
      <point x="441" y="837"/>
      <point x="405" y="855"/>
      <point x="371" y="855" type="curve" smooth="yes"/>
      <point x="312" y="855"/>
      <point x="242" y="808"/>
      <point x="242" y="725" type="curve" smooth="yes"/>
      <point x="242" y="628"/>
      <point x="341" y="589"/>
      <point x="373" y="589" type="curve"/>
      <point x="373" y="535" type="line"/>
      <point x="292" y="535"/>
      <point x="187" y="607"/>
      <point x="187" y="725" type="curve" smooth="yes"/>
      <point x="187" y="836"/>
      <point x="277" y="910"/>
      <point x="371" y="910" type="curve" smooth="yes"/>
      <point x="424" y="910"/>
      <point x="479" y="884"/>
    </contour>
  </outline>
</glyph>
<glyph name="u104E" format="2">
  <advance width="571"/>
  <unicode hex="104E"/>
  <anchor x="294" y="495" name="U"/>
  <anchor x="292" y="0" name="BS"/>
  <outline>
    <contour>
      <point x="516" y="-457" type="line"/>
      <point x="445" y="-457" type="line"/>
      <point x="445" y="34" type="line"/>
      <point x="401" y="-1"/>
      <point x="346" y="-18"/>
      <point x="294" y="-18" type="curve" smooth="yes"/>
      <point x="163" y="-18"/>
      <point x="55" y="90"/>
      <point x="55" y="222" type="curve" smooth="yes"/>
      <point x="55" y="352"/>
      <point x="163" y="461"/>
      <point x="294" y="461" type="curve" smooth="yes"/>
      <point x="377" y="461"/>
      <point x="474" y="419"/>
      <point x="516" y="327" type="curve"/>
      <point x="453" y="292" type="line"/>
      <point x="416" y="357"/>
      <point x="357" y="390"/>
      <point x="294" y="390" type="curve" smooth="yes"/>
      <point x="203" y="390"/>
      <point x="127" y="313"/>
      <point x="127" y="222" type="curve" smooth="yes"/>
      <point x="127" y="130"/>
      <point x="203" y="54"/>
      <point x="294" y="54" type="curve" smooth="yes"/>
      <point x="357" y="54"/>
      <point x="416" y="85"/>
      <point x="453" y="151" type="curve"/>
      <point x="516" y="117" type="line"/>
    </contour>
  </outline>
</glyph>
<glyph name="u104F" format="2">
  <advance width="963"/>
  <unicode hex="104F"/>
  <outline>
    <contour>
      <point x="714" y="-3" type="line"/>
      <point x="642" y="-3" type="line"/>
      <point x="642" y="312" type="line" smooth="yes"/>
      <point x="642" y="367"/>
      <point x="613" y="390"/>
      <point x="575" y="390" type="curve" smooth="yes"/>
      <point x="544" y="390"/>
      <point x="519" y="376"/>
      <point x="500" y="356" type="curve"/>
      <point x="512" y="339"/>
      <point x="522" y="322"/>
      <point x="529" y="303" type="curve"/>
      <point x="466" y="259"/>
      <point x="419" y="246"/>
      <point x="363" y="246" type="curve" smooth="yes"/>
      <point x="277" y="246"/>
      <point x="218" y="285"/>
      <point x="175" y="339" type="curve"/>
      <point x="143" y="308"/>
      <point x="127" y="264"/>
      <point x="127" y="222" type="curve" smooth="yes"/>
      <point x="127" y="178"/>
      <point x="145" y="136"/>
      <point x="175" y="104" type="curve"/>
      <point x="217" y="159"/>
      <point x="283" y="197"/>
      <point x="365" y="197" type="curve" smooth="yes"/>
      <point x="423" y="197"/>
      <point x="489" y="173"/>
      <point x="530" y="141" type="curve"/>
      <point x="503" y="57"/>
      <point x="424" y="-18"/>
      <point x="299" y="-18" type="curve" smooth="yes"/>
      <point x="152" y="-18"/>
      <point x="55" y="98"/>
      <point x="55" y="222" type="curve" smooth="yes"/>
      <point x="55" y="344"/>
      <point x="152" y="461"/>
      <point x="299" y="461" type="curve" smooth="yes"/>
      <point x="355" y="461"/>
      <point x="407" y="445"/>
      <point x="452" y="411" type="curve"/>
      <point x="488" y="448"/>
      <point x="528" y="461"/>
      <point x="575" y="461" type="curve" smooth="yes"/>
      <point x="662" y="461"/>
      <point x="714" y="404"/>
      <point x="714" y="312" type="curve" smooth="yes"/>
    </contour>
    <contour>
      <point x="897" y="-3" type="line"/>
      <point x="825" y="-3" type="line"/>
      <point x="825" y="388" type="line" smooth="yes"/>
      <point x="825" y="557"/>
      <point x="579" y="558"/>
      <point x="579" y="728" type="curve" smooth="yes"/>
      <point x="579" y="834"/>
      <point x="661" y="911"/>
      <point x="763" y="911" type="curve" smooth="yes"/>
      <point x="833" y="911"/>
      <point x="884" y="876"/>
      <point x="906" y="816" type="curve"/>
      <point x="845" y="782" type="line"/>
      <point x="831" y="817"/>
      <point x="800" y="839"/>
      <point x="763" y="839" type="curve" smooth="yes"/>
      <point x="696" y="839"/>
      <point x="650" y="792"/>
      <point x="650" y="728" type="curve" smooth="yes"/>
      <point x="650" y="610"/>
      <point x="897" y="600"/>
      <point x="897" y="388" type="curve" smooth="yes"/>
    </contour>
    <contour>
      <point x="443" y="122" type="curve"/>
      <point x="413" y="136"/>
      <point x="391" y="143"/>
      <point x="365" y="143" type="curve" smooth="yes"/>
      <point x="299" y="143"/>
      <point x="259" y="113"/>
      <point x="225" y="67" type="curve"/>
      <point x="250" y="57"/>
      <point x="275" y="52"/>
      <point x="299" y="52" type="curve" smooth="yes"/>
      <point x="354" y="52"/>
      <point x="411" y="76"/>
    </contour>
    <contour>
      <point x="442" y="321" type="curve"/>
      <point x="409" y="370"/>
      <point x="348" y="392"/>
      <point x="299" y="392" type="curve" smooth="yes"/>
      <point x="269" y="392"/>
      <point x="249" y="386"/>
      <point x="225" y="375" type="curve"/>
      <point x="257" y="332"/>
      <point x="298" y="301"/>
      <point x="363" y="301" type="curve" smooth="yes"/>
      <point x="389" y="301"/>
      <point x="416" y="307"/>
    </contour>
  </outline>
</glyph>
<glyph name="u1051" format="2">
  <advance width="590"/>
  <unicode hex="1051"/>
  <anchor x="0" y="0" name="_R"/>
  <anchor x="295" y="-53" name="BS"/>
  <anchor x="295" y="-53" name="L"/>
  <anchor x="295" y="495" name="U"/>
  <anchor x="292" y="-53" name="BD"/>
  <outline>
    <contour>
      <point x="535" y="239" type="curve" smooth="yes"/>
      <point x="535" y="91"/>
      <point x="428" y="-18"/>
      <point x="295" y="-18" type="curve" smooth="yes"/>
      <point x="161" y="-18"/>
      <point x="55" y="91"/>
      <point x="55" y="239" type="curve" smooth="yes"/>
      <point x="55" y="345"/>
      <point x="89" y="409"/>
      <point x="150" y="460" type="curve"/>
      <point x="192" y="400" type="line"/>
      <point x="150" y="357"/>
      <point x="127" y="314"/>
      <point x="127" y="239" type="curve" smooth="yes"/>
      <point x="127" y="136"/>
      <point x="199" y="54"/>
      <point x="295" y="54" type="curve" smooth="yes"/>
      <point x="391" y="54"/>
      <point x="462" y="136"/>
      <point x="462" y="239" type="curve" smooth="yes"/>
      <point x="462" y="314"/>
      <point x="439" y="357"/>
      <point x="397" y="400" type="curve"/>
      <point x="439" y="460" type="line"/>
      <point x="502" y="409"/>
      <point x="535" y="345"/>
    </contour>
    <contour>
      <point x="380" y="239" type="curve" smooth="yes"/>
      <point x="380" y="193"/>
      <point x="342" y="151"/>
      <point x="295" y="151" type="curve" smooth="yes"/>
      <point x="248" y="151"/>
      <point x="209" y="192"/>
      <point x="209" y="239" type="curve" smooth="yes"/>
      <point x="209" y="285"/>
      <point x="248" y="325"/>
      <point x="295" y="325" type="curve" smooth="yes"/>
      <point x="341" y="325"/>
      <point x="380" y="285"/>
    </contour>
    <contour>
      <point x="335" y="239" type="curve" smooth="yes"/>
      <point x="335" y="261"/>
      <point x="317" y="279"/>
      <point x="295" y="279" type="curve" smooth="yes"/>
      <point x="271" y="279"/>
      <point x="253" y="261"/>
      <point x="253" y="239" type="curve" smooth="yes"/>
      <point x="253" y="215"/>
      <point x="271" y="197"/>
      <point x="295" y="197" type="curve" smooth="yes"/>
      <point x="317" y="197"/>
      <point x="335" y="215"/>
    </contour>
  </outline>
</glyph>
<glyph name="u1053" format="2">
  <advance width="646"/>
  <unicode hex="1053"/>
  <anchor x="35" y="0" name="_R"/>
  <anchor x="322" y="-53" name="BS"/>
  <anchor x="322" y="-53" name="L"/>
  <anchor x="322" y="495" name="U"/>
  <anchor x="315" y="-53" name="BD"/>
  <outline>
    <contour>
      <point x="590" y="404" type="curve"/>
      <point x="538" y="364" type="line"/>
      <point x="532" y="373"/>
      <point x="521" y="393"/>
      <point x="495" y="393" type="curve" smooth="yes"/>
      <point x="474" y="393"/>
      <point x="451" y="379"/>
      <point x="451" y="340" type="curve" smooth="yes"/>
      <point x="451" y="290"/>
      <point x="555" y="292"/>
      <point x="555" y="168" type="curve" smooth="yes"/>
      <point x="555" y="85"/>
      <point x="465" y="-18"/>
      <point x="322" y="-18" type="curve" smooth="yes"/>
      <point x="180" y="-18"/>
      <point x="90" y="85"/>
      <point x="90" y="167" type="curve" smooth="yes"/>
      <point x="90" y="292"/>
      <point x="194" y="286"/>
      <point x="194" y="340" type="curve" smooth="yes"/>
      <point x="194" y="379"/>
      <point x="171" y="393"/>
      <point x="150" y="393" type="curve" smooth="yes"/>
      <point x="125" y="393"/>
      <point x="113" y="373"/>
      <point x="107" y="364" type="curve"/>
      <point x="55" y="404" type="line"/>
      <point x="67" y="428"/>
      <point x="99" y="460"/>
      <point x="148" y="460" type="curve" smooth="yes"/>
      <point x="208" y="460"/>
      <point x="261" y="420"/>
      <point x="261" y="340" type="curve" smooth="yes"/>
      <point x="261" y="239"/>
      <point x="162" y="249"/>
      <point x="162" y="167" type="curve" smooth="yes"/>
      <point x="162" y="140"/>
      <point x="211" y="54"/>
      <point x="322" y="54" type="curve" smooth="yes"/>
      <point x="433" y="54"/>
      <point x="483" y="140"/>
      <point x="483" y="167" type="curve" smooth="yes"/>
      <point x="483" y="249"/>
      <point x="384" y="243"/>
      <point x="384" y="340" type="curve" smooth="yes"/>
      <point x="384" y="420"/>
      <point x="438" y="460"/>
      <point x="498" y="460" type="curve" smooth="yes"/>
      <point x="547" y="460"/>
      <point x="578" y="428"/>
    </contour>
  </outline>
</glyph>
<glyph name="u1056" format="2">
  <advance width="514"/>
  <unicode hex="1056"/>
  <anchor x="0" y="0" name="_R"/>
  <anchor x="249" y="-53" name="BS"/>
  <anchor x="249" y="-53" name="L"/>
  <anchor x="285" y="495" name="U"/>
  <anchor x="238" y="-53" name="BD"/>
  <outline>
    <contour>
      <point x="459" y="166" type="curve" smooth="yes"/>
      <point x="459" y="35"/>
      <point x="359" y="-17"/>
      <point x="259" y="-17" type="curve" smooth="yes"/>
      <point x="204" y="-17"/>
      <point x="103" y="11"/>
      <point x="55" y="112" type="curve"/>
      <point x="115" y="154" type="line"/>
      <point x="146" y="82"/>
      <point x="213" y="54"/>
      <point x="257" y="54" type="curve" smooth="yes"/>
      <point x="311" y="54"/>
      <point x="387" y="75"/>
      <point x="387" y="166" type="curve" smooth="yes"/>
      <point x="387" y="260"/>
      <point x="193" y="234"/>
      <point x="193" y="358" type="curve" smooth="yes"/>
      <point x="193" y="426"/>
      <point x="253" y="462"/>
      <point x="296" y="462" type="curve" smooth="yes"/>
      <point x="332" y="462"/>
      <point x="373" y="456"/>
      <point x="414" y="410" type="curve"/>
      <point x="373" y="358" type="line"/>
      <point x="337" y="392"/>
      <point x="318" y="395"/>
      <point x="297" y="395" type="curve" smooth="yes"/>
      <point x="282" y="395"/>
      <point x="265" y="380"/>
      <point x="265" y="358" type="curve" smooth="yes"/>
      <point x="270" y="306"/>
      <point x="459" y="309"/>
    </contour>
  </outline>
</glyph>
<glyph name="u1057" format="2">
  <advance width="511"/>
  <unicode hex="1057"/>
  <anchor x="0" y="0" name="_R"/>
  <anchor x="249" y="-53" name="BS"/>
  <anchor x="249" y="-53" name="L"/>
  <anchor x="285" y="495" name="U"/>
  <anchor x="238" y="-53" name="BD"/>
  <outline>
    <contour>
      <point x="465" y="166" type="curve" smooth="yes"/>
      <point x="465" y="90"/>
      <point x="417" y="-15"/>
      <point x="352" y="-15" type="curve" smooth="yes"/>
      <point x="289" y="-15"/>
      <point x="281" y="76"/>
      <point x="263" y="76" type="curve" smooth="yes"/>
      <point x="245" y="76"/>
      <point x="238" y="-15"/>
      <point x="175" y="-15" type="curve" smooth="yes"/>
      <point x="125" y="-15"/>
      <point x="84" y="27"/>
      <point x="53" y="98" type="curve"/>
      <point x="116" y="128" type="line"/>
      <point x="133" y="83"/>
      <point x="154" y="57"/>
      <point x="175" y="57" type="curve" smooth="yes"/>
      <point x="200" y="57"/>
      <point x="210" y="147"/>
      <point x="263" y="147" type="curve" smooth="yes"/>
      <point x="316" y="147"/>
      <point x="325" y="57"/>
      <point x="351" y="57" type="curve" smooth="yes"/>
      <point x="374" y="57"/>
      <point x="393" y="123"/>
      <point x="393" y="166" type="curve" smooth="yes"/>
      <point x="393" y="260"/>
      <point x="199" y="234"/>
      <point x="199" y="358" type="curve" smooth="yes"/>
      <point x="199" y="426"/>
      <point x="259" y="462"/>
      <point x="302" y="462" type="curve" smooth="yes"/>
      <point x="339" y="462"/>
      <point x="379" y="456"/>
      <point x="421" y="410" type="curve"/>
      <point x="379" y="358" type="line"/>
      <point x="342" y="392"/>
      <point x="324" y="395"/>
      <point x="303" y="395" type="curve" smooth="yes"/>
      <point x="288" y="395"/>
      <point x="271" y="380"/>
      <point x="271" y="358" type="curve" smooth="yes"/>
      <point x="276" y="306"/>
      <point x="465" y="309"/>
    </contour>
  </outline>
</glyph>
<glyph name="u1059" format="2">
  <advance width="476"/>
  <unicode hex="1059"/>
  <anchor x="241" y="-53" name="_BS"/>
  <anchor x="241" y="-53" name="_BSM"/>
  <anchor x="-495" y="-53" name="BDM"/>
  <anchor x="25" y="-53" name="_LM"/>
  <anchor x="-620" y="-53" name="_LLM"/>
  <anchor x="-293" y="495" name="UM"/>
  <anchor x="25" y="-53" name="BSM"/>
  <outline>
    <contour>
      <point x="420" y="-228" type="curve"/>
      <point x="371" y="-256"/>
      <point x="329" y="-269"/>
      <point x="291" y="-269" type="curve" smooth="yes"/>
      <point x="232" y="-269"/>
      <point x="176" y="-242"/>
      <point x="140" y="-194" type="curve"/>
      <point x="122" y="-215"/>
      <point x="112" y="-242"/>
      <point x="112" y="-272" type="curve" smooth="yes"/>
      <point x="112" y="-314"/>
      <point x="137" y="-398"/>
      <point x="180" y="-398" type="curve" smooth="yes"/>
      <point x="200" y="-398"/>
      <point x="206" y="-329"/>
      <point x="248" y="-329" type="curve" smooth="yes"/>
      <point x="289" y="-329"/>
      <point x="296" y="-398"/>
      <point x="316" y="-398" type="curve" smooth="yes"/>
      <point x="335" y="-398"/>
      <point x="356" y="-356"/>
      <point x="366" y="-328" type="curve"/>
      <point x="413" y="-353" type="line"/>
      <point x="398" y="-398"/>
      <point x="361" y="-454"/>
      <point x="316" y="-454" type="curve" smooth="yes"/>
      <point x="267" y="-454"/>
      <point x="261" y="-384"/>
      <point x="248" y="-384" type="curve" smooth="yes"/>
      <point x="234" y="-384"/>
      <point x="228" y="-454"/>
      <point x="179" y="-454" type="curve" smooth="yes"/>
      <point x="102" y="-454"/>
      <point x="56" y="-349"/>
      <point x="56" y="-272" type="curve" smooth="yes"/>
      <point x="56" y="-174"/>
      <point x="135" y="-87"/>
      <point x="240" y="-87" type="curve" smooth="yes"/>
      <point x="350" y="-87"/>
      <point x="418" y="-168"/>
    </contour>
    <contour>
      <point x="357" y="-205" type="curve"/>
      <point x="327" y="-159"/>
      <point x="282" y="-142"/>
      <point x="240" y="-142" type="curve" smooth="yes"/>
      <point x="216" y="-142"/>
      <point x="196" y="-148"/>
      <point x="177" y="-157" type="curve"/>
      <point x="203" y="-197"/>
      <point x="241" y="-219"/>
      <point x="289" y="-219" type="curve" smooth="yes"/>
      <point x="308" y="-219"/>
      <point x="331" y="-216"/>
    </contour>
  </outline>
</glyph>
<glyph name="u105A" format="2">
  <advance width="571"/>
  <unicode hex="105A"/>
  <anchor x="0" y="0" name="_R"/>
  <anchor x="294" y="-53" name="BS"/>
  <anchor x="294" y="-53" name="L"/>
  <anchor x="294" y="495" name="U"/>
  <anchor x="292" y="-53" name="BD"/>
  <outline>
    <contour>
      <point x="516" y="117" type="line"/>
      <point x="474" y="24"/>
      <point x="377" y="-18"/>
      <point x="294" y="-18" type="curve" smooth="yes"/>
      <point x="163" y="-18"/>
      <point x="55" y="90"/>
      <point x="55" y="222" type="curve" smooth="yes"/>
      <point x="55" y="352"/>
      <point x="163" y="461"/>
      <point x="294" y="461" type="curve" smooth="yes"/>
      <point x="377" y="461"/>
      <point x="474" y="419"/>
      <point x="516" y="327" type="curve"/>
      <point x="453" y="292" type="line"/>
      <point x="416" y="358"/>
      <point x="355" y="390"/>
      <point x="294" y="390" type="curve" smooth="yes"/>
      <point x="203" y="390"/>
      <point x="127" y="313"/>
      <point x="127" y="222" type="curve" smooth="yes"/>
      <point x="127" y="130"/>
      <point x="203" y="54"/>
      <point x="294" y="54" type="curve" smooth="yes"/>
      <point x="355" y="54"/>
      <point x="415" y="83"/>
      <point x="453" y="151" type="curve"/>
    </contour>
    <contour>
      <point x="384" y="-191" type="curve" smooth="yes"/>
      <point x="384" y="-246"/>
      <point x="288" y="-315"/>
      <point x="288" y="-362" type="curve" smooth="yes"/>
      <point x="288" y="-375"/>
      <point x="296" y="-386"/>
      <point x="312" y="-386" type="curve" smooth="yes"/>
      <point x="324" y="-386"/>
      <point x="335" y="-380"/>
      <point x="343" y="-373" type="curve"/>
      <point x="363" y="-430" type="line"/>
      <point x="351" y="-441"/>
      <point x="331" y="-449"/>
      <point x="312" y="-449" type="curve" smooth="yes"/>
      <point x="275" y="-449"/>
      <point x="224" y="-432"/>
      <point x="224" y="-362" type="curve" smooth="yes"/>
      <point x="224" y="-291"/>
      <point x="321" y="-218"/>
      <point x="321" y="-191" type="curve" smooth="yes"/>
      <point x="321" y="-164"/>
      <point x="306" y="-157"/>
      <point x="288" y="-157" type="curve" smooth="yes"/>
      <point x="267" y="-157"/>
      <point x="254" y="-174"/>
      <point x="254" y="-197" type="curve"/>
      <point x="191" y="-197" type="line"/>
      <point x="191" y="-150"/>
      <point x="225" y="-94"/>
      <point x="288" y="-94" type="curve" smooth="yes"/>
      <point x="331" y="-94"/>
      <point x="384" y="-118"/>
    </contour>
  </outline>
</glyph>
<glyph name="u105B" format="2">
  <advance width="750"/>
  <unicode hex="105B"/>
  <anchor x="0" y="0" name="_R"/>
  <anchor x="134" y="-53" name="BS"/>
  <anchor x="228" y="-53" name="L"/>
  <anchor x="291" y="495" name="U"/>
  <anchor x="148" y="-53" name="BD"/>
  <outline>
    <contour>
      <point x="695" y="-457" type="line"/>
      <point x="342" y="-370" type="line"/>
      <point x="342" y="-12" type="line"/>
      <point x="326" y="-16"/>
      <point x="309" y="-18"/>
      <point x="290" y="-18" type="curve" smooth="yes"/>
      <point x="157" y="-18"/>
      <point x="55" y="90"/>
      <point x="55" y="222" type="curve" smooth="yes"/>
      <point x="55" y="352"/>
      <point x="162" y="461"/>
      <point x="290" y="461" type="curve" smooth="yes"/>
      <point x="403" y="461"/>
      <point x="489" y="392"/>
      <point x="498" y="283" type="curve"/>
      <point x="530" y="246"/>
      <point x="555" y="203"/>
      <point x="581" y="154" type="curve"/>
      <point x="527" y="115" type="line"/>
      <point x="513" y="141"/>
      <point x="494" y="174"/>
      <point x="477" y="200" type="curve"/>
      <point x="453" y="165"/>
      <point x="410" y="148"/>
      <point x="369" y="148" type="curve" smooth="yes"/>
      <point x="314" y="148"/>
      <point x="262" y="181"/>
      <point x="262" y="241" type="curve" smooth="yes"/>
      <point x="262" y="295"/>
      <point x="295" y="338"/>
      <point x="358" y="343" type="curve" smooth="yes"/>
      <point x="372" y="343"/>
      <point x="385" y="340"/>
      <point x="401" y="333" type="curve"/>
      <point x="385" y="363"/>
      <point x="350" y="391"/>
      <point x="292" y="391" type="curve" smooth="yes"/>
      <point x="202" y="391"/>
      <point x="127" y="310"/>
      <point x="127" y="222" type="curve" smooth="yes"/>
      <point x="127" y="127"/>
      <point x="199" y="54"/>
      <point x="290" y="54" type="curve" smooth="yes"/>
      <point x="345" y="54"/>
      <point x="382" y="70"/>
      <point x="419" y="103" type="curve"/>
      <point x="468" y="50" type="line"/>
      <point x="451" y="33"/>
      <point x="433" y="19"/>
      <point x="414" y="9" type="curve"/>
      <point x="414" y="-313" type="line"/>
      <point x="624" y="-364" type="line"/>
      <point x="624" y="444" type="line"/>
      <point x="695" y="444" type="line"/>
    </contour>
    <contour>
      <point x="434" y="256" type="curve"/>
      <point x="413" y="276"/>
      <point x="397" y="283"/>
      <point x="367" y="283" type="curve" smooth="yes"/>
      <point x="341" y="283"/>
      <point x="324" y="270"/>
      <point x="324" y="241" type="curve" smooth="yes"/>
      <point x="324" y="220"/>
      <point x="347" y="210"/>
      <point x="369" y="210" type="curve" smooth="yes"/>
      <point x="400" y="210"/>
      <point x="429" y="221"/>
    </contour>
  </outline>
</glyph>
<glyph name="u105D" format="2">
  <advance width="589"/>
  <unicode hex="105D"/>
  <anchor x="0" y="0" name="_R"/>
  <anchor x="296" y="-53" name="BS"/>
  <anchor x="296" y="-53" name="L"/>
  <anchor x="295" y="495" name="U"/>
  <anchor x="294" y="-53" name="BD"/>
  <outline>
    <contour>
      <point x="534" y="-267" type="line" smooth="yes"/>
      <point x="534" y="-378"/>
      <point x="451" y="-457"/>
      <point x="350" y="-457" type="curve" smooth="yes"/>
      <point x="202" y="-457" type="line" smooth="yes"/>
      <point x="124" y="-457"/>
      <point x="88" y="-391"/>
      <point x="88" y="-335" type="curve" smooth="yes"/>
      <point x="88" y="-273"/>
      <point x="138" y="-216"/>
      <point x="213" y="-216" type="curve" smooth="yes"/>
      <point x="246" y="-216"/>
      <point x="270" y="-224"/>
      <point x="290" y="-240" type="curve"/>
      <point x="251" y="-300" type="line"/>
      <point x="237" y="-292"/>
      <point x="226" y="-288"/>
      <point x="213" y="-288" type="curve" smooth="yes"/>
      <point x="182" y="-288"/>
      <point x="159" y="-306"/>
      <point x="159" y="-335" type="curve" smooth="yes"/>
      <point x="159" y="-358"/>
      <point x="176" y="-385"/>
      <point x="211" y="-385" type="curve" smooth="yes"/>
      <point x="339" y="-385" type="line" smooth="yes"/>
      <point x="427" y="-385"/>
      <point x="462" y="-324"/>
      <point x="462" y="-262" type="curve" smooth="yes"/>
      <point x="462" y="55" type="line"/>
      <point x="425" y="9"/>
      <point x="364" y="-18"/>
      <point x="295" y="-18" type="curve" smooth="yes"/>
      <point x="161" y="-18"/>
      <point x="55" y="90"/>
      <point x="55" y="239" type="curve" smooth="yes"/>
      <point x="55" y="344"/>
      <point x="89" y="409"/>
      <point x="150" y="460" type="curve"/>
      <point x="192" y="400" type="line"/>
      <point x="149" y="356"/>
      <point x="127" y="310"/>
      <point x="127" y="238" type="curve" smooth="yes"/>
      <point x="127" y="218"/>
      <point x="131" y="198"/>
      <point x="138" y="177" type="curve"/>
      <point x="186" y="220"/>
      <point x="244" y="237"/>
      <point x="295" y="237" type="curve" smooth="yes"/>
      <point x="346" y="237"/>
      <point x="403" y="221"/>
      <point x="451" y="178" type="curve"/>
      <point x="459" y="197"/>
      <point x="462" y="217"/>
      <point x="462" y="237" type="curve" smooth="yes"/>
      <point x="462" y="310"/>
      <point x="440" y="355"/>
      <point x="397" y="400" type="curve"/>
      <point x="439" y="460" type="line"/>
      <point x="501" y="409"/>
      <point x="534" y="344"/>
      <point x="534" y="239" type="curve" smooth="yes"/>
    </contour>
    <contour>
      <point x="424" y="118" type="curve"/>
      <point x="379" y="159"/>
      <point x="331" y="172"/>
      <point x="295" y="172" type="curve" smooth="yes"/>
      <point x="261" y="172"/>
      <point x="212" y="160"/>
      <point x="167" y="117" type="curve"/>
      <point x="196" y="78"/>
      <point x="242" y="54"/>
      <point x="295" y="54" type="curve" smooth="yes"/>
      <point x="349" y="54"/>
      <point x="392" y="77"/>
    </contour>
  </outline>
</glyph>
<glyph name="u105E" format="2">
  <advance width="0"/>
  <unicode hex="105E"/>
  <anchor x="-86" y="-53" name="_BS"/>
  <anchor x="-261" y="-53" name="LLM"/>
  <anchor x="-86" y="-53" name="_BSM"/>
  <anchor x="90" y="-53" name="LM"/>
  <anchor x="144" y="-53" name="BSM"/>
  <outline>
    <contour>
      <point x="67" y="-266" type="curve"/>
      <point x="40" y="-306" type="line"/>
      <point x="8" y="-282"/>
      <point x="-24" y="-271"/>
      <point x="-55" y="-266" type="curve"/>
      <point x="-55" y="-357" type="line" smooth="yes"/>
      <point x="-55" y="-428"/>
      <point x="-77" y="-457"/>
      <point x="-146" y="-457" type="curve" smooth="yes"/>
      <point x="-169" y="-457"/>
      <point x="-282" y="-438"/>
      <point x="-282" y="-327" type="curve" smooth="yes"/>
      <point x="-282" y="-221"/>
      <point x="-179" y="-204"/>
      <point x="-118" y="-200" type="curve"/>
      <point x="-118" y="-98" type="line"/>
      <point x="-55" y="-98" type="line"/>
      <point x="-55" y="-203" type="line"/>
      <point x="-11" y="-211"/>
      <point x="27" y="-227"/>
    </contour>
    <contour>
      <point x="-118" y="-263" type="line"/>
      <point x="-160" y="-265"/>
      <point x="-219" y="-277"/>
      <point x="-219" y="-327" type="curve" smooth="yes"/>
      <point x="-219" y="-366"/>
      <point x="-178" y="-393"/>
      <point x="-146" y="-393" type="curve" smooth="yes"/>
      <point x="-122" y="-393"/>
      <point x="-118" y="-380"/>
      <point x="-118" y="-361" type="curve" smooth="yes"/>
    </contour>
  </outline>
</glyph>
<glyph name="u1062" format="2">
  <advance width="291"/>
  <unicode hex="1062"/>
  <anchor x="203" y="-53" name="BS"/>
  <anchor x="203" y="-53" name="L"/>
  <anchor x="203" y="495" name="U"/>
  <anchor x="192" y="-53" name="BD"/>
  <outline>
    <contour>
      <point x="236" y="0" type="line"/>
      <point x="167" y="0" type="line"/>
      <point x="167" y="372" type="line"/>
      <point x="40" y="372" type="line"/>
      <point x="40" y="444" type="line"/>
      <point x="236" y="444" type="line"/>
    </contour>
  </outline>
</glyph>
<glyph name="u1063" format="2">
  <advance width="571"/>
  <unicode hex="1063"/>
  <anchor x="0" y="0" name="_R"/>
  <anchor x="277" y="-53" name="BS"/>
  <anchor x="277" y="-53" name="L"/>
  <anchor x="277" y="495" name="U"/>
  <anchor x="276" y="-53" name="BD"/>
  <outline>
    <contour>
      <point x="516" y="222" type="curve" smooth="yes"/>
      <point x="516" y="90"/>
      <point x="408" y="-18"/>
      <point x="277" y="-18" type="curve" smooth="yes"/>
      <point x="225" y="-18"/>
      <point x="170" y="0"/>
      <point x="126" y="34" type="curve"/>
      <point x="126" y="-457" type="line"/>
      <point x="55" y="-457" type="line"/>
      <point x="55" y="118" type="line"/>
      <point x="118" y="151" type="line"/>
      <point x="155" y="86"/>
      <point x="214" y="54"/>
      <point x="277" y="54" type="curve" smooth="yes"/>
      <point x="368" y="54"/>
      <point x="444" y="130"/>
      <point x="444" y="222" type="curve" smooth="yes"/>
      <point x="444" y="313"/>
      <point x="368" y="390"/>
      <point x="277" y="390" type="curve" smooth="yes"/>
      <point x="214" y="390"/>
      <point x="154" y="356"/>
      <point x="118" y="292" type="curve"/>
      <point x="55" y="327" type="line"/>
      <point x="92" y="407"/>
      <point x="178" y="461"/>
      <point x="277" y="461" type="curve" smooth="yes"/>
      <point x="408" y="461"/>
      <point x="516" y="352"/>
    </contour>
  </outline>
</glyph>
<glyph name="u1064" format="2">
  <advance width="405"/>
  <unicode hex="1064"/>
  <anchor x="203" y="-53" name="BS"/>
  <anchor x="203" y="-53" name="L"/>
  <anchor x="203" y="495" name="U"/>
  <anchor x="192" y="-53" name="BD"/>
  <outline>
    <contour>
      <point x="364" y="0" type="line"/>
      <point x="167" y="0" type="line"/>
      <point x="167" y="372" type="line"/>
      <point x="40" y="372" type="line"/>
      <point x="40" y="444" type="line"/>
      <point x="236" y="444" type="line"/>
      <point x="236" y="72" type="line"/>
      <point x="364" y="72" type="line"/>
    </contour>
  </outline>
</glyph>
<glyph name="u1067" format="2">
  <advance width="311"/>
  <unicode hex="1067"/>
  <anchor x="153" y="-53" name="BS"/>
  <anchor x="153" y="-53" name="L"/>
  <anchor x="228" y="495" name="U"/>
  <anchor x="138" y="-53" name="BD"/>
  <outline>
    <contour>
      <point x="266" y="464" type="line"/>
      <point x="266" y="101" type="line" smooth="yes"/>
      <point x="266" y="27"/>
      <point x="217" y="-18"/>
      <point x="153" y="-18" type="curve" smooth="yes"/>
      <point x="94" y="-18"/>
      <point x="45" y="33"/>
      <point x="45" y="92" type="curve" smooth="yes"/>
      <point x="45" y="151"/>
      <point x="94" y="201"/>
      <point x="153" y="201" type="curve" smooth="yes"/>
      <point x="167" y="201"/>
      <point x="181" y="198"/>
      <point x="194" y="191" type="curve"/>
      <point x="194" y="464" type="line"/>
    </contour>
    <contour>
      <point x="199" y="92" type="curve" smooth="yes"/>
      <point x="199" y="116"/>
      <point x="178" y="137"/>
      <point x="153" y="137" type="curve" smooth="yes"/>
      <point x="127" y="137"/>
      <point x="107" y="116"/>
      <point x="107" y="92" type="curve" smooth="yes"/>
      <point x="107" y="68"/>
      <point x="127" y="45"/>
      <point x="153" y="45" type="curve" smooth="yes"/>
      <point x="180" y="45"/>
      <point x="199" y="68"/>
    </contour>
  </outline>
</glyph>
<glyph name="u1068" format="2">
  <advance width="360"/>
  <unicode hex="1068"/>
  <anchor x="147" y="-53" name="BS"/>
  <anchor x="147" y="-53" name="L"/>
  <anchor x="134" y="-53" name="BD"/>
  <outline>
    <contour>
      <point x="305" y="667" type="curve" smooth="yes"/>
      <point x="305" y="620"/>
      <point x="265" y="580"/>
      <point x="218" y="580" type="curve" smooth="yes"/>
      <point x="171" y="580"/>
      <point x="131" y="620"/>
      <point x="131" y="667" type="curve" smooth="yes"/>
      <point x="131" y="714"/>
      <point x="171" y="754"/>
      <point x="218" y="754" type="curve" smooth="yes"/>
      <point x="265" y="754"/>
      <point x="305" y="714"/>
    </contour>
    <contour>
      <point x="264" y="667" type="curve" smooth="yes"/>
      <point x="264" y="691"/>
      <point x="243" y="712"/>
      <point x="218" y="712" type="curve" smooth="yes"/>
      <point x="192" y="712"/>
      <point x="172" y="691"/>
      <point x="172" y="667" type="curve" smooth="yes"/>
      <point x="172" y="643"/>
      <point x="192" y="620"/>
      <point x="218" y="620" type="curve" smooth="yes"/>
      <point x="243" y="620"/>
      <point x="264" y="642"/>
    </contour>
    <contour>
      <point x="251" y="0" type="line"/>
      <point x="55" y="0" type="line"/>
      <point x="55" y="72" type="line"/>
      <point x="182" y="72" type="line"/>
      <point x="182" y="444" type="line"/>
      <point x="251" y="444" type="line"/>
    </contour>
  </outline>
</glyph>
<glyph name="u1069" format="2">
  <advance width="368"/>
  <unicode hex="1069"/>
  <anchor x="0" y="0" name="_R"/>
  <anchor x="186" y="-53" name="BS"/>
  <anchor x="186" y="-53" name="L"/>
  <anchor x="190" y="496" name="U"/>
  <anchor x="180" y="-53" name="BD"/>
  <outline>
    <contour>
      <point x="325" y="331" type="curve" smooth="yes"/>
      <point x="325" y="299"/>
      <point x="315" y="269"/>
      <point x="288" y="247" type="curve" smooth="yes"/>
      <point x="247" y="211"/>
      <point x="183" y="207"/>
      <point x="151" y="193" type="curve" smooth="yes"/>
      <point x="128" y="182"/>
      <point x="112" y="164"/>
      <point x="112" y="140" type="curve" smooth="yes"/>
      <point x="112" y="74"/>
      <point x="158" y="54"/>
      <point x="185" y="54" type="curve" smooth="yes"/>
      <point x="211" y="54"/>
      <point x="241" y="61"/>
      <point x="268" y="90" type="curve"/>
      <point x="314" y="35" type="line"/>
      <point x="279" y="-10"/>
      <point x="219" y="-18"/>
      <point x="185" y="-18" type="curve" smooth="yes"/>
      <point x="133" y="-18"/>
      <point x="40" y="21"/>
      <point x="40" y="142" type="curve" smooth="yes"/>
      <point x="40" y="176"/>
      <point x="58" y="223"/>
      <point x="108" y="249" type="curve" smooth="yes"/>
      <point x="141" y="267"/>
      <point x="204" y="276"/>
      <point x="236" y="297" type="curve" smooth="yes"/>
      <point x="247" y="306"/>
      <point x="253" y="316"/>
      <point x="253" y="331" type="curve" smooth="yes"/>
      <point x="253" y="359"/>
      <point x="231" y="392"/>
      <point x="191" y="392" type="curve" smooth="yes"/>
      <point x="168" y="392"/>
      <point x="145" y="387"/>
      <point x="111" y="357" type="curve"/>
      <point x="65" y="411" type="line"/>
      <point x="107" y="456"/>
      <point x="163" y="462"/>
      <point x="191" y="462" type="curve" smooth="yes"/>
      <point x="263" y="462"/>
      <point x="325" y="413"/>
    </contour>
  </outline>
</glyph>
<glyph name="u106B" format="2">
  <advance width="321"/>
  <unicode hex="106B"/>
  <anchor x="230" y="-53" name="BS"/>
  <anchor x="230" y="-53" name="L"/>
  <anchor x="156" y="495" name="U"/>
  <anchor x="210" y="-53" name="BD"/>
  <outline>
    <contour>
      <point x="266" y="-3" type="line"/>
      <point x="194" y="-3" type="line"/>
      <point x="194" y="340" type="line" smooth="yes"/>
      <point x="194" y="377"/>
      <point x="175" y="394"/>
      <point x="155" y="394" type="curve" smooth="yes"/>
      <point x="136" y="394"/>
      <point x="116" y="377"/>
      <point x="116" y="350" type="curve"/>
      <point x="45" y="350" type="line"/>
      <point x="45" y="413"/>
      <point x="86" y="464"/>
      <point x="155" y="464" type="curve" smooth="yes"/>
      <point x="221" y="464"/>
      <point x="266" y="413"/>
      <point x="266" y="340" type="curve" smooth="yes"/>
    </contour>
  </outline>
</glyph>
<glyph name="u106C" format="2">
  <advance width="321"/>
  <unicode hex="106C"/>
  <anchor x="155" y="-53" name="BS"/>
  <anchor x="155" y="-53" name="L"/>
  <anchor x="81" y="495" name="U"/>
  <anchor x="138" y="-53" name="BD"/>
  <outline>
    <contour>
      <point x="266" y="96" type="line"/>
      <point x="266" y="33"/>
      <point x="221" y="-18"/>
      <point x="156" y="-18" type="curve" smooth="yes"/>
      <point x="94" y="-18"/>
      <point x="45" y="27"/>
      <point x="45" y="102" type="curve" smooth="yes"/>
      <point x="45" y="454" type="line"/>
      <point x="117" y="454" type="line"/>
      <point x="117" y="102" type="line" smooth="yes"/>
      <point x="117" y="69"/>
      <point x="135" y="52"/>
      <point x="156" y="52" type="curve" smooth="yes"/>
      <point x="174" y="52"/>
      <point x="195" y="69"/>
      <point x="195" y="96" type="curve"/>
    </contour>
  </outline>
</glyph>
<glyph name="u106E" format="2">
  <advance width="1194"/>
  <unicode hex="106E"/>
  <anchor x="0" y="0" name="_R"/>
  <anchor x="904" y="-53" name="BS"/>
  <anchor x="904" y="-53" name="L"/>
  <anchor x="597" y="-53" name="BD"/>
  <anchor x="904" y="495" name="U"/>
  <outline>
    <contour>
      <point x="1139" y="222" type="curve" smooth="yes"/>
      <point x="1139" y="90"/>
      <point x="1032" y="-18"/>
      <point x="904" y="-18" type="curve" smooth="yes"/>
      <point x="880" y="-18"/>
      <point x="854" y="-14"/>
      <point x="833" y="-4" type="curve"/>
      <point x="861" y="62" type="line"/>
      <point x="875" y="56"/>
      <point x="890" y="54"/>
      <point x="904" y="54" type="curve" smooth="yes"/>
      <point x="994" y="54"/>
      <point x="1068" y="130"/>
      <point x="1068" y="222" type="curve" smooth="yes"/>
      <point x="1068" y="313"/>
      <point x="994" y="390"/>
      <point x="904" y="390" type="curve" smooth="yes"/>
      <point x="814" y="390"/>
      <point x="735" y="284"/>
      <point x="735" y="197" type="curve" smooth="yes"/>
      <point x="735" y="94"/>
      <point x="701" y="32"/>
      <point x="641" y="-18" type="curve"/>
      <point x="599" y="42" type="line"/>
      <point x="640" y="84"/>
      <point x="664" y="128"/>
      <point x="664" y="204" type="curve" smooth="yes"/>
      <point x="664" y="307"/>
      <point x="592" y="388"/>
      <point x="496" y="388" type="curve" smooth="yes"/>
      <point x="481" y="388"/>
      <point x="469" y="386"/>
      <point x="463" y="385" type="curve"/>
      <point x="507" y="343"/>
      <point x="534" y="280"/>
      <point x="534" y="204" type="curve" smooth="yes"/>
      <point x="533" y="97"/>
      <point x="503" y="34"/>
      <point x="439" y="-18" type="curve"/>
      <point x="397" y="42" type="line"/>
      <point x="439" y="84"/>
      <point x="462" y="128"/>
      <point x="462" y="204" type="curve" smooth="yes"/>
      <point x="462" y="307"/>
      <point x="391" y="388"/>
      <point x="295" y="388" type="curve" smooth="yes"/>
      <point x="199" y="388"/>
      <point x="127" y="307"/>
      <point x="127" y="204" type="curve" smooth="yes"/>
      <point x="127" y="128"/>
      <point x="151" y="84"/>
      <point x="192" y="42" type="curve"/>
      <point x="150" y="-18" type="line"/>
      <point x="89" y="34"/>
      <point x="55" y="97"/>
      <point x="55" y="204" type="curve" smooth="yes"/>
      <point x="55" y="352"/>
      <point x="161" y="460"/>
      <point x="295" y="460" type="curve" smooth="yes"/>
      <point x="331" y="460"/>
      <point x="364" y="453"/>
      <point x="395" y="437" type="curve"/>
      <point x="425" y="453"/>
      <point x="466" y="460"/>
      <point x="496" y="460" type="curve" smooth="yes"/>
      <point x="584" y="460"/>
      <point x="663" y="414"/>
      <point x="704" y="331" type="curve"/>
      <point x="744" y="404"/>
      <point x="816" y="461"/>
      <point x="904" y="461" type="curve" smooth="yes"/>
      <point x="1032" y="461"/>
      <point x="1139" y="352"/>
    </contour>
  </outline>
</glyph>
<glyph name="u106F" format="2">
  <advance width="993"/>
  <unicode hex="106F"/>
  <anchor x="0" y="0" name="_R"/>
  <anchor x="390" y="-53" name="BS"/>
  <anchor x="505" y="-53" name="L"/>
  <anchor x="263" y="-53" name="BD"/>
  <anchor x="701" y="495" name="U"/>
  <outline>
    <contour>
      <point x="938" y="222" type="curve" smooth="yes"/>
      <point x="938" y="90"/>
      <point x="830" y="-18"/>
      <point x="701" y="-18" type="curve" smooth="yes"/>
      <point x="677" y="-18"/>
      <point x="652" y="-14"/>
      <point x="631" y="-4" type="curve"/>
      <point x="659" y="62" type="line"/>
      <point x="671" y="56"/>
      <point x="686" y="54"/>
      <point x="701" y="54" type="curve" smooth="yes"/>
      <point x="792" y="54"/>
      <point x="866" y="130"/>
      <point x="866" y="222" type="curve" smooth="yes"/>
      <point x="866" y="313"/>
      <point x="792" y="390"/>
      <point x="701" y="390" type="curve" smooth="yes"/>
      <point x="610" y="390"/>
      <point x="538" y="284"/>
      <point x="534" y="222" type="curve" smooth="yes"/>
      <point x="532" y="107"/>
      <point x="442" y="-18"/>
      <point x="295" y="-18" type="curve" smooth="yes"/>
      <point x="162" y="-18"/>
      <point x="55" y="91"/>
      <point x="55" y="239" type="curve" smooth="yes"/>
      <point x="55" y="343"/>
      <point x="89" y="408"/>
      <point x="150" y="460" type="curve"/>
      <point x="194" y="402" type="line"/>
      <point x="151" y="360"/>
      <point x="127" y="314"/>
      <point x="127" y="239" type="curve" smooth="yes"/>
      <point x="127" y="135"/>
      <point x="203" y="54"/>
      <point x="295" y="54" type="curve" smooth="yes"/>
      <point x="386" y="54"/>
      <point x="462" y="135"/>
      <point x="462" y="239" type="curve" smooth="yes"/>
      <point x="462" y="314"/>
      <point x="438" y="359"/>
      <point x="395" y="402" type="curve"/>
      <point x="439" y="460" type="line"/>
      <point x="473" y="431"/>
      <point x="500" y="400"/>
      <point x="515" y="353" type="curve"/>
      <point x="558" y="415"/>
      <point x="625" y="461"/>
      <point x="701" y="461" type="curve" smooth="yes"/>
      <point x="830" y="461"/>
      <point x="938" y="352"/>
    </contour>
    <contour>
      <point x="732" y="-457" type="line"/>
      <point x="579" y="-457" type="line"/>
      <point x="579" y="-390" type="line"/>
      <point x="664" y="-390" type="line"/>
      <point x="664" y="-98" type="line"/>
      <point x="732" y="-98" type="line"/>
    </contour>
  </outline>
</glyph>
<glyph name="u1070" format="2">
  <advance width="989"/>
  <unicode hex="1070"/>
  <anchor x="0" y="0" name="_R"/>
  <anchor x="390" y="-53" name="BS"/>
  <anchor x="505" y="-53" name="L"/>
  <anchor x="263" y="-53" name="BD"/>
  <anchor x="698" y="495" name="U"/>
  <outline>
    <contour>
      <point x="934" y="222" type="curve" smooth="yes"/>
      <point x="934" y="90"/>
      <point x="826" y="-18"/>
      <point x="697" y="-18" type="curve" smooth="yes"/>
      <point x="610" y="-18"/>
      <point x="536" y="38"/>
      <point x="495" y="112" type="curve"/>
      <point x="454" y="30"/>
      <point x="376" y="-18"/>
      <point x="287" y="-18" type="curve" smooth="yes"/>
      <point x="145" y="-18"/>
      <point x="55" y="86"/>
      <point x="55" y="167" type="curve" smooth="yes"/>
      <point x="55" y="302"/>
      <point x="194" y="285"/>
      <point x="194" y="340" type="curve" smooth="yes"/>
      <point x="194" y="379"/>
      <point x="171" y="392"/>
      <point x="151" y="392" type="curve" smooth="yes"/>
      <point x="133" y="392"/>
      <point x="118" y="379"/>
      <point x="112" y="364" type="curve"/>
      <point x="55" y="398" type="line"/>
      <point x="67" y="431"/>
      <point x="108" y="459"/>
      <point x="151" y="459" type="curve" smooth="yes"/>
      <point x="207" y="459"/>
      <point x="261" y="419"/>
      <point x="261" y="340" type="curve" smooth="yes"/>
      <point x="261" y="239"/>
      <point x="127" y="250"/>
      <point x="127" y="167" type="curve" smooth="yes"/>
      <point x="127" y="140"/>
      <point x="176" y="54"/>
      <point x="287" y="54" type="curve" smooth="yes"/>
      <point x="379" y="54"/>
      <point x="455" y="131"/>
      <point x="455" y="248" type="curve" smooth="yes"/>
      <point x="455" y="318"/>
      <point x="413" y="376"/>
      <point x="390" y="400" type="curve"/>
      <point x="432" y="460" type="line"/>
      <point x="491" y="414"/>
      <point x="527" y="349"/>
      <point x="527" y="237" type="curve" smooth="yes"/>
      <point x="528" y="157"/>
      <point x="610" y="54"/>
      <point x="697" y="54" type="curve" smooth="yes"/>
      <point x="788" y="54"/>
      <point x="862" y="130"/>
      <point x="862" y="222" type="curve" smooth="yes"/>
      <point x="862" y="313"/>
      <point x="788" y="390"/>
      <point x="697" y="390" type="curve" smooth="yes"/>
      <point x="683" y="390"/>
      <point x="668" y="387"/>
      <point x="655" y="381" type="curve"/>
      <point x="627" y="447" type="line"/>
      <point x="647" y="457"/>
      <point x="673" y="461"/>
      <point x="697" y="461" type="curve" smooth="yes"/>
      <point x="826" y="461"/>
      <point x="934" y="353"/>
    </contour>
    <contour>
      <point x="732" y="-457" type="line"/>
      <point x="579" y="-457" type="line"/>
      <point x="579" y="-390" type="line"/>
      <point x="664" y="-390" type="line"/>
      <point x="664" y="-98" type="line"/>
      <point x="732" y="-98" type="line"/>
    </contour>
  </outline>
</glyph>
<glyph name="u1071" format="2">
  <advance width="510"/>
  <unicode hex="1071"/>
  <anchor x="255" y="495" name="_U"/>
  <anchor x="-495" y="-53" name="BDM"/>
  <anchor x="231" y="495" name="_UM"/>
  <outline>
    <contour>
      <point x="228" y="627" type="curve" smooth="yes"/>
      <point x="228" y="578"/>
      <point x="188" y="539"/>
      <point x="141" y="539" type="curve" smooth="yes"/>
      <point x="95" y="539"/>
      <point x="54" y="578"/>
      <point x="54" y="627" type="curve" smooth="yes"/>
      <point x="54" y="673"/>
      <point x="95" y="713"/>
      <point x="141" y="713" type="curve" smooth="yes"/>
      <point x="188" y="713"/>
      <point x="228" y="673"/>
    </contour>
    <contour>
      <point x="187" y="627" type="curve" smooth="yes"/>
      <point x="187" y="648"/>
      <point x="168" y="671"/>
      <point x="141" y="671" type="curve" smooth="yes"/>
      <point x="114" y="671"/>
      <point x="95" y="648"/>
      <point x="95" y="627" type="curve" smooth="yes"/>
      <point x="95" y="604"/>
      <point x="114" y="579"/>
      <point x="141" y="579" type="curve" smooth="yes"/>
      <point x="168" y="579"/>
      <point x="187" y="603"/>
    </contour>
    <contour>
      <point x="455" y="627" type="curve" smooth="yes"/>
      <point x="455" y="578"/>
      <point x="415" y="539"/>
      <point x="368" y="539" type="curve" smooth="yes"/>
      <point x="322" y="539"/>
      <point x="281" y="578"/>
      <point x="281" y="627" type="curve" smooth="yes"/>
      <point x="281" y="673"/>
      <point x="322" y="713"/>
      <point x="368" y="713" type="curve" smooth="yes"/>
      <point x="415" y="713"/>
      <point x="455" y="673"/>
    </contour>
    <contour>
      <point x="414" y="627" type="curve" smooth="yes"/>
      <point x="414" y="648"/>
      <point x="395" y="671"/>
      <point x="368" y="671" type="curve" smooth="yes"/>
      <point x="341" y="671"/>
      <point x="322" y="648"/>
      <point x="322" y="627" type="curve" smooth="yes"/>
      <point x="322" y="604"/>
      <point x="341" y="579"/>
      <point x="368" y="579" type="curve" smooth="yes"/>
      <point x="395" y="579"/>
      <point x="414" y="603"/>
    </contour>
  </outline>
</glyph>
<glyph name="u1075" format="2">
  <advance width="582"/>
  <unicode hex="1075"/>
  <anchor x="0" y="0" name="_R"/>
  <anchor x="287" y="-53" name="BS"/>
  <anchor x="287" y="-53" name="L"/>
  <anchor x="287" y="495" name="U"/>
  <anchor x="285" y="-53" name="BD"/>
  <outline>
    <contour>
      <point x="527" y="203" type="curve" smooth="yes"/>
      <point x="527" y="93"/>
      <point x="491" y="28"/>
      <point x="432" y="-18" type="curve"/>
      <point x="390" y="42" type="line"/>
      <point x="434" y="85"/>
      <point x="455" y="142"/>
      <point x="455" y="203" type="curve" smooth="yes"/>
      <point x="455" y="322"/>
      <point x="369" y="388"/>
      <point x="287" y="388" type="curve" smooth="yes"/>
      <point x="176" y="388"/>
      <point x="127" y="301"/>
      <point x="127" y="275" type="curve" smooth="yes"/>
      <point x="127" y="193"/>
      <point x="261" y="204"/>
      <point x="261" y="103" type="curve" smooth="yes"/>
      <point x="261" y="24"/>
      <point x="208" y="-17"/>
      <point x="148" y="-17" type="curve" smooth="yes"/>
      <point x="111" y="-17"/>
      <point x="69" y="8"/>
      <point x="55" y="39" type="curve"/>
      <point x="112" y="74" type="line"/>
      <point x="117" y="62"/>
      <point x="132" y="50"/>
      <point x="148" y="50" type="curve" smooth="yes"/>
      <point x="168" y="50"/>
      <point x="194" y="61"/>
      <point x="194" y="103" type="curve" smooth="yes"/>
      <point x="194" y="157"/>
      <point x="55" y="139"/>
      <point x="55" y="275" type="curve" smooth="yes"/>
      <point x="55" y="357"/>
      <point x="145" y="460"/>
      <point x="287" y="460" type="curve" smooth="yes"/>
      <point x="418" y="460"/>
      <point x="527" y="356"/>
    </contour>
  </outline>
</glyph>
<glyph name="u1076" format="2">
  <advance width="587"/>
  <unicode hex="1076"/>
  <anchor x="0" y="0" name="_R"/>
  <anchor x="292" y="-53" name="BS"/>
  <anchor x="292" y="-53" name="L"/>
  <anchor x="297" y="495" name="U"/>
  <anchor x="289" y="-53" name="BD"/>
  <outline>
    <contour>
      <point x="531" y="222" type="curve" smooth="yes"/>
      <point x="531" y="91"/>
      <point x="425" y="-18"/>
      <point x="292" y="-18" type="curve" smooth="yes"/>
      <point x="131" y="-18"/>
      <point x="64" y="103"/>
      <point x="61" y="166" type="curve"/>
      <point x="125" y="203"/>
      <point x="179" y="221"/>
      <point x="229" y="221" type="curve" smooth="yes"/>
      <point x="298" y="221"/>
      <point x="375" y="186"/>
      <point x="423" y="123" type="curve"/>
      <point x="445" y="150"/>
      <point x="459" y="183"/>
      <point x="459" y="222" type="curve" smooth="yes"/>
      <point x="459" y="306"/>
      <point x="393" y="390"/>
      <point x="307" y="390" type="curve" smooth="yes"/>
      <point x="242" y="390"/>
      <point x="276" y="269"/>
      <point x="169" y="269" type="curve" smooth="yes"/>
      <point x="114" y="269"/>
      <point x="55" y="305"/>
      <point x="55" y="370" type="curve" smooth="yes"/>
      <point x="55" y="405"/>
      <point x="68" y="439"/>
      <point x="108" y="461" type="curve"/>
      <point x="146" y="413" type="line"/>
      <point x="130" y="405"/>
      <point x="121" y="391"/>
      <point x="121" y="376" type="curve" smooth="yes"/>
      <point x="121" y="354"/>
      <point x="137" y="334"/>
      <point x="169" y="334" type="curve" smooth="yes"/>
      <point x="228" y="334"/>
      <point x="194" y="461"/>
      <point x="307" y="461" type="curve" smooth="yes"/>
      <point x="429" y="461"/>
      <point x="531" y="344"/>
    </contour>
    <contour>
      <point x="376" y="75" type="curve"/>
      <point x="344" y="123"/>
      <point x="292" y="156"/>
      <point x="231" y="156" type="curve" smooth="yes"/>
      <point x="202" y="156"/>
      <point x="174" y="150"/>
      <point x="142" y="136" type="curve"/>
      <point x="179" y="76"/>
      <point x="235" y="54"/>
      <point x="292" y="54" type="curve" smooth="yes"/>
      <point x="325" y="54"/>
      <point x="351" y="62"/>
    </contour>
  </outline>
</glyph>
<glyph name="u1077" format="2">
  <advance width="585"/>
  <unicode hex="1077"/>
  <anchor x="0" y="0" name="_R"/>
  <anchor x="292" y="-53" name="BS"/>
  <anchor x="292" y="-53" name="L"/>
  <anchor x="292" y="495" name="U"/>
  <anchor x="285" y="-53" name="BD"/>
  <outline>
    <contour>
      <point x="534" y="203" type="curve" smooth="yes"/>
      <point x="534" y="99"/>
      <point x="470" y="33"/>
      <point x="409" y="-18" type="curve"/>
      <point x="350" y="29"/>
      <point x="303" y="103"/>
      <point x="303" y="190" type="curve" smooth="yes"/>
      <point x="303" y="261"/>
      <point x="330" y="314"/>
      <point x="381" y="359" type="curve"/>
      <point x="356" y="378"/>
      <point x="326" y="388"/>
      <point x="292" y="388" type="curve" smooth="yes"/>
      <point x="178" y="388"/>
      <point x="127" y="301"/>
      <point x="127" y="275" type="curve" smooth="yes"/>
      <point x="127" y="193"/>
      <point x="258" y="204"/>
      <point x="258" y="103" type="curve" smooth="yes"/>
      <point x="258" y="24"/>
      <point x="208" y="-17"/>
      <point x="148" y="-17" type="curve" smooth="yes"/>
      <point x="111" y="-17"/>
      <point x="67" y="11"/>
      <point x="55" y="39" type="curve"/>
      <point x="112" y="74" type="line"/>
      <point x="114" y="66"/>
      <point x="130" y="50"/>
      <point x="148" y="50" type="curve" smooth="yes"/>
      <point x="168" y="50"/>
      <point x="191" y="64"/>
      <point x="191" y="103" type="curve" smooth="yes"/>
      <point x="191" y="158"/>
      <point x="55" y="139"/>
      <point x="55" y="275" type="curve" smooth="yes"/>
      <point x="55" y="357"/>
      <point x="146" y="460"/>
      <point x="292" y="460" type="curve" smooth="yes"/>
      <point x="424" y="460"/>
      <point x="534" y="354"/>
    </contour>
    <contour>
      <point x="462" y="203" type="curve" smooth="yes"/>
      <point x="462" y="247"/>
      <point x="451" y="283"/>
      <point x="430" y="313" type="curve"/>
      <point x="390" y="282"/>
      <point x="368" y="242"/>
      <point x="368" y="191" type="curve" smooth="yes"/>
      <point x="368" y="155"/>
      <point x="377" y="118"/>
      <point x="403" y="79" type="curve"/>
      <point x="435" y="113"/>
      <point x="462" y="150"/>
    </contour>
  </outline>
</glyph>
<glyph name="u1078" format="2">
  <advance width="987"/>
  <unicode hex="1078"/>
  <anchor x="0" y="0" name="_R"/>
  <anchor x="697" y="-53" name="BS"/>
  <anchor x="697" y="-53" name="L"/>
  <anchor x="500" y="-53" name="BD"/>
  <anchor x="697" y="495" name="U"/>
  <outline>
    <contour>
      <point x="931" y="222" type="curve" smooth="yes"/>
      <point x="931" y="90"/>
      <point x="828" y="-18"/>
      <point x="695" y="-18" type="curve" smooth="yes"/>
      <point x="551" y="-18"/>
      <point x="462" y="112"/>
      <point x="462" y="213" type="curve" smooth="yes"/>
      <point x="459" y="269"/>
      <point x="395" y="390"/>
      <point x="291" y="390" type="curve" smooth="yes"/>
      <point x="201" y="390"/>
      <point x="127" y="313"/>
      <point x="127" y="222" type="curve" smooth="yes"/>
      <point x="127" y="130"/>
      <point x="201" y="54"/>
      <point x="291" y="54" type="curve" smooth="yes"/>
      <point x="306" y="54"/>
      <point x="319" y="57"/>
      <point x="333" y="62" type="curve"/>
      <point x="362" y="-4" type="line"/>
      <point x="341" y="-13"/>
      <point x="313" y="-18"/>
      <point x="291" y="-18" type="curve" smooth="yes"/>
      <point x="163" y="-18"/>
      <point x="55" y="90"/>
      <point x="55" y="222" type="curve" smooth="yes"/>
      <point x="55" y="352"/>
      <point x="163" y="461"/>
      <point x="291" y="461" type="curve" smooth="yes"/>
      <point x="376" y="461"/>
      <point x="451" y="405"/>
      <point x="492" y="334" type="curve"/>
      <point x="530" y="410"/>
      <point x="608" y="461"/>
      <point x="698" y="461" type="curve" smooth="yes"/>
      <point x="827" y="461"/>
      <point x="931" y="352"/>
    </contour>
    <contour>
      <point x="860" y="222" type="curve" smooth="yes"/>
      <point x="860" y="313"/>
      <point x="787" y="390"/>
      <point x="695" y="390" type="curve" smooth="yes"/>
      <point x="603" y="390"/>
      <point x="533" y="311"/>
      <point x="533" y="219" type="curve" smooth="yes"/>
      <point x="533" y="135"/>
      <point x="602" y="54"/>
      <point x="698" y="54" type="curve" smooth="yes"/>
      <point x="787" y="54"/>
      <point x="860" y="130"/>
    </contour>
  </outline>
</glyph>
<glyph name="u1083" format="2">
  <advance width="301"/>
  <unicode hex="1083"/>
  <anchor x="187" y="495" name="U"/>
  <outline>
    <contour>
      <point x="346" y="-457" type="line"/>
      <point x="153" y="-457" type="line"/>
      <point x="153" y="372" type="line"/>
      <point x="27" y="372" type="line"/>
      <point x="27" y="444" type="line"/>
      <point x="220" y="444" type="line"/>
      <point x="220" y="-385" type="line"/>
      <point x="346" y="-385" type="line"/>
    </contour>
  </outline>
</glyph>
<glyph name="u1084" format="2">
  <advance width="540"/>
  <unicode hex="1084"/>
  <outline>
    <contour>
      <point x="484" y="117" type="line"/>
      <point x="484" y="39"/>
      <point x="413" y="-18"/>
      <point x="270" y="-18" type="curve" smooth="yes"/>
      <point x="120" y="-18"/>
      <point x="55" y="47"/>
      <point x="55" y="126" type="curve" smooth="yes"/>
      <point x="55" y="169"/>
      <point x="81" y="206"/>
      <point x="123" y="221" type="curve"/>
      <point x="81" y="236"/>
      <point x="55" y="274"/>
      <point x="55" y="317" type="curve" smooth="yes"/>
      <point x="55" y="396"/>
      <point x="120" y="461"/>
      <point x="270" y="461" type="curve" smooth="yes"/>
      <point x="410" y="461"/>
      <point x="484" y="404"/>
      <point x="484" y="326" type="curve"/>
      <point x="417" y="301" type="line"/>
      <point x="417" y="355"/>
      <point x="364" y="390"/>
      <point x="270" y="390" type="curve" smooth="yes"/>
      <point x="201" y="390"/>
      <point x="127" y="371"/>
      <point x="127" y="317" type="curve" smooth="yes"/>
      <point x="127" y="276"/>
      <point x="183" y="258"/>
      <point x="260" y="254" type="curve"/>
      <point x="260" y="190" type="line"/>
      <point x="184" y="186"/>
      <point x="127" y="168"/>
      <point x="127" y="127" type="curve" smooth="yes"/>
      <point x="127" y="72"/>
      <point x="201" y="54"/>
      <point x="270" y="54" type="curve" smooth="yes"/>
      <point x="364" y="55"/>
      <point x="417" y="88"/>
      <point x="417" y="143" type="curve"/>
    </contour>
  </outline>
</glyph>
<glyph name="u1085" format="2">
  <advance width="0"/>
  <unicode hex="1085"/>
  <anchor x="-89" y="495" name="_Y"/>
  <anchor x="-220" y="495" name="_U"/>
  <anchor x="-219" y="495" name="UM"/>
  <outline>
    <contour>
      <point x="-55" y="645" type="line"/>
      <point x="-55" y="584"/>
      <point x="-110" y="541"/>
      <point x="-220" y="541" type="curve" smooth="yes"/>
      <point x="-336" y="541"/>
      <point x="-386" y="592"/>
      <point x="-386" y="653" type="curve" smooth="yes"/>
      <point x="-386" y="685"/>
      <point x="-365" y="715"/>
      <point x="-333" y="726" type="curve"/>
      <point x="-365" y="737"/>
      <point x="-386" y="766"/>
      <point x="-386" y="799" type="curve" smooth="yes"/>
      <point x="-386" y="862"/>
      <point x="-336" y="911"/>
      <point x="-220" y="911" type="curve" smooth="yes"/>
      <point x="-112" y="911"/>
      <point x="-55" y="868"/>
      <point x="-55" y="807" type="curve"/>
      <point x="-107" y="787" type="line"/>
      <point x="-107" y="827"/>
      <point x="-147" y="856"/>
      <point x="-220" y="856" type="curve" smooth="yes"/>
      <point x="-274" y="856"/>
      <point x="-331" y="843"/>
      <point x="-331" y="799" type="curve" smooth="yes"/>
      <point x="-331" y="767"/>
      <point x="-281" y="751"/>
      <point x="-228" y="751" type="curve"/>
      <point x="-228" y="702" type="line"/>
      <point x="-278" y="701"/>
      <point x="-331" y="685"/>
      <point x="-331" y="653" type="curve" smooth="yes"/>
      <point x="-331" y="609"/>
      <point x="-274" y="596"/>
      <point x="-220" y="596" type="curve" smooth="yes"/>
      <point x="-150" y="596"/>
      <point x="-107" y="625"/>
      <point x="-107" y="666" type="curve"/>
    </contour>
  </outline>
</glyph>
<glyph name="u1086" format="2">
  <advance width="0"/>
  <unicode hex="1086"/>
  <anchor x="-86" y="495" name="_Y"/>
  <anchor x="-173" y="495" name="_U"/>
  <anchor x="-169" y="495" name="UM"/>
  <outline>
    <contour>
      <point x="-58" y="795" type="curve" smooth="yes"/>
      <point x="-58" y="787" type="line" smooth="yes"/>
      <point x="-58" y="661"/>
      <point x="-141" y="571"/>
      <point x="-202" y="537" type="curve"/>
      <point x="-219" y="550" type="line"/>
      <point x="-176" y="577"/>
      <point x="-140" y="638"/>
      <point x="-130" y="682" type="curve"/>
      <point x="-143" y="678"/>
      <point x="-158" y="677"/>
      <point x="-173" y="677" type="curve" smooth="yes"/>
      <point x="-235" y="677"/>
      <point x="-287" y="731"/>
      <point x="-287" y="795" type="curve" smooth="yes"/>
      <point x="-287" y="861"/>
      <point x="-235" y="911"/>
      <point x="-173" y="911" type="curve" smooth="yes"/>
      <point x="-110" y="911"/>
      <point x="-58" y="861"/>
    </contour>
    <contour>
      <point x="-108" y="796" type="curve" smooth="yes"/>
      <point x="-108" y="827"/>
      <point x="-135" y="859"/>
      <point x="-173" y="859" type="curve" smooth="yes"/>
      <point x="-212" y="859"/>
      <point x="-237" y="827"/>
      <point x="-237" y="796" type="curve" smooth="yes"/>
      <point x="-237" y="766"/>
      <point x="-212" y="727"/>
      <point x="-173" y="727" type="curve" smooth="yes"/>
      <point x="-133" y="727"/>
      <point x="-108" y="761"/>
    </contour>
  </outline>
</glyph>
<glyph name="u1087" format="2">
  <advance width="280"/>
  <unicode hex="1087"/>
  <outline>
    <contour>
      <point x="227" y="85" type="curve" smooth="yes"/>
      <point x="227" y="78" type="line" smooth="yes"/>
      <point x="226" y="-16"/>
      <point x="159" y="-89"/>
      <point x="119" y="-107" type="curve"/>
      <point x="107" y="-97" type="line"/>
      <point x="137" y="-77"/>
      <point x="164" y="-32"/>
      <point x="171" y="3" type="curve"/>
      <point x="161" y="-1"/>
      <point x="150" y="-3"/>
      <point x="140" y="-3" type="curve" smooth="yes"/>
      <point x="93" y="-3"/>
      <point x="53" y="37"/>
      <point x="53" y="85" type="curve" smooth="yes"/>
      <point x="53" y="133"/>
      <point x="93" y="171"/>
      <point x="140" y="171" type="curve" smooth="yes"/>
      <point x="186" y="171"/>
      <point x="227" y="133"/>
    </contour>
    <contour>
      <point x="186" y="85" type="curve" smooth="yes"/>
      <point x="186" y="107"/>
      <point x="167" y="130"/>
      <point x="140" y="130" type="curve" smooth="yes"/>
      <point x="112" y="130"/>
      <point x="94" y="107"/>
      <point x="94" y="85" type="curve" smooth="yes"/>
      <point x="94" y="63"/>
      <point x="112" y="37"/>
      <point x="140" y="37" type="curve" smooth="yes"/>
      <point x="168" y="37"/>
      <point x="186" y="59"/>
    </contour>
  </outline>
</glyph>
<glyph name="u108A" format="2">
  <advance width="389"/>
  <unicode hex="108A"/>
  <outline>
    <contour>
      <point x="333" y="396" type="line"/>
      <point x="315" y="356"/>
      <point x="243" y="290"/>
      <point x="149" y="289" type="curve" smooth="yes"/>
      <point x="142" y="289" type="line" smooth="yes"/>
      <point x="94" y="289"/>
      <point x="55" y="328"/>
      <point x="55" y="375" type="curve" smooth="yes"/>
      <point x="55" y="421"/>
      <point x="94" y="461"/>
      <point x="142" y="461" type="curve" smooth="yes"/>
      <point x="189" y="461"/>
      <point x="229" y="421"/>
      <point x="229" y="375" type="curve" smooth="yes"/>
      <point x="229" y="364"/>
      <point x="227" y="353"/>
      <point x="223" y="344" type="curve"/>
      <point x="257" y="350"/>
      <point x="303" y="377"/>
      <point x="323" y="408" type="curve"/>
    </contour>
    <contour>
      <point x="189" y="375" type="curve" smooth="yes"/>
      <point x="189" y="401"/>
      <point x="165" y="420"/>
      <point x="142" y="420" type="curve" smooth="yes"/>
      <point x="118" y="420"/>
      <point x="96" y="401"/>
      <point x="96" y="375" type="curve" smooth="yes"/>
      <point x="96" y="349"/>
      <point x="118" y="328"/>
      <point x="142" y="328" type="curve" smooth="yes"/>
      <point x="165" y="328"/>
      <point x="189" y="348"/>
    </contour>
    <contour>
      <point x="333" y="105" type="line"/>
      <point x="315" y="65"/>
      <point x="242" y="-2"/>
      <point x="148" y="-3" type="curve" smooth="yes"/>
      <point x="142" y="-3" type="line" smooth="yes"/>
      <point x="94" y="-3"/>
      <point x="55" y="37"/>
      <point x="55" y="84" type="curve" smooth="yes"/>
      <point x="55" y="131"/>
      <point x="94" y="171"/>
      <point x="142" y="171" type="curve" smooth="yes"/>
      <point x="189" y="171"/>
      <point x="229" y="131"/>
      <point x="229" y="84" type="curve" smooth="yes"/>
      <point x="229" y="73"/>
      <point x="227" y="63"/>
      <point x="223" y="53" type="curve"/>
      <point x="257" y="60"/>
      <point x="303" y="86"/>
      <point x="323" y="117" type="curve"/>
    </contour>
    <contour>
      <point x="189" y="84" type="curve" smooth="yes"/>
      <point x="189" y="110"/>
      <point x="165" y="129"/>
      <point x="142" y="129" type="curve" smooth="yes"/>
      <point x="118" y="129"/>
      <point x="96" y="110"/>
      <point x="96" y="84" type="curve" smooth="yes"/>
      <point x="96" y="58"/>
      <point x="118" y="38"/>
      <point x="142" y="38" type="curve" smooth="yes"/>
      <point x="165" y="38"/>
      <point x="189" y="57"/>
    </contour>
  </outline>
</glyph>
<glyph name="u108B" format="2">
  <advance width="282"/>
  <unicode hex="108B"/>
  <outline>
    <contour>
      <point x="228" y="226" type="curve" smooth="yes"/>
      <point x="228" y="177"/>
      <point x="188" y="138"/>
      <point x="141" y="138" type="curve" smooth="yes"/>
      <point x="95" y="138"/>
      <point x="54" y="177"/>
      <point x="54" y="226" type="curve" smooth="yes"/>
      <point x="54" y="273"/>
      <point x="95" y="313"/>
      <point x="141" y="313" type="curve" smooth="yes"/>
      <point x="188" y="313"/>
      <point x="228" y="273"/>
    </contour>
    <contour>
      <point x="187" y="226" type="curve" smooth="yes"/>
      <point x="187" y="247"/>
      <point x="168" y="271"/>
      <point x="141" y="271" type="curve" smooth="yes"/>
      <point x="114" y="271"/>
      <point x="95" y="247"/>
      <point x="95" y="226" type="curve" smooth="yes"/>
      <point x="95" y="204"/>
      <point x="114" y="179"/>
      <point x="141" y="179" type="curve" smooth="yes"/>
      <point x="168" y="179"/>
      <point x="187" y="203"/>
    </contour>
  </outline>
</glyph>
<glyph name="u108C" format="2">
  <advance width="510"/>
  <unicode hex="108C"/>
  <outline>
    <contour>
      <point x="228" y="226" type="curve" smooth="yes"/>
      <point x="228" y="177"/>
      <point x="188" y="138"/>
      <point x="141" y="138" type="curve" smooth="yes"/>
      <point x="95" y="138"/>
      <point x="54" y="177"/>
      <point x="54" y="226" type="curve" smooth="yes"/>
      <point x="54" y="273"/>
      <point x="95" y="313"/>
      <point x="141" y="313" type="curve" smooth="yes"/>
      <point x="188" y="313"/>
      <point x="228" y="273"/>
    </contour>
    <contour>
      <point x="187" y="226" type="curve" smooth="yes"/>
      <point x="187" y="247"/>
      <point x="168" y="271"/>
      <point x="141" y="271" type="curve" smooth="yes"/>
      <point x="114" y="271"/>
      <point x="95" y="247"/>
      <point x="95" y="226" type="curve" smooth="yes"/>
      <point x="95" y="204"/>
      <point x="114" y="179"/>
      <point x="141" y="179" type="curve" smooth="yes"/>
      <point x="168" y="179"/>
      <point x="187" y="203"/>
    </contour>
    <contour>
      <point x="455" y="226" type="curve" smooth="yes"/>
      <point x="455" y="177"/>
      <point x="415" y="138"/>
      <point x="368" y="138" type="curve" smooth="yes"/>
      <point x="322" y="138"/>
      <point x="281" y="177"/>
      <point x="281" y="226" type="curve" smooth="yes"/>
      <point x="281" y="273"/>
      <point x="322" y="313"/>
      <point x="368" y="313" type="curve" smooth="yes"/>
      <point x="415" y="313"/>
      <point x="455" y="273"/>
    </contour>
    <contour>
      <point x="414" y="226" type="curve" smooth="yes"/>
      <point x="414" y="247"/>
      <point x="395" y="271"/>
      <point x="368" y="271" type="curve" smooth="yes"/>
      <point x="341" y="271"/>
      <point x="322" y="247"/>
      <point x="322" y="226" type="curve" smooth="yes"/>
      <point x="322" y="204"/>
      <point x="341" y="179"/>
      <point x="368" y="179" type="curve" smooth="yes"/>
      <point x="395" y="179"/>
      <point x="414" y="203"/>
    </contour>
  </outline>
</glyph>
<glyph name="u108E" format="2">
  <advance width="581"/>
  <unicode hex="108E"/>
  <anchor x="0" y="0" name="_R"/>
  <anchor x="291" y="-53" name="BS"/>
  <anchor x="291" y="-53" name="L"/>
  <anchor x="291" y="495" name="U"/>
  <anchor x="288" y="-53" name="BD"/>
  <outline>
    <contour>
      <point x="525" y="222" type="curve" smooth="yes"/>
      <point x="525" y="90"/>
      <point x="420" y="-18"/>
      <point x="290" y="-18" type="curve" smooth="yes"/>
      <point x="158" y="-18"/>
      <point x="55" y="90"/>
      <point x="55" y="222" type="curve" smooth="yes"/>
      <point x="55" y="352"/>
      <point x="159" y="461"/>
      <point x="289" y="461" type="curve" smooth="yes"/>
      <point x="422" y="461"/>
      <point x="525" y="352"/>
    </contour>
    <contour>
      <point x="453" y="218" type="curve" smooth="yes"/>
      <point x="453" y="234"/>
      <point x="450" y="250"/>
      <point x="444" y="265" type="curve"/>
      <point x="395" y="221"/>
      <point x="336" y="206"/>
      <point x="290" y="206" type="curve" smooth="yes"/>
      <point x="240" y="206"/>
      <point x="186" y="220"/>
      <point x="136" y="265" type="curve"/>
      <point x="130" y="249"/>
      <point x="127" y="233"/>
      <point x="127" y="218" type="curve" smooth="yes"/>
      <point x="127" y="139"/>
      <point x="192" y="54"/>
      <point x="289" y="54" type="curve" smooth="yes"/>
      <point x="388" y="54"/>
      <point x="453" y="139"/>
    </contour>
    <contour>
      <point x="418" y="325" type="curve"/>
      <point x="387" y="365"/>
      <point x="340" y="390"/>
      <point x="290" y="390" type="curve" smooth="yes"/>
      <point x="238" y="390"/>
      <point x="192" y="364"/>
      <point x="162" y="325" type="curve"/>
      <point x="206" y="283"/>
      <point x="255" y="271"/>
      <point x="290" y="271" type="curve" smooth="yes"/>
      <point x="325" y="271"/>
      <point x="373" y="283"/>
    </contour>
  </outline>
</glyph>
<glyph name="u1092" format="2">
  <advance width="589"/>
  <unicode hex="1092"/>
  <anchor x="0" y="0" name="_R"/>
  <outline>
    <contour>
      <point x="534" y="222" type="curve" smooth="yes"/>
      <point x="534" y="-63"/>
      <point x="126" y="-99"/>
      <point x="126" y="-370" type="curve" smooth="yes"/>
      <point x="126" y="-457" type="line"/>
      <point x="55" y="-457" type="line"/>
      <point x="55" y="-375" type="line" smooth="yes"/>
      <point x="55" y="-49"/>
      <point x="462" y="-13"/>
      <point x="462" y="222" type="curve" smooth="yes"/>
      <point x="462" y="308"/>
      <point x="386" y="391"/>
      <point x="297" y="391" type="curve" smooth="yes"/>
      <point x="207" y="391"/>
      <point x="126" y="322"/>
      <point x="126" y="182" type="curve"/>
      <point x="55" y="182" type="line"/>
      <point x="55" y="461" type="line"/>
      <point x="125" y="461" type="line"/>
      <point x="125" y="384" type="line"/>
      <point x="160" y="424"/>
      <point x="220" y="461"/>
      <point x="297" y="461" type="curve" smooth="yes"/>
      <point x="429" y="461"/>
      <point x="534" y="352"/>
    </contour>
  </outline>
</glyph>
<glyph name="u1093" format="2">
  <advance width="664"/>
  <unicode hex="1093"/>
  <anchor x="184" y="515" name="U"/>
  <outline>
    <contour>
      <point x="609" y="-457" type="line"/>
      <point x="536" y="-457" type="line"/>
      <point x="536" y="-229" type="line" smooth="yes"/>
      <point x="536" y="-133"/>
      <point x="465" y="-61"/>
      <point x="372" y="-61" type="curve" smooth="yes"/>
      <point x="361" y="-61"/>
      <point x="302" y="-64"/>
      <point x="255" y="-103" type="curve"/>
      <point x="243" y="-136"/>
      <point x="142" y="-424"/>
      <point x="130" y="-457" type="curve"/>
      <point x="55" y="-457" type="line"/>
      <point x="380" y="455" type="line"/>
      <point x="452" y="455" type="line"/>
      <point x="289" y="-6" type="line"/>
      <point x="316" y="5"/>
      <point x="348" y="11"/>
      <point x="372" y="11" type="curve" smooth="yes"/>
      <point x="523" y="11"/>
      <point x="608" y="-114"/>
      <point x="608" y="-229" type="curve" smooth="yes"/>
    </contour>
  </outline>
</glyph>
